<svg width="62" height="62" viewBox="0 0 62 62" fill="none" xmlns="http://www.w3.org/2000/svg">
<path d="M30.9999 61C47.5565 61 60.9783 47.5685 60.9783 31C60.9783 14.4315 47.5565 1 30.9999 1C14.4433 1 1.02148 14.4315 1.02148 31C1.02148 47.5685 14.4433 61 30.9999 61Z" fill="#F1F3F9" stroke="#D6DCE8" stroke-width="2" stroke-miterlimit="10"/>
<path d="M30.9999 61C47.5565 61 60.9783 47.5685 60.9783 31C60.9783 14.4315 47.5565 1 30.9999 1C14.4433 1 1.02148 14.4315 1.02148 31C1.02148 47.5685 14.4433 61 30.9999 61Z" stroke="#D6DCE8" stroke-width="2" stroke-miterlimit="10"/>
<path d="M26.3247 15.1708L25.554 13.0112C25.3999 12.4713 24.8603 12.1628 24.3208 12.1628H10.6787C9.52255 12.1628 8.59766 13.0112 8.59766 14.2453V44.7115V39.6981H54.9964V18.1018C54.9964 16.9448 54.1486 16.0193 52.9154 16.0193H27.4809C27.0955 16.0193 26.556 15.7108 26.3247 15.1708Z" fill="#F1F3F9" stroke="#D6DCE8" stroke-width="2" stroke-miterlimit="10"/>
<path d="M43.0522 25.6292H27.6846H25.9771H20.8546C20.6839 25.6292 20.4277 25.8001 20.4277 26.1419C20.4277 26.3982 20.5985 26.6545 20.8546 26.6545H25.9771H27.6846H43.0522C43.2229 26.6545 43.479 26.4836 43.479 26.1419C43.3937 25.8001 43.3083 25.6292 43.0522 25.6292Z" fill="#D6DCE8"/>
<path d="M34.1731 29.3885H27.6846H25.9771H20.8546C20.6839 29.3885 20.4277 29.5593 20.4277 29.9011C20.4277 30.1574 20.5985 30.4137 20.8546 30.4137H25.9771H27.6846H34.1731C34.3439 30.4137 34.6 30.2428 34.6 29.9011C34.6 29.5593 34.4293 29.3885 34.1731 29.3885Z" fill="#D6DCE8"/>
<path d="M58.7497 24.6578L54.973 48.1824C54.7418 49.5707 53.5086 50.6505 52.1213 50.6505H10.6553C9.1909 50.6505 8.03479 49.6478 7.80356 48.1824L4.64352 28.8999C4.41229 27.4345 5.49133 26.0461 7.03282 26.0461H30.3863C31.08 26.0461 31.6966 25.5833 31.9278 24.8892L32.6215 22.8067C32.8527 22.1125 33.4693 21.6497 34.163 21.6497H56.4374C57.8248 21.804 58.9809 23.1152 58.7497 24.6578Z" fill="white" stroke="#D6DCE8" stroke-width="2" stroke-miterlimit="10"/>
<path d="M35.5572 15.1301L36.2224 14.8343C36.4441 14.7603 36.4441 14.4645 36.2224 14.3905L35.5572 14.0947C34.7443 13.7249 34.0792 13.0593 33.7097 12.2458L33.4141 11.5802C33.3402 11.3584 33.0446 11.3584 32.9707 11.5802L32.6751 12.2458C32.3055 13.0593 31.6404 13.7249 30.8275 14.0947L30.1624 14.3905C29.9407 14.4645 29.9407 14.7603 30.1624 14.8343L30.8275 15.1301C31.6404 15.4999 32.3055 16.1655 32.6751 16.979L32.9707 17.6446C33.0446 17.8664 33.3402 17.8664 33.4141 17.6446L33.7097 16.979C34.0053 16.1655 34.6704 15.4999 35.5572 15.1301Z" fill="#AAB2C5"/>
<path d="M28.3882 10.9146L28.8317 10.6928C28.9795 10.6188 28.9795 10.4709 28.8317 10.397L28.3882 10.249C27.797 10.0272 27.3536 9.58344 27.1319 8.9918L26.9102 8.54807C26.8363 8.40016 26.6885 8.40016 26.6146 8.54807L26.4668 8.9918C26.1712 9.58344 25.7278 10.0272 25.2104 10.249L24.6931 10.4709C24.6192 10.4709 24.6192 10.6928 24.6931 10.6928L25.1365 10.9146C25.7278 11.1365 26.1712 11.5802 26.4668 12.1719L26.6885 12.6156C26.7624 12.7635 26.9102 12.7635 26.9841 12.6156L27.1319 12.1719C27.3536 11.5802 27.797 11.1365 28.3882 10.9146Z" fill="#AAB2C5"/>
<path d="M34.079 6.62527L34.4485 6.47736C34.5224 6.4034 34.5224 6.32945 34.4485 6.25549L34.079 6.10758C33.6355 5.95967 33.3399 5.58989 33.1182 5.14616L32.9704 4.77638C32.8965 4.70243 32.8226 4.70243 32.7487 4.77638L32.6009 5.14616C32.4531 5.58989 32.0836 5.88572 31.6402 6.10758L31.4185 6.25549C31.2707 6.32945 31.2707 6.47736 31.4185 6.47736L31.788 6.62527C32.2314 6.77318 32.527 7.14296 32.7487 7.58669L32.8965 7.95647C32.9704 8.03043 33.0443 8.03043 33.1182 7.95647L33.266 7.58669C33.3399 7.14296 33.7094 6.77318 34.079 6.62527Z" fill="#AAB2C5"/>
</svg>
