<svg width="65" height="72" viewBox="0 0 65 72" fill="none" xmlns="http://www.w3.org/2000/svg">
<path d="M32.4998 71C49.3988 71 63.0982 57.2488 63.0982 40.2857C63.0982 23.3227 49.3988 9.57147 32.4998 9.57147C15.6007 9.57147 1.90137 23.3227 1.90137 40.2857C1.90137 57.2488 15.6007 71 32.4998 71Z" fill="#F1F3F9" stroke="#D6DCE8" stroke-width="2" stroke-miterlimit="10"/>
<path d="M12.6926 63.0862C12.2806 63.0862 11.9144 62.7634 11.8686 62.3485C11.8228 61.8874 12.1433 61.4724 12.6011 61.4263C13.0589 61.3802 13.5167 61.3341 13.9745 61.288C14.4323 61.2418 14.8443 61.5646 14.8901 62.0257C14.9358 62.4868 14.6154 62.9018 14.1576 62.9479C13.6998 62.994 13.1962 63.0401 12.7384 63.0862C12.7384 63.0862 12.7384 63.0862 12.6926 63.0862Z" fill="#AAB2C5"/>
<path d="M19.1473 62.2563C18.7353 62.2563 18.3691 61.9796 18.3233 61.5646C18.2317 61.1035 18.5522 60.6886 19.01 60.5963C19.9256 60.458 20.7954 60.2736 21.711 60.0891C22.1688 59.9969 22.5808 60.2736 22.6723 60.7347C22.7639 61.1958 22.4892 61.6107 22.0314 61.7029C21.1158 61.8874 20.2002 62.0718 19.2389 62.2102C19.1931 62.2563 19.1931 62.2563 19.1473 62.2563ZM39.977 60.8269H39.9312C38.9698 60.7347 38.0085 60.5963 37.0471 60.4119C36.5893 60.3197 36.3146 59.8586 36.4062 59.3975C36.4977 58.9364 36.9555 58.6598 37.4133 58.752C38.2831 58.9364 39.153 59.0747 40.0228 59.167C40.4806 59.2131 40.8468 59.5819 40.801 60.043C40.801 60.5041 40.4348 60.8269 39.977 60.8269ZM26.7925 60.5041C26.4262 60.5041 26.1058 60.2736 26.0142 59.9047C25.8769 59.4436 26.1058 58.9825 26.5636 58.8442C27.4334 58.5675 28.3032 58.2448 29.1272 57.8759C29.5393 57.6915 30.0428 57.8759 30.2259 58.337C30.4091 58.752 30.2259 59.2592 29.7682 59.4436C28.9441 59.8125 28.0285 60.1353 27.0672 60.458C26.9298 60.5041 26.8383 60.5041 26.7925 60.5041ZM45.0127 60.5041C44.6465 60.5041 44.2803 60.2275 44.1887 59.8586C44.0971 59.3975 44.3718 58.9364 44.8296 58.8442C45.6994 58.6598 46.5235 58.3831 47.3475 58.0604C47.7595 57.8759 48.2631 58.1065 48.4462 58.5214C48.6293 58.9364 48.4004 59.4436 47.9884 59.6281C47.0728 59.9969 46.1572 60.2736 45.1959 60.5041C45.1501 60.5041 45.1043 60.5041 45.0127 60.5041ZM32.4691 58.7059C32.3318 58.7059 32.1945 58.6598 32.1029 58.6137C31.2331 58.1987 30.4091 57.6915 29.6308 57.1382C29.2646 56.8615 29.173 56.3543 29.4019 55.9855C29.6766 55.6166 30.1802 55.5244 30.5464 55.7549C31.2789 56.2621 32.0571 56.7232 32.8354 57.1382C33.2474 57.3687 33.4305 57.8298 33.2016 58.2448C33.1101 58.5675 32.7896 58.7059 32.4691 58.7059ZM52.0628 57.1382C51.8339 57.1382 51.5592 57.046 51.4219 56.8154C51.1472 56.4465 51.193 55.9393 51.5592 55.6166C52.2459 55.0633 52.9326 54.4639 53.5277 53.8183C53.8482 53.4956 54.3518 53.4495 54.718 53.7722C55.0384 54.095 55.0842 54.6022 54.7638 54.9711C54.1229 55.6627 53.3904 56.3543 52.6121 56.9537C52.429 57.0921 52.2459 57.1382 52.0628 57.1382ZM33.8425 57.0921C33.5679 57.0921 33.339 56.9537 33.1558 56.7232C32.8812 56.3543 32.9727 55.801 33.339 55.5705C34.0714 55.0172 34.7581 54.4639 35.3533 53.8644C35.6737 53.5417 36.2231 53.5417 36.5435 53.8644C36.864 54.1872 36.864 54.7405 36.5435 55.0633C35.8568 55.7088 35.1244 56.3543 34.3003 56.9537C34.163 57.046 33.9799 57.0921 33.8425 57.0921ZM26.2889 53.9567C26.06 53.9567 25.8311 53.8644 25.648 53.68C25.0071 52.9423 24.412 52.1584 23.8626 51.3746C23.5879 51.0057 23.7253 50.4524 24.0915 50.2218C24.4577 49.9913 25.0071 50.0835 25.236 50.4524C25.7396 51.1901 26.2889 51.8818 26.884 52.5734C27.2045 52.8962 27.1587 53.4495 26.8383 53.7722C26.7009 53.8644 26.472 53.9567 26.2889 53.9567ZM38.9241 51.1901C38.7867 51.1901 38.6952 51.144 38.5578 51.0979C38.1458 50.9135 37.9627 50.4063 38.1916 49.9913C38.5578 49.2074 38.8783 48.3775 39.153 47.5014C39.2903 47.0403 39.7481 46.8098 40.2059 46.9481C40.6637 47.0864 40.8926 47.5475 40.7552 48.0086C40.4806 48.9769 40.1143 49.8991 39.7023 50.7751C39.5192 51.0518 39.2445 51.1901 38.9241 51.1901ZM57.0527 51.0979C56.9154 51.0979 56.7781 51.0518 56.6865 51.0057C56.2745 50.7751 56.1372 50.2679 56.3203 49.853C56.7323 49.0691 57.0985 48.2392 57.3732 47.4092C57.5105 46.9942 58.0141 46.7637 58.4261 46.902C58.8381 47.0403 59.067 47.5475 58.9297 47.9625C58.6092 48.8847 58.1972 49.8069 57.7852 50.6368C57.6479 50.9596 57.3732 51.0979 57.0527 51.0979ZM22.4434 47.1325C22.0772 47.1325 21.7567 46.902 21.6652 46.5331C21.3905 45.5648 21.2074 44.5966 21.1158 43.6283C21.07 43.1672 21.3905 42.7522 21.8483 42.7061C22.3061 42.66 22.7181 42.9827 22.7639 43.4438C22.8554 44.3199 23.0386 45.196 23.2675 46.0259C23.4048 46.487 23.1301 46.9481 22.7181 47.0864C22.5808 47.1325 22.535 47.1325 22.4434 47.1325ZM59.2959 43.5822C59.2502 43.5822 59.2502 43.5822 59.2044 43.5822C58.7466 43.5361 58.4261 43.1211 58.4719 42.66C58.5635 41.7839 58.6092 40.8617 58.6092 39.9857C58.6092 39.5246 58.9755 39.1557 59.4333 39.1557C59.8911 39.1557 60.2573 39.5246 60.2573 39.9857C60.2573 40.954 60.2115 41.9222 60.12 42.8905C60.0742 43.2594 59.708 43.5822 59.2959 43.5822ZM40.6637 43.4899C40.2059 43.4899 39.8396 43.1672 39.8396 42.7061V42.5678C39.8396 41.6917 39.7481 40.8617 39.6107 40.0779C39.5192 39.6168 39.7939 39.2018 40.2517 39.1096C40.7095 39.0174 41.1215 39.294 41.213 39.7551C41.3962 40.6312 41.4877 41.5995 41.4877 42.6139C41.4877 43.075 41.1215 43.4899 40.6637 43.4899ZM22.5808 39.3863C22.4892 39.3863 22.3519 39.3401 22.2603 39.294C21.8483 39.1096 21.6652 38.6024 21.8483 38.1874C22.2603 37.2652 22.8097 36.3892 23.4964 35.6514C23.8168 35.3287 24.3204 35.2826 24.6866 35.6053C25.0071 35.9281 25.0529 36.4353 24.7324 36.8042C24.1373 37.4497 23.6795 38.1413 23.359 38.9252C23.2217 39.2018 22.9012 39.3863 22.5808 39.3863ZM38.1916 36.2509C37.9627 36.2509 37.7338 36.1586 37.5965 35.9742C37.0471 35.3748 36.3604 34.8676 35.5822 34.4987C35.1701 34.3143 34.987 33.8071 35.2159 33.3921C35.399 32.9771 35.9026 32.7927 36.3146 33.0232C37.2302 33.4843 38.0542 34.0837 38.7867 34.8676C39.1072 35.1903 39.1072 35.7437 38.7409 36.0664C38.6036 36.2047 38.3747 36.2509 38.1916 36.2509ZM58.9755 35.6975C58.5635 35.6975 58.243 35.4209 58.1515 35.0059C57.9683 34.1298 57.7852 33.2077 57.5105 32.3777C57.3732 31.9166 57.6479 31.4555 58.0599 31.3172C58.5177 31.1789 58.9755 31.4555 59.1128 31.8705C59.3875 32.7927 59.6164 33.7149 59.7995 34.6831C59.8911 35.1442 59.5706 35.5592 59.1128 35.6514C59.067 35.6975 59.0213 35.6975 58.9755 35.6975ZM28.3032 34.3143C27.937 34.3143 27.6165 34.0837 27.525 33.761C27.3876 33.346 27.6165 32.8388 28.0285 32.7005C28.9899 32.3777 29.9513 32.1472 30.9584 32.0549C31.4162 32.0088 31.8282 32.3777 31.874 32.8388C31.9198 33.2999 31.5536 33.7149 31.0958 33.761C30.226 33.8532 29.4019 33.9915 28.5779 34.3143C28.4863 34.2682 28.3948 34.3143 28.3032 34.3143ZM56.5034 28.2279C56.1829 28.2279 55.9083 28.0435 55.7709 27.7668C55.3589 26.9369 54.9011 26.153 54.3975 25.4153C54.1686 25.0003 54.2602 24.4931 54.6722 24.2625C55.0842 24.032 55.5878 24.1242 55.8167 24.5392C56.3203 25.323 56.7781 26.1991 57.2359 27.0752C57.419 27.4902 57.2816 27.9974 56.8696 28.1818C56.7323 28.2279 56.5949 28.2279 56.5034 28.2279Z" fill="#AAB2C5"/>
<path d="M51.9249 21.6805C51.696 21.6805 51.5129 21.5882 51.3298 21.4499C51.0093 21.1272 50.6889 20.8044 50.3684 20.5277C50.0022 20.205 50.0022 19.6978 50.2768 19.3289C50.5973 18.96 51.1009 18.96 51.4671 19.2367C51.8334 19.5595 52.1996 19.8822 52.52 20.2511C52.8405 20.5738 52.8405 21.1272 52.52 21.4499C52.3369 21.5882 52.108 21.6805 51.9249 21.6805Z" fill="#AAB2C5"/>
<path d="M42.4948 17.0696C39.748 19.1445 38.7867 20.666 33.1558 14.9024C32.0571 13.7958 32.3318 12.0898 35.9941 11.6287C39.1987 11.2137 41.5792 11.6287 44.0055 12.5509C44.0055 12.5509 44.0055 12.5509 44.0513 12.5048C42.8153 9.27715 42.5864 5.95731 43.5477 2.59137C43.914 1.39254 45.15 0.470358 46.0656 1.34643C52.0627 7.01782 50.6436 8.40108 48.4004 11.0754C48.675 10.891 48.9039 10.7526 49.1328 10.6143C50.5062 9.78435 53.3445 9.5077 53.7108 13.4731C53.7566 14.1186 53.7566 14.8102 53.4819 15.4557C52.9325 16.7007 51.5591 16.7468 50.3689 16.7007C49.1786 16.6546 48.263 16.3318 47.2559 15.8707C47.3474 16.0552 47.3474 16.1474 47.3932 16.2396C48.0341 17.7612 48.5835 20.6199 47.3474 21.7727C46.6607 22.3721 45.6994 22.3721 44.8296 22.326C44.0971 22.2799 43.3646 22.1415 42.7237 21.7727C41.7623 21.2193 41.3961 20.2511 41.5334 19.1906C41.7166 18.2223 42.1743 17.6229 42.4948 17.0696Z" fill="#D6DCE8" stroke="#AAB2C5" stroke-width="2" stroke-miterlimit="10"/>
</svg>
