<svg width="73" height="72" viewBox="0 0 73 72" fill="none" xmlns="http://www.w3.org/2000/svg">
<path d="M36.5002 71C55.8163 71 71.4751 55.33 71.4751 36C71.4751 16.67 55.8163 1 36.5002 1C17.1842 1 1.52539 16.67 1.52539 36C1.52539 55.33 17.1842 71 36.5002 71Z" fill="#F1F3F9" stroke="#D6DCE8" stroke-width="2" stroke-miterlimit="10"/>
<path d="M48.1432 35.6027C48.1432 38.7805 46.8642 41.6494 44.8795 43.7679C44.7472 43.9886 44.5267 44.121 44.3061 44.2534C42.1891 46.2396 39.3223 47.4312 36.235 47.4312C33.7652 47.4312 31.4276 46.6368 29.4871 45.3127C28.9137 44.9596 28.4285 44.4741 27.9434 44.0328C25.7382 41.9142 24.415 38.913 24.415 35.5586C24.415 29.0265 29.7517 23.686 36.2791 23.686C42.8507 23.7301 48.1432 29.0706 48.1432 35.6027Z" fill="white"/>
<path d="M48.1434 35.6027C48.1434 39.0895 46.6438 42.1349 44.3063 44.3417C42.1893 46.3278 39.3225 47.5195 36.2352 47.5195C33.7653 47.5195 31.4278 46.725 29.4872 45.401C26.3558 43.2824 24.3711 39.7074 24.3711 35.6469C24.3711 29.1147 29.7077 23.7742 36.2352 23.7742C42.7627 23.7742 48.1434 29.0706 48.1434 35.6027Z" fill="#F1F3F9" stroke="#D6DCE8" stroke-width="2" stroke-miterlimit="10"/>
<path d="M44.8795 43.768C44.7472 43.9886 44.5266 44.121 44.3061 44.2535C42.1891 46.2396 39.3223 47.4313 36.235 47.4313C33.7651 47.4313 31.4276 46.6368 29.487 45.3127C28.9137 44.9596 28.4285 44.4741 27.9434 44.0328C28.208 43.6797 28.649 43.459 29.5752 43.1059L29.9281 42.9735C30.6337 42.7087 31.6481 42.3556 32.9272 41.7818C33.1477 41.6936 33.28 41.5611 33.4123 41.4287C33.5005 41.3405 33.5446 41.2963 33.5446 41.1639C33.6328 41.0315 33.6769 40.8108 33.6769 40.6784V38.2509C33.5887 38.1627 33.5887 38.1627 33.5446 38.1185C33.3241 37.8537 33.1918 37.5006 33.1918 37.0593L33.0595 36.971C32.442 37.1034 32.4861 36.4855 32.3538 35.2055C32.2656 34.72 32.3538 34.5876 32.6184 34.4994L32.839 34.2345C32.3979 33.2194 32.2215 32.3367 32.2215 31.5864C32.2215 30.3947 32.7066 29.6002 33.4123 29.2471C32.9713 28.4086 32.9713 28.0996 32.9713 28.0996C32.9713 28.0996 35.4411 28.541 36.3232 28.3644C37.3817 28.1437 39.1018 28.4527 39.7192 29.8651C40.7778 30.3064 41.1306 30.9243 41.2629 31.6305C41.3952 32.778 40.7778 33.9697 40.6454 34.4552V34.5435C40.7778 34.6318 40.866 34.7642 40.7778 35.2497C40.6454 36.4413 40.6454 37.1475 40.0721 37.0151L39.4987 38.0303C39.4987 38.1627 39.4987 38.1627 39.4105 38.2509C39.4105 38.4716 39.4105 38.8247 39.4105 40.7226C39.4105 40.9432 39.4987 41.2081 39.631 41.3405C39.7192 41.4287 39.7192 41.4729 39.7634 41.4729C39.8957 41.6053 40.028 41.7377 40.2044 41.7377C41.6157 42.3115 42.6301 42.7528 43.3799 43.0176C44.1297 43.3266 44.6148 43.5473 44.8795 43.768Z" fill="white"/>
<path d="M44.8795 43.7679C44.7472 43.9886 44.5266 44.121 44.3061 44.2534C42.1891 46.2396 39.3223 47.4312 36.235 47.4312C33.7651 47.4312 31.4276 46.6368 29.487 45.3127C28.9137 44.9596 28.4285 44.4741 27.9434 44.0327C28.208 43.6797 28.649 43.459 29.5752 43.1059L29.9281 42.9735C30.6337 42.7087 31.6481 42.3556 32.9272 41.7818C33.1477 41.6935 33.28 41.5611 33.4123 41.4287C34.118 42.4438 35.2647 43.0618 36.5878 43.0618C37.8669 43.0618 39.0136 42.4438 39.7192 41.517C39.8516 41.6494 39.9839 41.7818 40.1603 41.7818C41.5716 42.3556 42.586 42.7969 43.3358 43.0618C44.1297 43.3266 44.6148 43.5472 44.8795 43.7679Z" fill="#D6DCE8"/>
<path d="M40.5576 34.367C40.6458 34.1021 40.4694 33.6608 40.3371 33.4401C40.3371 33.3518 40.2489 33.3518 40.2489 33.3077C39.7637 32.2926 38.7052 31.9395 37.6908 31.8953C35.0446 31.7629 34.8681 32.2484 34.0743 31.5422C34.3389 31.8953 34.3389 32.5574 33.942 33.2636C33.6773 33.749 33.1481 34.058 32.6629 34.1904C31.4721 31.4981 32.0896 29.7768 33.2363 29.203C32.7952 28.3644 32.7952 28.0555 32.7952 28.0555C32.7952 28.0555 35.2651 28.4968 36.1472 28.3203C37.2057 28.0996 38.9258 28.4086 39.5432 29.8209C40.6017 30.2623 40.9546 30.8802 41.0869 31.5864C41.3515 32.6898 40.6899 33.8815 40.5576 34.367Z" fill="#AAB2C5"/>
<path d="M33.7651 40.6343V38.2068C33.6769 38.1185 33.6769 38.1185 33.6328 38.0744V37.942C33.7651 38.1626 33.8974 38.3833 34.118 38.5157L36.0145 39.8839C36.4555 40.237 37.073 40.237 37.514 39.8839L39.2782 38.3392C39.3664 38.2509 39.4105 38.2509 39.4987 38.2068C39.4987 38.4275 39.4987 38.7805 39.4987 40.6784C39.4987 40.8108 39.4987 40.8991 39.5869 41.0315H33.7651C33.6769 40.8549 33.7651 40.7667 33.7651 40.6343Z" fill="url(#paint0_linear_3434_55364)"/>
<g opacity="0.6">
<mask id="mask0_3434_55364" style="mask-type:alpha" maskUnits="userSpaceOnUse" x="0" y="0" width="73" height="72">
<path d="M36.5002 71C55.8163 71 71.4751 55.33 71.4751 36C71.4751 16.67 55.8163 1 36.5002 1C17.1842 1 1.52539 16.67 1.52539 36C1.52539 55.33 17.1842 71 36.5002 71Z" fill="#F1F3F9" stroke="#D6DCE8" stroke-width="2" stroke-miterlimit="10"/>
</mask>
<g mask="url(#mask0_3434_55364)">
<path d="M22.2981 17.6835C22.2981 20.3316 21.1955 22.6709 19.3873 24.348C18.9021 24.7894 18.3729 25.1866 17.7554 25.5397C16.4323 26.3342 14.8445 26.7755 13.1685 26.7755C11.4926 26.7755 9.9048 26.3342 8.58166 25.5397C8.36114 25.4073 8.18472 25.319 7.9642 25.1425C5.62666 23.5094 4.08301 20.773 4.08301 17.6835C4.08301 12.6519 8.18472 8.59142 13.1685 8.59142C18.2405 8.54728 22.2981 12.6519 22.2981 17.6835Z" fill="#F1F3F9" stroke="#D6DCE8" stroke-width="2" stroke-miterlimit="10"/>
<path d="M11.3607 19.7137C11.4931 19.8461 11.5813 19.9785 11.7577 20.1109C11.89 20.2433 11.9782 20.2875 12.1105 20.3757C12.1546 20.4199 12.2869 20.5081 12.331 20.5523C12.331 20.5523 12.3752 20.5523 12.3752 20.5964L12.4193 20.6405V21.435C12.4193 21.435 12.4193 21.435 12.3752 21.3909C12.331 21.3467 12.1987 21.2585 12.1546 21.2143C12.0223 21.1702 11.9341 21.0378 11.8018 20.9936C11.7577 20.9936 11.7577 20.9495 11.6695 20.9495C11.2725 20.7288 10.9638 20.5081 10.9638 20.1992C11.0079 20.1109 11.1402 19.9344 11.3607 19.7137ZM19.1231 24.039C18.7703 23.2887 18.3293 22.6267 17.5354 22.2294C17.1384 22.0529 16.6974 21.8764 16.2563 21.8764C16.124 21.8764 15.9917 21.8764 15.8594 21.8764C15.8153 21.8764 15.7271 21.8764 15.683 21.8764C15.0655 21.8322 15.0214 21.6998 15.0214 21.6998V20.4199C15.4184 20.0668 15.8153 19.6695 16.124 19.3165C16.3887 18.9192 16.6092 18.4779 16.7415 17.9041C17.2266 17.7717 17.5795 17.3303 17.5354 16.8007C17.5354 16.58 17.359 16.3593 17.359 16.1387C17.359 16.0062 17.359 15.918 17.359 15.7856C17.359 15.7414 17.359 15.609 17.359 15.5649C17.359 15.5207 17.359 15.3883 17.359 15.3442C17.3149 14.947 17.1825 14.5498 16.962 14.1084C16.3004 12.8726 15.0655 12.0781 13.6101 12.0781C13.3454 12.0781 13.0367 12.1223 12.7721 12.2105C12.2869 12.3429 11.7577 12.5636 11.3607 12.8726C11.3166 12.9167 11.1843 13.005 11.1402 13.0933L11.0961 13.1374C10.6551 13.5788 10.2581 14.1084 10.0817 14.7263C9.8612 15.3442 9.8612 15.9621 9.9053 16.58C9.9053 16.58 9.9053 16.58 9.9053 16.6242V16.6683C9.9053 16.8007 9.94941 16.8007 9.9053 16.8448C9.9053 16.889 9.8612 16.889 9.8612 16.9772C9.72888 17.1538 9.68478 17.3745 9.81709 17.7276C10.0376 18.3013 10.3905 18.2131 10.7874 18.522C10.7874 18.522 10.7433 18.522 10.7433 18.5661L10.3463 18.6544C8.53806 19.2282 7.9206 20.7288 8.71448 21.6998C8.97911 22.0529 9.42015 22.3177 10.1258 22.4943C9.94941 22.4943 9.77299 22.6267 9.68478 22.7149C8.8909 23.3329 8.40575 24.3039 8.27344 25.1866C8.27344 25.2307 8.27344 25.319 8.27344 25.3631C8.49396 25.4955 8.67038 25.6279 8.8909 25.7603L17.6677 25.5397C18.241 25.1866 18.4616 24.9218 18.9908 24.4804C18.9026 24.1714 19.2113 24.0832 19.1231 24.039Z" fill="white"/>
<path d="M19.3869 24.348C18.9018 24.7893 18.3725 25.1866 17.7551 25.5397C16.4319 26.3341 14.8442 26.7755 13.1682 26.7755C11.4922 26.7755 9.90446 26.3341 8.58133 25.5397C8.36081 25.4072 8.18439 25.319 7.96387 25.1424C7.96387 25.0983 7.96387 25.01 7.96387 24.9659C8.09618 24.0832 8.58133 23.1122 9.37521 22.4943C9.50752 22.3618 9.63984 22.3177 9.81625 22.2736C9.15469 22.1412 8.71364 21.8764 8.40491 21.4791H10.5219C11.1394 22.3177 12.1097 22.8032 13.2123 22.8032C14.1826 22.8032 15.0206 22.406 15.638 21.7881C15.6821 21.7881 15.7704 21.7881 15.8145 21.7881C15.9468 21.7881 16.035 21.7881 16.2114 21.7881C16.6524 21.7881 17.0935 21.9205 17.4904 22.1412C18.2843 22.5384 18.8136 23.2004 19.2105 23.9949C19.3428 24.1273 19.3428 24.2597 19.3869 24.348Z" fill="#D6DCE8"/>
<path d="M17.4028 15.5649C16.7412 15.7856 15.9474 15.918 15.2417 15.8297C14.0509 15.6973 12.9482 15.256 12.0662 14.5056C11.8015 15.3442 11.0518 15.9621 10.2138 16.3594C10.0815 16.4035 9.99325 16.4918 9.86094 16.4918C9.86094 16.4918 9.86094 16.4918 9.86094 16.4476C9.81683 15.8297 9.81683 15.2118 10.0374 14.5939C10.2138 13.976 10.6107 13.4905 11.0518 13.005L11.0959 12.9609C11.14 12.9167 11.2723 12.8285 11.3164 12.7402C11.7133 12.3871 12.1985 12.1664 12.7277 12.0781C12.9924 12.034 13.3011 11.9457 13.5657 11.9457C15.0212 11.9457 16.3002 12.7402 16.9177 13.976C17.1382 14.4174 17.2705 14.8587 17.3146 15.2118C17.4028 15.3884 17.4028 15.4766 17.4028 15.5649Z" fill="#AAB2C5"/>
<path d="M12.9041 23.8625C12.5513 24.2598 12.022 24.2598 11.4928 24.2598C11.9779 23.7743 11.7133 22.1412 9.90499 22.3178C7.43514 21.8764 7.65567 19.2724 10.1255 18.5221L10.5225 18.3896L10.5666 18.4338C10.743 18.9193 11.0076 19.4048 11.2722 19.7137C10.2578 20.5523 11.6692 20.773 12.3307 21.435C12.9482 21.7881 13.4775 23.1564 12.9041 23.8625Z" fill="#AAB2C5"/>
<path d="M68.9603 19.5372C68.9603 22.2295 67.8577 24.657 66.1817 26.4666C66.0494 26.6431 65.873 26.7755 65.6965 26.9079C63.8883 28.5851 61.5066 29.6002 58.8603 29.6002C56.7433 29.6002 54.7586 28.9382 53.1709 27.7906C52.6857 27.4817 52.2888 27.0845 51.8477 26.6872C49.9953 24.8777 48.8486 22.3619 48.8486 19.5372C48.8486 14.0201 53.3473 9.47412 58.8603 9.47412C64.4616 9.47412 68.9603 14.0201 68.9603 19.5372Z" fill="#D6DCE8"/>
<path d="M68.9603 19.5372C68.9603 22.4943 67.6812 25.0542 65.6965 26.952C63.8883 28.6292 61.5066 29.6444 58.8603 29.6444C56.7433 29.6444 54.7586 28.9823 53.1709 27.8348C50.5246 26.0252 48.8486 23.0239 48.8486 19.5813C48.8486 14.0643 53.3473 9.51825 58.8603 9.51825C64.3734 9.56239 68.9603 14.0201 68.9603 19.5372Z" fill="#F1F3F9" stroke="#D6DCE8" stroke-width="2" stroke-miterlimit="10"/>
<path d="M66.1816 26.4666C66.0493 26.6431 65.8729 26.7755 65.6965 26.9079C63.8882 28.5851 61.5065 29.6002 58.8603 29.6002C56.7433 29.6002 54.7586 28.9382 53.1708 27.7907C52.6856 27.4817 52.2887 27.0845 51.8477 26.6873C52.0682 26.3783 52.4651 26.2018 53.2149 25.8928L53.5236 25.7604C54.1411 25.5397 54.9791 25.2308 56.0376 24.7453C56.214 24.7011 56.3463 24.5687 56.4786 24.4363C56.5227 24.3922 56.6109 24.3039 56.6109 24.2156C56.655 24.0832 56.7433 23.9067 56.7433 23.7743V21.744C56.6991 21.6999 56.6991 21.6999 56.6109 21.6116C56.4345 21.3909 56.3022 21.082 56.3022 20.7289L56.1699 20.6847C55.6406 20.8171 55.6847 20.2434 55.5524 19.1841C55.5083 18.7427 55.5524 18.6545 55.773 18.5662L55.9494 18.3455C55.5965 17.5069 55.4201 16.7125 55.4201 16.1387C55.4201 15.1236 55.8612 14.4615 56.4345 14.1526C56.0817 13.4464 56.0817 13.1816 56.0817 13.1816C56.0817 13.1816 58.1987 13.5347 58.9044 13.4023C59.7865 13.2257 61.2419 13.4464 61.7712 14.6822C62.6533 15.0353 62.962 15.5649 63.0943 16.1828C63.2266 17.1538 62.6532 18.169 62.565 18.5662V18.6545C62.6974 18.6986 62.7415 18.831 62.6974 19.2724C62.565 20.2875 62.565 20.9054 62.0799 20.773L61.5947 21.6116C61.5947 21.744 61.5947 21.744 61.5506 21.7881C61.5506 21.9647 61.5506 22.2736 61.5506 23.9067C61.5506 24.0832 61.5947 24.348 61.7271 24.4363C61.7712 24.4804 61.7712 24.5687 61.8594 24.5687C61.9917 24.7011 62.0799 24.7894 62.2122 24.7894C63.403 25.2749 64.241 25.628 64.9026 25.8928C65.52 26.1135 65.9611 26.29 66.1816 26.4666Z" fill="white"/>
<path d="M66.1816 26.4665C66.0493 26.6431 65.8729 26.7755 65.6965 26.9079C63.8882 28.5851 61.5065 29.6002 58.8603 29.6002C56.7433 29.6002 54.7586 28.9382 53.1708 27.7906C52.6856 27.4817 52.2887 27.0845 51.8477 26.6872C52.0682 26.3783 52.4651 26.2017 53.2149 25.8928L53.5236 25.7604C54.1411 25.5397 54.9791 25.2307 56.0376 24.7452C56.214 24.7011 56.3463 24.5687 56.4786 24.4363C57.0961 25.2749 58.0223 25.8045 59.169 25.8045C60.2716 25.8045 61.1978 25.2749 61.8153 24.4804C61.9476 24.6128 62.0358 24.7011 62.1681 24.7011C63.3589 25.1866 64.1969 25.5397 64.8585 25.8045C65.52 26.1135 65.9611 26.29 66.1816 26.4665Z" fill="#D6DCE8"/>
<path d="M62.5215 18.5221C62.5656 18.3014 62.4774 17.9042 62.345 17.7276C62.345 17.6835 62.3009 17.6835 62.3009 17.5952C61.8599 16.7566 60.9778 16.4477 60.1398 16.4035C57.9346 16.2711 57.7582 16.7125 57.0966 16.0946C57.3171 16.4035 57.3171 16.9332 56.9643 17.5511C56.7438 17.9924 56.3027 18.2131 55.8617 18.3455C54.8473 16.0504 55.3765 14.6381 56.3468 14.1526C55.994 13.4464 55.994 13.1816 55.994 13.1816C55.994 13.1816 58.111 13.5347 58.8167 13.4023C59.6988 13.2257 61.1542 13.4464 61.6835 14.6822C62.5656 15.0353 62.8743 15.5649 63.0066 16.1828C63.183 17.0656 62.6538 18.0807 62.5215 18.5221Z" fill="#AAB2C5"/>
<path d="M30.3694 58.4212C30.3694 60.9369 29.355 63.1879 27.8113 64.8651C27.679 65.0416 27.5467 65.1299 27.3703 65.2623C25.6943 66.8512 23.445 67.7781 20.9751 67.7781C19.0345 67.7781 17.1822 67.1601 15.6385 66.1009C15.1975 65.8361 14.8005 65.4388 14.4036 65.0857C12.6835 63.4086 11.625 61.0694 11.625 58.4212C11.625 53.2572 15.8149 49.0643 20.9751 49.0643C26.1795 49.0202 30.3694 53.2572 30.3694 58.4212Z" fill="#D6DCE8"/>
<path d="M30.3696 58.4212C30.3696 61.1576 29.1787 63.5851 27.3263 65.3064C25.6504 66.8953 23.401 67.8222 20.9312 67.8222C18.9906 67.8222 17.1382 67.2043 15.5946 66.145C13.1247 64.4679 11.5811 61.6431 11.5811 58.4653C11.5811 53.3014 15.771 49.1085 20.9312 49.1085C26.1355 49.1085 30.3696 53.2573 30.3696 58.4212Z" fill="#F1F3F9" stroke="#D6DCE8" stroke-width="2" stroke-miterlimit="10"/>
<path d="M27.8121 64.865C27.6797 65.0416 27.5474 65.1299 27.371 65.2623C25.695 66.8512 23.4457 67.778 20.9759 67.778C19.0353 67.778 17.1829 67.1601 15.6392 66.1009C15.1982 65.836 14.8012 65.4388 14.4043 65.0857C14.6248 64.8209 14.9777 64.6444 15.6833 64.3354L15.948 64.203C16.5213 63.9823 17.2711 63.7175 18.2855 63.232C18.4619 63.1879 18.5501 63.0555 18.6824 62.9672C18.7265 62.923 18.8147 62.8348 18.8147 62.7465C18.8588 62.6141 18.9471 62.4817 18.9471 62.3493V60.4514C18.903 60.4073 18.903 60.4073 18.8147 60.319C18.6383 60.0983 18.5501 59.8335 18.5501 59.4804L18.4178 59.4363C17.9327 59.5687 17.9768 59.0391 17.8444 58.0239C17.8003 57.6267 17.8444 57.5384 18.065 57.4502L18.2414 57.2295C17.8885 56.435 17.7562 55.7289 17.7562 55.1551C17.7562 54.1841 18.1532 53.5662 18.7265 53.3014C18.3737 52.6393 18.3737 52.4186 18.3737 52.4186C18.3737 52.4186 20.3143 52.7717 21.02 52.6393C21.858 52.4628 23.1811 52.6835 23.7103 53.831C24.5483 54.1841 24.8129 54.6696 24.9453 55.2434C25.0776 56.1261 24.5483 57.0971 24.4601 57.4943V57.5384C24.5924 57.5826 24.6365 57.715 24.5924 58.1122C24.4601 59.0832 24.4601 59.6128 24.0191 59.5246L23.578 60.319C23.578 60.4514 23.578 60.4514 23.5339 60.4956C23.5339 60.6721 23.5339 60.9369 23.5339 62.4376C23.5339 62.6141 23.578 62.8348 23.7103 62.9231C23.7544 62.9672 23.7544 63.0555 23.8426 63.0555C23.975 63.1879 24.0632 63.2761 24.1955 63.2761C25.2981 63.7175 26.092 64.0706 26.7094 64.2913C27.1946 64.512 27.5915 64.6885 27.8121 64.865Z" fill="white"/>
<path d="M27.8121 64.865C27.6797 65.0416 27.5474 65.1298 27.371 65.2623C25.695 66.8512 23.4457 67.778 20.9759 67.778C19.0353 67.778 17.1829 67.1601 15.6392 66.1008C15.1982 65.836 14.8012 65.4388 14.4043 65.0857C14.6248 64.8209 14.9777 64.6443 15.6833 64.3354L15.948 64.203C16.5213 63.9823 17.2711 63.7175 18.2855 63.232C18.4619 63.1878 18.5501 63.0554 18.6824 62.9672C19.2558 63.7616 20.1379 64.2471 21.1964 64.2471C22.2108 64.2471 23.0929 63.7616 23.6662 63.0113C23.7985 63.1437 23.8868 63.232 24.0191 63.232C25.1217 63.6733 25.9156 64.0264 26.533 64.2471C27.1946 64.5119 27.5915 64.6885 27.8121 64.865Z" fill="#D6DCE8"/>
<path d="M24.3712 57.4502C24.4153 57.2295 24.3271 56.8764 24.1947 56.6999C24.1947 56.6558 24.1506 56.6558 24.1506 56.5675C23.7537 55.773 22.9157 55.5082 22.1218 55.4641C20.0489 55.3317 19.8725 55.7289 19.2551 55.1993C19.4756 55.4641 19.4756 55.9937 19.1227 56.5234C18.9022 56.9206 18.5053 57.1413 18.1083 57.2737C17.138 55.1551 17.6673 53.7869 18.5494 53.3456C18.1965 52.6835 18.1965 52.4628 18.1965 52.4628C18.1965 52.4628 20.1371 52.8159 20.8428 52.6835C21.6808 52.507 23.0039 52.7276 23.5332 53.8752C24.3712 54.2283 24.6358 54.7138 24.7681 55.2875C24.9886 56.082 24.5035 57.053 24.3712 57.4502Z" fill="#AAB2C5"/>
</g>
</g>
<path d="M36.5002 71C55.8163 71 71.4751 55.33 71.4751 36C71.4751 16.67 55.8163 1 36.5002 1C17.1842 1 1.52539 16.67 1.52539 36C1.52539 55.33 17.1842 71 36.5002 71Z" stroke="#D6DCE8" stroke-width="2" stroke-miterlimit="10"/>
<path d="M65.3583 59.9909L56.6253 51.1666C55.7296 50.2616 54.4421 49.9222 53.2665 50.1484L51.1392 47.9989C57.1851 40.4191 56.6813 29.2757 49.7397 22.2616C43.9177 16.3788 35.2408 15.0777 28.1872 18.4151C26.2279 19.3202 24.3805 20.6212 22.7011 22.2616C20.6298 24.2979 19.1743 26.7303 18.2786 29.3323C17.8308 30.5767 17.4949 31.8212 17.327 33.1222C16.4873 38.9484 18.2786 45.1141 22.7011 49.5828C22.8131 49.6959 22.869 49.7525 22.981 49.8656C26.6757 53.4858 31.4341 55.2393 36.2484 55.2393C40.5029 55.2393 44.7574 53.8252 48.2282 50.9969L50.3555 53.1464C50.1316 54.3343 50.4675 55.6353 51.3632 56.5404L60.0401 65.3646C61.4956 66.8353 63.8468 66.8353 65.3023 65.3646C66.8138 63.8939 66.8138 61.4616 65.3583 59.9909ZM46.9967 46.8111C46.3249 47.4899 45.5972 48.0555 44.8694 48.6212C44.1417 49.1303 43.4139 49.5262 42.6862 49.8656C38.6556 51.7888 33.8972 51.7888 29.8666 49.8656C28.2992 49.1303 26.8437 48.1121 25.5561 46.8111C21.8614 43.0777 20.4619 37.9303 21.3576 33.1222C21.5815 31.8212 21.9734 30.5202 22.5891 29.3323C23.3169 27.805 24.3245 26.3343 25.5561 25.0899C26.3958 24.2414 27.2915 23.506 28.2432 22.9404C30.7063 21.3565 33.5054 20.6212 36.3044 20.6212C40.223 20.6212 44.0857 22.0919 47.0527 25.0899C52.9306 31.0858 52.9306 40.8151 46.9967 46.8111Z" fill="#D6DCE8" stroke="#AAB2C5" stroke-width="2" stroke-miterlimit="10"/>
<defs>
<linearGradient id="paint0_linear_3434_55364" x1="36.5984" y1="40.9353" x2="36.5984" y2="39.317" gradientUnits="userSpaceOnUse">
<stop stop-color="white"/>
<stop offset="0.9913" stop-color="#D6DEEA"/>
</linearGradient>
</defs>
</svg>
