<svg width="62" height="62" viewBox="0 0 62 62" fill="none" xmlns="http://www.w3.org/2000/svg">
<path d="M60.8778 31.3C60.8778 34.6 60.3282 37.8 59.3289 40.8C55.3817 52.55 44.2398 61 31.1991 61C18.1086 61 6.96659 52.5 3.01943 40.75C2.46982 39.1 2.07011 37.4 1.82029 35.65C1.62044 34.2 1.52051 32.75 1.52051 31.3C1.52051 29.15 1.77033 27.05 2.17004 25.05C5.01799 11.65 16.9594 1.59998 31.1991 1.59998C40.6923 1.59998 49.1362 6.04997 54.5324 12.95C54.9321 13.45 55.2818 13.9 55.6316 14.4C56.7807 16 57.7301 17.75 58.5295 19.6C60.0284 23.2 60.8778 27.15 60.8778 31.3Z" fill="#F1F3F9" stroke="#D6DCE8" stroke-width="1.04484" stroke-miterlimit="10"/>
<path d="M59.329 40.8C55.3818 52.55 44.2399 61 31.1993 61C27.2021 61 23.3549 60.2 19.8574 58.75C18.9581 58.4 18.1087 57.95 17.2593 57.5C10.6141 54.05 5.46777 48.05 3.01953 40.8L15.1608 28.7L19.6076 24.25C20.8067 23.05 22.8053 23.05 24.0044 24.25L26.2028 26.45L37.3948 37.65L44.5896 30.45C45.7887 29.25 47.7873 29.25 48.9865 30.45L55.232 36.7L59.329 40.8Z" fill="#F1F3F9" stroke="#D6DCE8" stroke-width="1.04484"/>
<path opacity="0.1" d="M59.329 40.8C55.3818 52.55 44.2399 61 31.1993 61C27.2021 61 23.3549 60.2 19.8574 58.75C18.9581 58.4 18.1087 57.95 17.2593 57.5C10.6141 54.05 5.46777 48.05 3.01953 40.8L15.1608 28.7L19.6076 24.25C20.8067 23.05 22.8053 23.05 24.0044 24.25L26.2028 26.45L37.3948 37.65L44.5896 30.45C45.7887 29.25 47.7873 29.25 48.9865 30.45L55.232 36.7L59.329 40.8Z" fill="#AAB2C5" stroke="#D6DCE8" stroke-width="1.04484"/>
<path d="M59.3295 40.8C55.3823 52.55 44.2403 61 31.1997 61C27.2026 61 23.3554 60.2 19.8579 58.75C18.9585 58.4 18.1092 57.95 17.2598 57.5L37.3453 37.55L44.5901 30.45C45.7892 29.25 47.7878 29.25 48.9869 30.45L59.3295 40.8Z" fill="#F1F3F9" stroke="#D6DCE8" stroke-width="1.04484"/>
<path d="M58.4795 19.6H39.4932C39.5931 16.9 41.7915 14.75 44.4896 14.75C44.6395 14.75 44.7394 14.75 44.8893 14.75C45.5888 12.5 47.6873 10.8 50.1855 10.8C52.5338 10.8 54.5823 12.3 55.3817 14.35C55.4817 14.35 55.5816 14.35 55.6315 14.35C56.7308 16.05 57.73 17.8 58.4795 19.6Z" fill="white" stroke="#D6DCE8" stroke-width="1.04484" stroke-miterlimit="10"/>
<path d="M18.5083 35.7H1.82029C1.62044 34.25 1.52051 32.8 1.52051 31.35C1.52051 29.2 1.77033 27.1 2.17004 25.1C2.46982 25 2.76961 25 3.06939 25C5.96731 25 8.41554 26.8 9.36486 29.35C11.6132 29.45 13.5119 31 14.1114 33.1C14.4112 33.05 14.661 33 15.0108 33C16.6596 32.95 18.1086 34.1 18.5083 35.7Z" fill="white" stroke="#D6DCE8" stroke-width="1.04484" stroke-miterlimit="10"/>
<path d="M24.0048 24.25L26.2032 26.45L23.0055 29.65L20.5572 27.2L17.2097 30.55C17.2097 30.55 16.1604 29.6 15.1611 28.65L19.6079 24.2C20.8071 23 22.7557 23 24.0048 24.25Z" fill="white" stroke="#D6DCE8" stroke-width="1.04484"/>
<path d="M55.2327 36.7L51.8851 40.05L49.3869 37.55L45.7895 41.15L39.8438 35.2L44.5903 30.45C45.7895 29.25 47.788 29.25 48.9872 30.45L55.2327 36.7Z" fill="white" stroke="#D6DCE8" stroke-width="1.04484"/>
<path d="M60.8778 31.3C60.8778 34.6 60.3282 37.8 59.3289 40.8C55.3817 52.55 44.2398 61 31.1991 61C18.1086 61 6.96659 52.5 3.01943 40.75C2.46982 39.1 2.07011 37.4 1.82029 35.65C1.62044 34.2 1.52051 32.75 1.52051 31.3C1.52051 29.15 1.77033 27.05 2.17004 25.05C5.01799 11.65 16.9594 1.59998 31.1991 1.59998C40.6923 1.59998 49.1362 6.04997 54.5324 12.95C54.9321 13.45 55.2818 13.9 55.6316 14.4C56.7807 16 57.7301 17.75 58.5295 19.6C60.0284 23.2 60.8778 27.15 60.8778 31.3Z" stroke="#D6DCE8" stroke-width="1.04484" stroke-miterlimit="10"/>
<path d="M10.1146 19C15.0816 19 19.1082 14.9706 19.1082 10C19.1082 5.02944 15.0816 1 10.1146 1C5.14763 1 1.12109 5.02944 1.12109 10C1.12109 14.9706 5.14763 19 10.1146 19Z" fill="#D6DCE8" stroke="#AAB2C5" stroke-width="1.04484" stroke-miterlimit="10" stroke-linejoin="round"/>
</svg>
