<svg width="94" height="56" viewBox="0 0 94 56" fill="none" xmlns="http://www.w3.org/2000/svg">
<path d="M83.1984 23.6663C83.4354 19.1681 81.2415 14.6125 77.5753 11.9883C76.0133 14.153 75.5609 17.1111 76.7063 19.5235C77.8554 21.9324 80.5305 23.5155 83.1948 23.6663H83.1984Z" fill="#212B36"/>
<path d="M83.1983 23.6663C78.8822 19.5199 77.5752 11.9883 77.5752 11.9883C81.2414 14.6125 83.4317 19.1681 83.1983 23.6663Z" fill="#212B36"/>
<path d="M77.579 11.9919C77.579 11.9919 77.6364 12.1893 77.7405 12.5304C77.8339 12.875 77.9991 13.3596 78.1786 13.9448C78.3725 14.5264 78.5916 15.2013 78.8501 15.9193C78.9722 16.2782 79.1194 16.6444 79.263 17.0142C79.3995 17.3911 79.5647 17.7609 79.7226 18.1306C80.035 18.8773 80.3977 19.6025 80.7424 20.2738C80.9291 20.6005 81.1123 20.92 81.2846 21.218C81.4749 21.5088 81.6545 21.7816 81.8196 22.0365C82.0028 22.277 82.1715 22.4996 82.3224 22.6934C82.4624 22.9016 82.6276 23.0417 82.7461 23.1745C82.9866 23.4401 83.1231 23.5909 83.1231 23.5909C83.1231 23.5909 82.9579 23.4724 82.6742 23.2463C82.5378 23.1278 82.3511 23.0057 82.1787 22.8227C81.9992 22.6432 81.7981 22.4457 81.5827 22.216C81.3888 21.9719 81.1805 21.7098 80.9579 21.4298C80.7568 21.139 80.5521 20.8231 80.3367 20.4964C80.1499 20.1554 79.9417 19.8143 79.7585 19.4481C79.5898 19.082 79.3959 18.7122 79.2379 18.3317C78.9219 17.5706 78.6275 16.7988 78.412 16.0557C78.1822 15.3197 78.0134 14.6197 77.8842 14.0166C77.7585 13.4099 77.6831 12.9037 77.6328 12.5483C77.5861 12.1929 77.5718 11.9883 77.5718 11.9883L77.579 11.9919Z" fill="#212B36"/>
<g style="mix-blend-mode:multiply">
<path d="M76.7098 19.5182C75.9378 17.8956 75.8947 16.0252 76.4225 14.3164C77.2879 15.817 78.182 18.1935 78.5447 21.8265C77.7762 21.1911 77.1371 20.4085 76.7134 19.5182H76.7098Z" fill="#212B36"/>
</g>
<path d="M83.1985 23.6649C84.1069 19.2529 87.3817 15.4009 91.5901 13.7891C92.5524 16.2769 92.2436 19.2565 90.5236 21.2956C88.8037 23.3347 85.8126 24.1927 83.1985 23.6649Z" fill="#212B36"/>
<path d="M79.0513 33.3843C80.8395 31.3919 83.1663 29.8913 85.7193 29.0836C88.2723 28.2794 91.0408 28.1717 93.6477 28.7784C93.2024 31.934 90.9187 34.8239 87.8953 35.8219C84.8683 36.8163 81.2883 35.6531 79.0513 33.3843Z" fill="#212B36"/>
<path d="M71.1514 43.7763C73.173 42.0245 75.6721 40.8254 78.3042 40.3444C80.9362 39.8633 83.6975 40.1003 86.211 41.0265C85.3743 44.0994 82.7495 46.6842 79.622 47.2981C76.4944 47.9083 73.0868 46.3072 71.1514 43.7763Z" fill="#212B36"/>
<path d="M91.5937 13.7891C91.5937 13.7891 89.0551 20.5561 83.2021 23.6649C84.1106 19.2529 87.3854 15.4009 91.5937 13.7891Z" fill="#212B36"/>
<path d="M93.6477 28.7784C93.6477 28.7784 89.5973 33.4705 79.0513 33.3843C80.8395 31.3919 83.1663 29.8913 85.7193 29.0836C88.2723 28.2794 91.0408 28.1717 93.6477 28.7784Z" fill="#212B36"/>
<path d="M79.622 47.295C76.4944 47.9053 73.0868 46.3042 71.1514 43.7733C80.4299 45.737 86.211 41.0234 86.211 41.0234C85.3743 44.0964 82.7495 46.6812 79.622 47.295Z" fill="#212B36"/>
<path d="M91.5937 13.7891C91.5937 13.7891 91.5471 13.9901 91.4286 14.3347C91.3029 14.6758 91.1305 15.1676 90.8576 15.7276C90.5955 16.2948 90.2436 16.9338 89.8271 17.5944C89.6116 17.9175 89.3998 18.2621 89.1448 18.5852C88.9043 18.9155 88.6457 19.2421 88.3764 19.5617C88.1143 19.8847 87.8199 20.1827 87.5398 20.4807C87.2669 20.7858 86.9509 21.0407 86.6708 21.3135C86.3943 21.59 86.0783 21.8054 85.8054 22.0315C85.5325 22.2613 85.2525 22.4515 84.9903 22.6203C84.7318 22.7962 84.4984 22.9577 84.2758 23.0798C84.0567 23.2054 83.8628 23.3095 83.7049 23.3993C83.3889 23.5716 83.2021 23.6649 83.2021 23.6649C83.2021 23.6649 83.3637 23.5393 83.651 23.3131C83.7946 23.2054 83.967 23.0726 84.1681 22.9218C84.3655 22.771 84.5738 22.5736 84.8144 22.3833C85.0514 22.1895 85.3063 21.9777 85.5613 21.7336C85.8162 21.493 86.0999 21.2561 86.3656 20.9797C86.6313 20.7033 86.9186 20.4376 87.1843 20.136C87.4536 19.8417 87.7337 19.5473 87.985 19.2278C88.2507 18.9226 88.5129 18.6067 88.7499 18.2836C89.0012 17.9677 89.2274 17.6482 89.4536 17.3395C89.8917 16.7149 90.2831 16.1153 90.6027 15.5876C90.9223 15.0635 91.1736 14.6183 91.3388 14.2952C91.504 13.9721 91.5973 13.7927 91.5973 13.7927L91.5937 13.7891Z" fill="#212B36"/>
<path d="M93.6475 28.7812C93.6475 28.7812 93.5111 28.9859 93.2238 29.3161C92.9294 29.6392 92.4841 30.0808 91.888 30.5403C91.5828 30.7593 91.2633 31.0178 90.8862 31.2296C90.7031 31.3444 90.5128 31.4593 90.3189 31.5778C90.1214 31.6891 89.9131 31.7896 89.7049 31.8973C89.2883 32.1199 88.8359 32.303 88.3799 32.4932C87.9167 32.662 87.4391 32.8235 86.9615 32.9779C86.4732 33.0963 85.9884 33.2328 85.5037 33.3261C85.0189 33.4158 84.5378 33.4912 84.0746 33.5487C83.6078 33.5953 83.1553 33.6205 82.728 33.6492C82.3007 33.6707 81.895 33.6492 81.5215 33.6456C81.1481 33.6456 80.807 33.6276 80.5054 33.5882C80.2037 33.5594 79.9416 33.5199 79.7262 33.4948C79.2989 33.4374 79.0547 33.3907 79.0547 33.3907C79.0547 33.3907 79.3025 33.3476 79.7298 33.2866C79.9452 33.2579 80.2037 33.222 80.4982 33.1933C80.7926 33.1681 81.1266 33.1071 81.4892 33.0533C81.8519 32.9994 82.2397 32.9456 82.6526 32.8845C83.0584 32.8056 83.4893 32.7194 83.9345 32.6476C84.3798 32.565 84.8286 32.4358 85.2918 32.3496C85.755 32.2491 86.2111 32.1055 86.6743 31.987C87.1339 31.8506 87.5899 31.7106 88.0352 31.5598C88.4697 31.3839 88.9221 31.2619 89.3314 31.0752C89.5397 30.9926 89.7408 30.8993 89.9455 30.8239C90.1429 30.7342 90.3332 30.6444 90.5236 30.5618C90.9006 30.3931 91.2417 30.2064 91.5721 30.0485C92.2076 29.7074 92.7355 29.3951 93.0945 29.1654C93.4536 28.932 93.6547 28.7848 93.6547 28.7848L93.6475 28.7812Z" fill="#212B36"/>
<path d="M86.2074 41.0264C86.2074 41.0264 85.4785 41.7228 84.1786 42.4767C83.8555 42.667 83.5036 42.868 83.1122 43.0475C82.7316 43.245 82.3114 43.4245 81.8734 43.6004C81.4353 43.7727 80.9793 43.9378 80.5053 44.085C80.0241 44.2071 79.543 44.3686 79.0474 44.4584C78.5519 44.5481 78.0564 44.6486 77.5573 44.6881C77.0654 44.7563 76.577 44.7779 76.0994 44.7743C75.8624 44.7743 75.629 44.7815 75.4028 44.7743C75.1766 44.7527 74.954 44.7312 74.7385 44.7097C74.3041 44.6702 73.9019 44.6307 73.532 44.5338C73.1622 44.4548 72.8247 44.3758 72.5302 44.3004C72.2394 44.1999 71.9916 44.103 71.7869 44.024C71.3776 43.866 71.1514 43.7691 71.1514 43.7691C71.1514 43.7691 71.4027 43.7871 71.8336 43.8265C72.0491 43.8481 72.3076 43.8732 72.602 43.9127C72.9001 43.9199 73.2376 43.9271 73.5967 43.945C73.9593 43.9737 74.3507 43.945 74.7637 43.9378C74.9683 43.9306 75.1802 43.9271 75.3956 43.9199C75.6111 43.8912 75.8337 43.8804 76.0563 43.8588C76.279 43.8373 76.5052 43.8265 76.735 43.7978C76.9648 43.7583 77.1946 43.7224 77.428 43.6937C77.8948 43.647 78.3652 43.5358 78.8356 43.4388C79.3096 43.3634 79.7692 43.2234 80.2324 43.1193C80.6848 42.9793 81.1409 42.8752 81.5717 42.7352C81.999 42.5916 82.4263 42.4731 82.8141 42.3295C83.2091 42.1931 83.579 42.0567 83.9237 41.9311C84.6059 41.6726 85.1769 41.4464 85.579 41.2777C85.9812 41.1161 86.2074 41.0156 86.2074 41.0156V41.0264Z" fill="#212B36"/>
<path d="M54.2606 52.9679L53.9194 51.9483C53.9194 51.9483 54.8674 51.6073 56.5335 51.015C57.3773 50.7457 58.3504 50.297 59.4851 49.8159C60.6341 49.3672 61.8478 48.7031 63.1979 48.021C63.8838 47.6692 63.2446 48.0353 66.3004 46.2045C66.4691 46.0968 68.8211 44.4598 68.9719 44.3377C69.8911 43.591 70.5554 43.0489 71.1084 42.6038C71.2412 42.4781 73.051 40.7801 73.1767 40.6509C74.4657 39.2472 75.0223 38.6728 75.5968 37.901C76.7315 36.4686 76.3545 36.9784 77.3671 35.4957C77.9595 34.688 78.4335 33.7977 78.9542 32.9325C79.2235 32.5053 79.421 32.0422 79.6544 31.5971C79.8734 31.1448 80.1212 30.7032 80.3151 30.2437C80.6993 29.3139 81.1302 28.4056 81.4354 27.4615C82.1428 25.5983 82.6132 23.6921 83.0225 21.8397C83.1877 20.9063 83.3852 19.9909 83.4893 19.079C83.6688 17.6538 83.5575 18.8636 83.7837 16.4117C83.9202 14.6706 83.9741 13.0156 83.9346 11.4899C83.8915 7.81744 83.2846 3.52031 82.7029 1.41661L83.0764 1.3125C83.0764 1.3125 94.0318 39.6098 54.257 52.9715L54.2606 52.9679Z" fill="#212B36"/>
<path d="M83.0798 1.31505L83.4533 1.21094C84.2827 4.18698 84.8249 8.30462 84.9291 11.4638C85.0009 13.0182 84.9829 14.709 84.8824 16.4896C84.8501 16.9348 84.8177 17.3871 84.7854 17.8431C84.7531 18.3026 84.6849 18.7585 84.6346 19.2252C84.5449 20.1621 84.3689 21.1063 84.2145 22.0684C83.8339 23.9818 83.3886 25.9599 82.6992 27.902C82.4012 28.8892 81.9775 29.837 81.6004 30.8098C81.4065 31.2945 81.1624 31.754 80.9433 32.2315C80.7099 32.7017 80.516 33.19 80.2431 33.6387C78.9756 35.868 79.7584 34.6439 77.7942 37.6522C75.9522 40.0826 76.5985 39.3072 74.3866 41.8166C74.2322 41.9817 72.4261 43.7479 72.2645 43.9059C71.3093 44.7172 72.1065 44.0423 70.6163 45.306C69.8802 45.927 70.2393 45.6578 68.4116 46.9896C67.0938 47.9338 68.1531 47.2553 65.1763 49.122C64.5587 49.5098 64.7777 49.3805 64.1386 49.7251C62.7526 50.4647 61.4958 51.1791 60.3216 51.6709C57.5747 52.9094 59.0182 52.3207 54.6051 54.0043L54.2568 52.9704C94.0316 39.6087 83.0762 1.31145 83.0762 1.31145L83.0798 1.31505Z" fill="#212B36"/>
<path d="M83.159 0C86.1213 2.37653 87.493 6.56237 86.5092 10.2277C86.1968 11.3872 85.5504 12.6042 84.4014 12.9596C82.4408 11.4806 81.0907 9.18302 80.7819 6.74187C80.4767 4.30432 81.6221 1.91702 83.1554 0H83.159Z" fill="#212B36"/>
<path d="M80.7819 6.74187C80.4767 4.30432 81.6221 1.91702 83.1554 0C83.1554 0 84.6132 6.32544 84.3978 12.9596C82.4372 11.4806 81.0871 9.18302 80.7783 6.74187H80.7819Z" fill="#212B36"/>
<path d="M83.1589 0C83.1589 0 83.4031 0.78261 83.6724 1.98164C83.8089 2.58116 83.9453 3.28478 84.071 4.03866C84.2003 4.79614 84.3044 5.60746 84.3978 6.41878C84.4767 7.2337 84.545 8.0522 84.5701 8.82044C84.6024 9.58869 84.5988 10.3067 84.5773 10.9205C84.5557 11.5344 84.5091 12.0442 84.4696 12.4032C84.4301 12.7586 84.4013 12.9632 84.4013 12.9632C84.4013 12.9632 84.387 12.7586 84.369 12.4032C84.3618 12.0478 84.3152 11.538 84.2793 10.9277C84.1931 9.71074 84.053 8.09528 83.8807 6.47982C83.518 3.24171 83.1589 0.00359343 83.1589 0.00359343V0Z" fill="#212B36"/>
<path d="M10.4491 24.596C10.2121 20.0978 12.406 15.5422 16.0686 12.918C17.6306 15.0827 18.083 18.0408 16.9376 20.4532C15.7885 22.8621 13.1134 24.4452 10.4491 24.596Z" fill="#212B36"/>
<path d="M10.4491 24.596C14.7652 20.4496 16.0686 12.918 16.0686 12.918C12.4025 15.5422 10.2121 20.0978 10.4491 24.596Z" fill="#212B36"/>
<path d="M16.0686 12.918C16.0686 12.918 16.0543 13.1226 16.004 13.478C15.9537 13.8334 15.8783 14.3432 15.7527 14.9463C15.6234 15.5494 15.4546 16.2494 15.2248 16.9853C15.0094 17.7285 14.7149 18.5003 14.3989 19.2614C14.2409 19.6419 14.0506 20.0117 13.8783 20.3778C13.6952 20.744 13.4869 21.085 13.3002 21.4261C13.0883 21.7528 12.8836 22.0651 12.679 22.3595C12.4563 22.6395 12.2481 22.9015 12.0542 23.1457C11.8423 23.3754 11.6377 23.5729 11.4617 23.7524C11.2929 23.939 11.1026 24.0575 10.9662 24.176C10.6825 24.3985 10.5173 24.5206 10.5173 24.5206C10.5173 24.5206 10.6538 24.3698 10.8944 24.1042C11.0129 23.9713 11.1744 23.8277 11.3145 23.6231C11.4653 23.4293 11.6341 23.2067 11.8172 22.9662C11.9824 22.7113 12.1619 22.4384 12.3558 22.1477C12.5282 21.8461 12.7113 21.5302 12.9016 21.2035C13.2499 20.5322 13.6126 19.807 13.9214 19.0603C14.0794 18.687 14.2445 18.3172 14.381 17.9439C14.5246 17.5705 14.6682 17.2079 14.7939 16.8489C15.056 16.1345 15.2751 15.456 15.4654 14.8745C15.6449 14.2893 15.8101 13.8047 15.9071 13.46C16.0076 13.1154 16.0686 12.9216 16.0686 12.9216V12.918Z" fill="#212B36"/>
<g style="mix-blend-mode:multiply">
<path d="M16.9375 20.4518C17.7095 18.8291 17.7526 16.9588 17.2247 15.25C16.363 16.7506 15.4653 19.1271 15.1062 22.7601C15.8746 22.1247 16.5102 21.3421 16.9375 20.4518Z" fill="#212B36"/>
</g>
<path d="M10.4489 24.5946C9.53681 20.1826 6.26564 16.3306 2.05368 14.7188C1.09136 17.2066 1.40017 20.1862 3.12014 22.2253C4.84011 24.2644 7.83121 25.1223 10.4453 24.5946H10.4489Z" fill="#212B36"/>
<path d="M14.5964 34.3179C12.8082 32.3255 10.4814 30.8249 7.92839 30.0172C5.37536 29.213 2.60689 29.1053 0 29.712C0.448844 32.8676 2.72897 35.7575 5.75598 36.7555C8.7794 37.7499 12.363 36.5867 14.6 34.3179H14.5964Z" fill="#212B36"/>
<path d="M22.4962 44.706C20.4746 42.9542 17.9754 41.7551 15.3434 41.2741C12.7113 40.793 9.95005 41.03 7.43652 41.9562C8.27317 45.0291 10.898 47.6139 14.0256 48.2277C17.1531 48.838 20.5607 47.2369 22.4962 44.706Z" fill="#212B36"/>
<path d="M2.05371 14.7188C2.05371 14.7188 4.59237 21.4858 10.4489 24.5946C9.53684 20.1826 6.26567 16.3306 2.05371 14.7188Z" fill="#212B36"/>
<path d="M0 29.712C0 29.712 4.05037 34.4041 14.6 34.3179C12.8118 32.3255 10.485 30.8249 7.93198 30.0172C5.37895 29.213 2.61048 29.1053 0.00358878 29.712H0Z" fill="#212B36"/>
<path d="M14.029 48.2247C17.1565 48.835 20.5642 47.2339 22.4996 44.703C13.2211 46.6667 7.43994 41.9531 7.43994 41.9531C8.27659 45.0261 10.9014 47.6108 14.029 48.2247Z" fill="#212B36"/>
<path d="M2.05371 14.7184C2.05371 14.7184 2.14707 14.9015 2.31225 15.221C2.47742 15.5441 2.73236 15.9893 3.05194 16.5134C3.36793 17.0411 3.75932 17.6406 4.20098 18.2653C4.42361 18.5776 4.65342 18.8935 4.90477 19.2094C5.14176 19.5325 5.40388 19.8449 5.6696 20.1536C5.92095 20.4731 6.20462 20.7675 6.47393 21.0618C6.73965 21.3634 7.02691 21.6326 7.29262 21.9055C7.55475 22.1819 7.84201 22.4188 8.09695 22.6593C8.3519 22.9035 8.60684 23.1153 8.84383 23.3091C9.08441 23.4994 9.28908 23.6968 9.48657 23.8476C9.68765 23.9984 9.86001 24.1312 10.0036 24.2389C10.2873 24.4651 10.4525 24.5907 10.4525 24.5907C10.4525 24.5907 10.2694 24.4974 9.94978 24.3251C9.79178 24.2353 9.59788 24.1312 9.37885 24.0056C9.15622 23.8835 8.92283 23.722 8.66429 23.5461C8.40576 23.3737 8.12209 23.1871 7.84919 22.9573C7.5727 22.7311 7.2603 22.5158 6.98382 22.2393C6.70374 21.9701 6.38416 21.7152 6.11485 21.4065C5.83477 21.1049 5.54033 20.8105 5.27821 20.4874C5.0089 20.1679 4.75037 19.8413 4.50979 19.511C4.25484 19.1879 4.04658 18.8433 3.82754 18.5202C3.41102 17.8596 3.05912 17.2206 2.79699 16.6534C2.5241 16.0934 2.35174 15.6016 2.22607 15.2605C2.10757 14.9195 2.06089 14.7148 2.06089 14.7148L2.05371 14.7184Z" fill="#212B36"/>
<path d="M0 29.7106C0 29.7106 0.201081 29.8578 0.560157 30.0912C0.922823 30.3209 1.44708 30.6332 2.08264 30.9743C2.4094 31.1322 2.75052 31.3189 3.13114 31.4876C3.31786 31.5702 3.51176 31.6599 3.70925 31.7497C3.91033 31.8251 4.115 31.9148 4.32327 32.001C4.73261 32.1913 5.18146 32.3097 5.61953 32.4856C6.06478 32.6364 6.5244 32.7764 6.98043 32.9128C7.44364 33.0313 7.90325 33.1749 8.36287 33.2754C8.82607 33.3616 9.27492 33.4908 9.72017 33.5734C10.1654 33.6416 10.5963 33.7277 11.0057 33.8103C11.4186 33.8713 11.81 33.9288 12.1691 33.979C12.5317 34.0329 12.8621 34.0939 13.1601 34.119C13.4546 34.1478 13.7131 34.1872 13.9285 34.2124C14.3558 34.2698 14.6036 34.3165 14.6036 34.3165C14.6036 34.3165 14.3594 34.3596 13.9285 34.4206C13.7131 34.4493 13.451 34.4852 13.1493 34.5139C12.8477 34.557 12.5066 34.5714 12.1332 34.5714C11.7597 34.5786 11.354 34.5965 10.9267 34.575C10.4994 34.5462 10.0469 34.5211 9.58013 34.4744C9.11692 34.417 8.63577 34.3416 8.15101 34.2519C7.66626 34.1585 7.18151 34.0221 6.69317 33.9037C6.2156 33.7493 5.73803 33.5913 5.27482 33.419C4.8152 33.2287 4.36636 33.0457 3.94983 32.8231C3.74157 32.7154 3.52971 32.6149 3.33222 32.5036C3.13832 32.3851 2.94801 32.2702 2.76488 32.1554C2.39144 31.94 2.07187 31.6815 1.76665 31.4661C1.17059 31.0066 0.721741 30.565 0.43089 30.2419C0.143629 29.9117 0.00358878 29.707 0.00358878 29.707L0 29.7106Z" fill="#212B36"/>
<path d="M7.4398 41.9531C7.4398 41.9531 7.66602 42.0536 8.06818 42.2152C8.46676 42.3839 9.03769 42.6101 9.72352 42.8686C10.0682 42.9942 10.4381 43.1306 10.8331 43.267C11.2245 43.4106 11.6482 43.5291 12.0755 43.6727C12.5064 43.8127 12.9624 43.9168 13.4148 44.0568C13.8744 44.1609 14.3376 44.3009 14.8116 44.3763C15.282 44.4697 15.7488 44.5809 16.2156 44.6312C16.449 44.6599 16.6788 44.6958 16.9086 44.7353C17.1384 44.764 17.3646 44.7748 17.5873 44.7963C17.8099 44.8179 18.0325 44.8287 18.248 44.8574C18.4634 44.8646 18.6753 44.8681 18.8799 44.8753C19.2929 44.8825 19.6879 44.9112 20.0469 44.8825C20.4096 44.861 20.7435 44.8574 21.0416 44.8502C21.336 44.8107 21.5946 44.7856 21.81 44.764C22.2409 44.7246 22.4922 44.7066 22.4922 44.7066C22.4922 44.7066 22.266 44.8035 21.8567 44.9615C21.652 45.0405 21.4042 45.1374 21.1134 45.2379C20.819 45.3133 20.485 45.3923 20.1116 45.4713C19.7417 45.5682 19.336 45.6113 18.9015 45.6472C18.686 45.6687 18.4634 45.6902 18.2372 45.7118C18.011 45.719 17.7776 45.7118 17.5406 45.7118C17.063 45.7154 16.5747 45.6938 16.0827 45.6256C15.5836 45.5861 15.0917 45.4856 14.5926 45.3959C14.0971 45.3025 13.6159 45.1446 13.1347 45.0225C12.6608 44.8753 12.2047 44.7102 11.7667 44.5379C11.3286 44.362 10.9121 44.1789 10.5278 43.985C10.1365 43.8055 9.78456 43.6009 9.46139 43.4142C8.16154 42.6603 7.43262 41.9639 7.43262 41.9639L7.4398 41.9531Z" fill="#212B36"/>
<path d="M39.3868 53.9015L39.7279 52.8819C39.7279 52.8819 38.7764 52.5409 37.1139 51.9486C36.27 51.6793 35.2969 51.2306 34.1659 50.7495C33.0168 50.3008 31.8031 49.6367 30.453 48.9546C29.7672 48.6028 30.4063 48.9689 27.3506 47.1381C27.1818 47.0304 24.8299 45.3934 24.6791 45.2713C23.7599 44.5246 23.0956 43.9825 22.5462 43.5374C22.4133 43.4117 20.6036 41.7137 20.4779 41.5845C19.1888 40.1808 18.6323 39.6064 18.0577 38.8346C16.9231 37.4022 17.3001 37.912 16.2875 36.4293C15.695 35.6216 15.221 34.7313 14.7004 33.8661C14.4311 33.4389 14.2336 32.9758 14.0002 32.5307C13.7811 32.0784 13.5334 31.6368 13.3395 31.1773C12.9553 30.2475 12.5244 29.3392 12.2192 28.3951C11.5118 26.5319 11.0414 24.6257 10.6321 22.7733C10.4633 21.8399 10.2694 20.9245 10.1653 20.0126C9.98213 18.5874 10.097 19.7972 9.86722 17.3453C9.73077 15.6042 9.6805 13.9492 9.71641 12.4235C9.7595 8.75104 10.3663 4.4539 10.948 2.3502L10.5746 2.24609C10.5746 2.24609 -0.380793 40.5434 39.394 53.9051L39.3868 53.9015Z" fill="#212B36"/>
<path d="M10.5676 2.24083L10.1942 2.13672C9.3647 5.11276 8.8225 9.2304 8.71836 12.3895C8.64655 13.944 8.6645 15.6348 8.76505 17.4154C8.79736 17.8606 8.82968 18.3129 8.86199 18.7688C8.89431 19.2283 8.96253 19.6843 9.0128 20.151C9.10257 21.0879 9.28211 22.0321 9.43293 22.9942C9.81355 24.9076 10.2588 26.8856 10.9482 28.8278C11.2463 29.815 11.67 30.7628 12.047 31.7356C12.2409 32.2203 12.4851 32.6798 12.7041 33.1572C12.9375 33.6275 13.135 34.1157 13.4043 34.5645C14.6718 36.7938 13.889 35.5697 15.8532 38.578C17.6988 41.0084 17.0489 40.233 19.2608 42.7423C19.4116 42.9075 21.2214 44.6737 21.383 44.8317C22.3381 45.643 21.541 44.9681 23.0311 46.2317C23.7672 46.8528 23.4117 46.5835 25.2358 47.9154C26.5536 48.8596 25.4944 48.1811 28.4711 50.0478C29.0887 50.4355 28.8661 50.3063 29.5088 50.6509C30.8949 51.3905 32.148 52.1048 33.3258 52.5967C36.0727 53.8352 34.6293 53.2464 39.0423 54.9301L39.3906 53.8962C-0.384194 40.5345 10.5712 2.23724 10.5712 2.23724L10.5676 2.24083Z" fill="#212B36"/>
<path d="M10.4885 0.929688C7.52614 3.30622 6.15807 7.49206 7.13834 11.1574C7.44715 12.3169 8.09707 13.5339 9.24611 13.8893C11.2067 12.4103 12.5604 10.1127 12.8656 7.67156C13.1708 5.234 12.0254 2.84671 10.4921 0.929688H10.4885Z" fill="#212B36"/>
<path d="M12.8656 7.67156C13.1709 5.234 12.0254 2.84671 10.4922 0.929688C10.4922 0.929688 9.03431 7.25513 9.24975 13.8893C11.2103 12.4103 12.564 10.1127 12.8692 7.67156H12.8656Z" fill="#212B36"/>
<path d="M10.4884 0.929375C10.4884 0.929375 10.1258 4.16749 9.7667 7.4056C9.59435 9.02106 9.45431 10.6365 9.36813 11.8535C9.33222 12.4638 9.28554 12.9736 9.27836 13.329C9.25682 13.688 9.24245 13.889 9.24245 13.889C9.24245 13.889 9.21373 13.688 9.17782 13.329C9.13832 12.9736 9.09164 12.4638 9.0701 11.8463C9.04855 11.2325 9.04496 10.5145 9.07728 9.74622C9.10241 8.97798 9.17064 8.15948 9.24963 7.34456C9.34299 6.53324 9.44713 5.71833 9.57639 4.96444C9.70207 4.20697 9.83852 3.50335 9.97138 2.90743C10.2407 1.70839 10.4849 0.925781 10.4849 0.925781L10.4884 0.929375Z" fill="#212B36"/>
<rect x="19.7808" y="1.26686" width="53.1044" height="53.1044" rx="26.5522" stroke="#212B36" stroke-width="2.52878"/>
<g style="mix-blend-mode:multiply">
<path d="M16.1367 27.4516C16.3557 30.3307 16.9553 33.1021 17.9033 35.712C19.8603 34.8361 21.5336 33.3427 22.3774 31.4149C23.706 28.3814 23.0453 24.6048 20.9124 22.0703C18.9303 23.4596 17.2857 25.3228 16.1331 27.4516H16.1367Z" fill="#212B36"/>
</g>
<path d="M14.5962 34.3104C14.3054 31.6503 14.7399 28.9112 15.8422 26.4772C16.9446 24.0397 18.7112 21.9037 20.9052 20.3672C22.9555 22.8047 23.5875 26.4377 22.3128 29.3564C21.0381 32.275 17.7776 34.1633 14.5962 34.314V34.3104Z" fill="#212B36"/>
<path d="M20.9052 20.3672C20.9052 20.3672 21.6988 26.5131 14.5962 34.314C14.3054 31.6539 14.7399 28.9148 15.8422 26.4808C16.9446 24.0433 18.7112 21.9073 20.9052 20.3708V20.3672Z" fill="#212B36"/>
<path d="M20.9053 20.3669C20.9053 20.3669 20.9699 20.6074 21.0202 21.0418C21.0633 21.4762 21.0956 22.1044 21.0417 22.8547C21.0022 23.228 20.9771 23.6373 20.8909 24.0609C20.8514 24.2727 20.8119 24.4917 20.7724 24.7143C20.7222 24.9369 20.6575 25.1594 20.6001 25.3856C20.4888 25.8451 20.3236 26.301 20.1584 26.7677C19.9753 27.2272 19.7778 27.6903 19.5731 28.1462C19.3361 28.5878 19.1135 29.0401 18.8622 29.4637C18.6036 29.8838 18.3415 30.293 18.0722 30.6771C17.7957 31.0541 17.5156 31.4095 17.2499 31.7469C16.9806 32.0772 16.6933 32.368 16.442 32.6408C16.1906 32.9172 15.9536 33.1614 15.7202 33.3588C15.4976 33.5634 15.2965 33.7357 15.1314 33.8758C14.801 34.1558 14.6035 34.3101 14.6035 34.3101C14.6035 34.3101 14.7364 34.0983 14.977 33.7393C15.099 33.5598 15.2427 33.3444 15.4186 33.1039C15.5982 32.867 15.7741 32.5798 15.9752 32.2747C16.1763 31.9731 16.3917 31.6428 16.6251 31.2946C16.8406 30.9356 17.0632 30.5623 17.3074 30.1817C17.5443 29.7976 17.7454 29.374 17.9896 28.9719C18.2194 28.5627 18.4205 28.1247 18.6395 27.6975C18.8442 27.2667 19.0453 26.8323 19.2284 26.3979C19.3864 25.9528 19.5983 25.5399 19.7311 25.1092C19.8065 24.8974 19.8747 24.6856 19.9537 24.4845C20.0184 24.2799 20.083 24.0753 20.144 23.8778C20.2697 23.4865 20.3595 23.106 20.46 22.7578C20.6288 22.0541 20.7473 21.4582 20.8191 21.0346C20.8837 20.611 20.9089 20.3633 20.9089 20.3633L20.9053 20.3669Z" fill="#212B36"/>
<g style="mix-blend-mode:multiply">
<path d="M77.9551 27.4633C77.7396 30.3424 77.1364 33.1139 76.1884 35.7237C74.2279 34.8478 72.5582 33.3544 71.7143 31.4266C70.3858 28.3931 71.0465 24.6165 73.1758 22.082C75.1579 23.4713 76.806 25.3345 77.9551 27.4633Z" fill="#212B36"/>
</g>
<path d="M79.4956 34.3222C79.7864 31.662 79.3519 28.9229 78.246 26.4889C77.1436 24.0514 75.3734 21.9154 73.1866 20.3789C71.1363 22.8165 70.5043 26.4495 71.779 29.3681C73.0538 32.2867 76.3106 34.175 79.4956 34.3258V34.3222Z" fill="#212B36"/>
<path d="M73.1866 20.3789C73.1866 20.3789 72.3931 26.5249 79.4956 34.3258C79.7864 31.6656 79.352 28.9265 78.246 26.4925C77.1436 24.055 75.3734 21.919 73.1866 20.3825V20.3789Z" fill="#212B36"/>
<path d="M73.1866 20.3789C73.1866 20.3789 73.2082 20.6302 73.2764 21.0502C73.3446 21.4738 73.4667 22.0698 73.6355 22.7734C73.736 23.1216 73.8258 23.5021 73.9515 23.8934C74.0125 24.0909 74.0771 24.2919 74.1418 24.5001C74.2208 24.7012 74.289 24.913 74.3644 25.1248C74.4937 25.552 74.7055 25.9684 74.8671 26.4136C75.0538 26.8479 75.2513 27.2823 75.456 27.7131C75.6786 28.1403 75.8725 28.5783 76.1059 28.9875C76.3537 29.3896 76.5547 29.8132 76.7881 30.1973C77.0323 30.5743 77.2585 30.9512 77.4704 31.3102C77.7002 31.6584 77.9192 31.9851 78.1203 32.2903C78.3214 32.5954 78.4973 32.8826 78.6769 33.1195C78.8528 33.3601 79.0001 33.5791 79.1221 33.755C79.3627 34.114 79.4956 34.3258 79.4956 34.3258C79.4956 34.3258 79.3017 34.175 78.9677 33.8914C78.8026 33.7514 78.6015 33.5791 78.3788 33.3744C78.1455 33.1806 77.9085 32.9329 77.6571 32.6564C77.4058 32.3836 77.1185 32.0928 76.8492 31.7625C76.5871 31.4251 76.3034 31.0697 76.0269 30.6928C75.7612 30.3086 75.4955 29.8994 75.2369 29.4794C74.9856 29.0558 74.763 28.6034 74.526 28.1619C74.3213 27.7023 74.1202 27.2428 73.9371 26.7833C73.7755 26.3166 73.6103 25.8571 73.4954 25.4012C73.438 25.1714 73.3698 24.9489 73.3231 24.7299C73.28 24.5073 73.2405 24.2883 73.201 24.0765C73.1112 23.6529 73.0897 23.2437 73.0502 22.8703C72.9963 22.12 73.025 21.4918 73.0717 21.0574C73.1256 20.623 73.1866 20.3825 73.1866 20.3825V20.3789Z" fill="#212B36"/>
</svg>
