<svg width="95" height="56" viewBox="0 0 95 56" fill="none" xmlns="http://www.w3.org/2000/svg">
<path d="M84.1364 23.6663C84.3734 19.1681 82.1794 14.6125 78.5133 11.9883C76.9513 14.153 76.4989 17.1111 77.6443 19.5235C78.7934 21.9324 81.4685 23.5155 84.1328 23.6663H84.1364Z" fill="url(#paint0_linear_6593_54768)"/>
<path d="M84.1363 23.6663C79.8202 19.5199 78.5132 11.9883 78.5132 11.9883C82.1793 14.6125 84.3697 19.1681 84.1363 23.6663Z" fill="url(#paint1_linear_6593_54768)"/>
<path d="M78.517 11.9919C78.517 11.9919 78.5744 12.1893 78.6785 12.5304C78.7719 12.875 78.9371 13.3596 79.1166 13.9448C79.3105 14.5264 79.5295 15.2013 79.7881 15.9193C79.9102 16.2782 80.0574 16.6444 80.201 17.0142C80.3375 17.3911 80.5026 17.7609 80.6606 18.1306C80.973 18.8773 81.3357 19.6025 81.6804 20.2738C81.8671 20.6005 82.0502 20.92 82.2226 21.218C82.4129 21.5088 82.5925 21.7816 82.7576 22.0365C82.9408 22.277 83.1095 22.4996 83.2603 22.6934C83.4004 22.9016 83.5655 23.0417 83.684 23.1745C83.9246 23.4401 84.0611 23.5909 84.0611 23.5909C84.0611 23.5909 83.8959 23.4724 83.6122 23.2463C83.4758 23.1278 83.2891 23.0057 83.1167 22.8227C82.9372 22.6432 82.7361 22.4457 82.5206 22.216C82.3267 21.9719 82.1185 21.7098 81.8959 21.4298C81.6948 21.139 81.4901 20.8231 81.2747 20.4964C81.0879 20.1554 80.8797 19.8143 80.6965 19.4481C80.5278 19.082 80.3339 18.7122 80.1759 18.3317C79.8599 17.5706 79.5654 16.7988 79.35 16.0557C79.1202 15.3197 78.9514 14.6197 78.8222 14.0166C78.6965 13.4099 78.6211 12.9037 78.5708 12.5483C78.5241 12.1929 78.5098 11.9883 78.5098 11.9883L78.517 11.9919Z" fill="#FFDE88"/>
<g style="mix-blend-mode:multiply">
<path d="M77.6478 19.5182C76.8758 17.8956 76.8327 16.0252 77.3605 14.3164C78.2259 15.817 79.12 18.1935 79.4827 21.8265C78.7142 21.1911 78.0751 20.4085 77.6514 19.5182H77.6478Z" fill="#D5A975"/>
</g>
<path d="M84.1365 23.6649C85.0449 19.2529 88.3197 15.4009 92.5281 13.7891C93.4904 16.2769 93.1816 19.2565 91.4616 21.2956C89.7416 23.3347 86.7505 24.1927 84.1365 23.6649Z" fill="url(#paint2_linear_6593_54768)"/>
<path d="M79.9893 33.3843C81.7775 31.3919 84.1043 29.8913 86.6573 29.0836C89.2103 28.2794 91.9788 28.1717 94.5857 28.7784C94.1404 31.934 91.8567 34.8239 88.8333 35.8219C85.8063 36.8163 82.2263 35.6531 79.9893 33.3843Z" fill="url(#paint3_linear_6593_54768)"/>
<path d="M72.0894 43.7763C74.111 42.0245 76.6101 40.8254 79.2421 40.3444C81.8742 39.8633 84.6355 40.1003 87.149 41.0265C86.3123 44.0994 83.6875 46.6842 80.56 47.2981C77.4324 47.9083 74.0248 46.3072 72.0894 43.7763Z" fill="url(#paint4_linear_6593_54768)"/>
<path d="M92.5317 13.7891C92.5317 13.7891 89.9931 20.5561 84.1401 23.6649C85.0486 19.2529 88.3234 15.4009 92.5317 13.7891Z" fill="url(#paint5_linear_6593_54768)"/>
<path d="M94.5857 28.7784C94.5857 28.7784 90.5353 33.4705 79.9893 33.3843C81.7775 31.3919 84.1043 29.8913 86.6573 29.0836C89.2103 28.2794 91.9788 28.1717 94.5857 28.7784Z" fill="url(#paint6_linear_6593_54768)"/>
<path d="M80.56 47.295C77.4324 47.9053 74.0248 46.3042 72.0894 43.7733C81.3679 45.737 87.149 41.0234 87.149 41.0234C86.3123 44.0964 83.6875 46.6812 80.56 47.295Z" fill="url(#paint7_linear_6593_54768)"/>
<path d="M92.5317 13.7891C92.5317 13.7891 92.485 13.9901 92.3665 14.3347C92.2409 14.6758 92.0685 15.1676 91.7956 15.7276C91.5335 16.2948 91.1816 16.9338 90.7651 17.5944C90.5496 17.9175 90.3378 18.2621 90.0828 18.5852C89.8423 18.9155 89.5837 19.2421 89.3144 19.5617C89.0523 19.8847 88.7578 20.1827 88.4778 20.4807C88.2049 20.7858 87.8889 21.0407 87.6088 21.3135C87.3323 21.59 87.0163 21.8054 86.7434 22.0315C86.4705 22.2613 86.1905 22.4515 85.9283 22.6203C85.6698 22.7962 85.4364 22.9577 85.2138 23.0798C84.9947 23.2054 84.8008 23.3095 84.6428 23.3993C84.3269 23.5716 84.1401 23.6649 84.1401 23.6649C84.1401 23.6649 84.3017 23.5393 84.589 23.3131C84.7326 23.2054 84.905 23.0726 85.106 22.9218C85.3035 22.771 85.5118 22.5736 85.7524 22.3833C85.9894 22.1895 86.2443 21.9777 86.4993 21.7336C86.7542 21.493 87.0379 21.2561 87.3036 20.9797C87.5693 20.7033 87.8566 20.4376 88.1223 20.136C88.3916 19.8417 88.6717 19.5473 88.923 19.2278C89.1887 18.9226 89.4509 18.6067 89.6878 18.2836C89.9392 17.9677 90.1654 17.6482 90.3916 17.3395C90.8297 16.7149 91.2211 16.1153 91.5407 15.5876C91.8603 15.0635 92.1116 14.6183 92.2768 14.2952C92.442 13.9721 92.5353 13.7927 92.5353 13.7927L92.5317 13.7891Z" fill="#FFD171"/>
<path d="M94.5855 28.7812C94.5855 28.7812 94.4491 28.9859 94.1618 29.3161C93.8673 29.6392 93.4221 30.0808 92.826 30.5403C92.5208 30.7593 92.2012 31.0178 91.8242 31.2296C91.6411 31.3444 91.4508 31.4593 91.2569 31.5778C91.0594 31.6891 90.8511 31.7896 90.6429 31.8973C90.2263 32.1199 89.7739 32.303 89.3179 32.4932C88.8547 32.662 88.3771 32.8235 87.8995 32.9779C87.4112 33.0963 86.9264 33.2328 86.4417 33.3261C85.9569 33.4158 85.4758 33.4912 85.0126 33.5487C84.5458 33.5953 84.0933 33.6205 83.666 33.6492C83.2387 33.6707 82.833 33.6492 82.4595 33.6456C82.0861 33.6456 81.745 33.6276 81.4433 33.5882C81.1417 33.5594 80.8796 33.5199 80.6641 33.4948C80.2368 33.4374 79.9927 33.3907 79.9927 33.3907C79.9927 33.3907 80.2404 33.3476 80.6677 33.2866C80.8832 33.2579 81.1417 33.222 81.4362 33.1933C81.7306 33.1681 82.0645 33.1071 82.4272 33.0533C82.7899 32.9994 83.1777 32.9456 83.5906 32.8845C83.9964 32.8056 84.4273 32.7194 84.8725 32.6476C85.3178 32.565 85.7666 32.4358 86.2298 32.3496C86.693 32.2491 87.1491 32.1055 87.6123 31.987C88.0719 31.8506 88.5279 31.7106 88.9732 31.5598C89.4076 31.3839 89.8601 31.2619 90.2694 31.0752C90.4777 30.9926 90.6788 30.8993 90.8834 30.8239C91.0809 30.7342 91.2712 30.6444 91.4615 30.5618C91.8386 30.3931 92.1797 30.2064 92.5101 30.0485C93.1456 29.7074 93.6735 29.3951 94.0325 29.1654C94.3916 28.932 94.5927 28.7848 94.5927 28.7848L94.5855 28.7812Z" fill="#FFDE88"/>
<path d="M87.1454 41.0264C87.1454 41.0264 86.4165 41.7228 85.1166 42.4767C84.7934 42.667 84.4416 42.868 84.0502 43.0475C83.6695 43.245 83.2494 43.4245 82.8114 43.6004C82.3733 43.7727 81.9173 43.9378 81.4433 44.085C80.9621 44.2071 80.481 44.3686 79.9854 44.4584C79.4899 44.5481 78.9944 44.6486 78.4953 44.6881C78.0033 44.7563 77.515 44.7779 77.0374 44.7743C76.8004 44.7743 76.567 44.7815 76.3408 44.7743C76.1146 44.7527 75.892 44.7312 75.6765 44.7097C75.242 44.6702 74.8399 44.6307 74.47 44.5338C74.1002 44.4548 73.7627 44.3758 73.4682 44.3004C73.1774 44.1999 72.9296 44.103 72.7249 44.024C72.3156 43.866 72.0894 43.7691 72.0894 43.7691C72.0894 43.7691 72.3407 43.7871 72.7716 43.8265C72.9871 43.8481 73.2456 43.8732 73.54 43.9127C73.8381 43.9199 74.1756 43.9271 74.5347 43.945C74.8973 43.9737 75.2887 43.945 75.7017 43.9378C75.9063 43.9306 76.1182 43.9271 76.3336 43.9199C76.5491 43.8912 76.7717 43.8804 76.9943 43.8588C77.217 43.8373 77.4432 43.8265 77.673 43.7978C77.9028 43.7583 78.1326 43.7224 78.366 43.6937C78.8328 43.647 79.3032 43.5358 79.7736 43.4388C80.2476 43.3634 80.7072 43.2234 81.1704 43.1193C81.6228 42.9793 82.0788 42.8752 82.5097 42.7352C82.937 42.5916 83.3643 42.4731 83.7521 42.3295C84.1471 42.1931 84.517 42.0567 84.8617 41.9311C85.5439 41.6726 86.1149 41.4464 86.517 41.2777C86.9192 41.1161 87.1454 41.0156 87.1454 41.0156V41.0264Z" fill="#FFC377"/>
<path d="M55.1985 52.9679L54.8574 51.9483C54.8574 51.9483 55.8054 51.6073 57.4715 51.015C58.3153 50.7457 59.2884 50.297 60.4231 49.8159C61.5721 49.3672 62.7858 48.7031 64.1359 48.021C64.8218 47.6692 64.1826 48.0353 67.2383 46.2045C67.4071 46.0968 69.7591 44.4598 69.9099 44.3377C70.8291 43.591 71.4934 43.0489 72.0464 42.6038C72.1792 42.4781 73.989 40.7801 74.1146 40.6509C75.4037 39.2472 75.9603 38.6728 76.5348 37.901C77.6695 36.4686 77.2925 36.9784 78.3051 35.4957C78.8975 34.688 79.3715 33.7977 79.8922 32.9325C80.1615 32.5053 80.359 32.0422 80.5924 31.5971C80.8114 31.1448 81.0592 30.7032 81.2531 30.2437C81.6373 29.3139 82.0682 28.4056 82.3734 27.4615C83.0808 25.5983 83.5512 23.6921 83.9605 21.8397C84.1257 20.9063 84.3232 19.9909 84.4273 19.079C84.6068 17.6538 84.4955 18.8636 84.7217 16.4117C84.8582 14.6706 84.912 13.0156 84.8725 11.4899C84.8295 7.81744 84.2226 3.52031 83.6409 1.41661L84.0144 1.3125C84.0144 1.3125 94.9697 39.6098 55.195 52.9715L55.1985 52.9679Z" fill="url(#paint8_linear_6593_54768)"/>
<path d="M84.0178 1.31505L84.3913 1.21094C85.2207 4.18698 85.7629 8.30462 85.8671 11.4638C85.9389 13.0182 85.9209 14.709 85.8204 16.4896C85.7881 16.9348 85.7557 17.3871 85.7234 17.8431C85.6911 18.3026 85.6229 18.7585 85.5726 19.2252C85.4828 20.1621 85.3069 21.1063 85.1525 22.0684C84.7719 23.9818 84.3266 25.9599 83.6372 27.902C83.3392 28.8892 82.9154 29.837 82.5384 30.8098C82.3445 31.2945 82.1004 31.754 81.8813 32.2315C81.6479 32.7017 81.454 33.19 81.1811 33.6387C79.9136 35.868 80.6964 34.6439 78.7322 37.6522C76.8902 40.0826 77.5365 39.3072 75.3246 41.8166C75.1702 41.9817 73.364 43.7479 73.2025 43.9059C72.2473 44.7172 73.0445 44.0423 71.5543 45.306C70.8182 45.927 71.1773 45.6578 69.3496 46.9896C68.0318 47.9338 69.091 47.2553 66.1143 49.122C65.4967 49.5098 65.7157 49.3805 65.0766 49.7251C63.6905 50.4647 62.4338 51.1791 61.2596 51.6709C58.5127 52.9094 59.9562 52.3207 55.5431 54.0043L55.1948 52.9704C94.9696 39.6087 84.0142 1.31145 84.0142 1.31145L84.0178 1.31505Z" fill="url(#paint9_linear_6593_54768)"/>
<path d="M84.097 0C87.0593 2.37653 88.431 6.56237 87.4471 10.2277C87.1347 11.3872 86.4884 12.6042 85.3394 12.9596C83.3788 11.4806 82.0287 9.18302 81.7199 6.74187C81.4147 4.30432 82.5601 1.91702 84.0934 0H84.097Z" fill="url(#paint10_linear_6593_54768)"/>
<path d="M81.7199 6.74187C81.4147 4.30432 82.5601 1.91702 84.0934 0C84.0934 0 85.5512 6.32544 85.3358 12.9596C83.3752 11.4806 82.0251 9.18302 81.7163 6.74187H81.7199Z" fill="url(#paint11_linear_6593_54768)"/>
<path d="M84.0969 0C84.0969 0 84.3411 0.78261 84.6104 1.98164C84.7469 2.58116 84.8833 3.28478 85.009 4.03866C85.1382 4.79614 85.2424 5.60746 85.3357 6.41878C85.4147 7.2337 85.483 8.0522 85.5081 8.82044C85.5404 9.58869 85.5368 10.3067 85.5153 10.9205C85.4937 11.5344 85.4471 12.0442 85.4076 12.4032C85.3681 12.7586 85.3393 12.9632 85.3393 12.9632C85.3393 12.9632 85.325 12.7586 85.307 12.4032C85.2998 12.0478 85.2532 11.538 85.2172 10.9277C85.1311 9.71074 84.991 8.09528 84.8187 6.47982C84.456 3.24171 84.0969 0.00359343 84.0969 0.00359343V0Z" fill="#FFDE88"/>
<path d="M11.3871 24.596C11.1501 20.0978 13.344 15.5422 17.0066 12.918C18.5686 15.0827 19.021 18.0408 17.8756 20.4532C16.7265 22.8621 14.0514 24.4452 11.3871 24.596Z" fill="url(#paint12_linear_6593_54768)"/>
<path d="M11.3871 24.596C15.7032 20.4496 17.0066 12.918 17.0066 12.918C13.3405 15.5422 11.1501 20.0978 11.3871 24.596Z" fill="url(#paint13_linear_6593_54768)"/>
<path d="M17.0066 12.918C17.0066 12.918 16.9923 13.1226 16.942 13.478C16.8917 13.8334 16.8163 14.3432 16.6906 14.9463C16.5614 15.5494 16.3926 16.2494 16.1628 16.9853C15.9474 17.7285 15.6529 18.5003 15.3369 19.2614C15.1789 19.6419 14.9886 20.0117 14.8163 20.3778C14.6331 20.744 14.4249 21.085 14.2382 21.4261C14.0263 21.7528 13.8216 22.0651 13.617 22.3595C13.3943 22.6395 13.1861 22.9015 12.9922 23.1457C12.7803 23.3754 12.5756 23.5729 12.3997 23.7524C12.2309 23.939 12.0406 24.0575 11.9042 24.176C11.6205 24.3985 11.4553 24.5206 11.4553 24.5206C11.4553 24.5206 11.5918 24.3698 11.8324 24.1042C11.9508 23.9713 12.1124 23.8277 12.2525 23.6231C12.4033 23.4293 12.5721 23.2067 12.7552 22.9662C12.9204 22.7113 13.0999 22.4384 13.2938 22.1477C13.4661 21.8461 13.6493 21.5302 13.8396 21.2035C14.1879 20.5322 14.5506 19.807 14.8594 19.0603C15.0174 18.687 15.1825 18.3172 15.319 17.9439C15.4626 17.5705 15.6062 17.2079 15.7319 16.8489C15.994 16.1345 16.2131 15.456 16.4034 14.8745C16.5829 14.2893 16.7481 13.8047 16.845 13.46C16.9456 13.1154 17.0066 12.9216 17.0066 12.9216V12.918Z" fill="#FFDE88"/>
<g style="mix-blend-mode:multiply">
<path d="M17.8755 20.4518C18.6475 18.8291 18.6906 16.9588 18.1627 15.25C17.301 16.7506 16.4033 19.1271 16.0442 22.7601C16.8126 22.1247 17.4482 21.3421 17.8755 20.4518Z" fill="#D5A975"/>
</g>
<path d="M11.3869 24.5946C10.4748 20.1826 7.20363 16.3306 2.99167 14.7188C2.02935 17.2066 2.33816 20.1862 4.05813 22.2253C5.7781 24.2644 8.76919 25.1223 11.3833 24.5946H11.3869Z" fill="url(#paint14_linear_6593_54768)"/>
<path d="M15.5344 34.3179C13.7462 32.3255 11.4194 30.8249 8.86638 30.0172C6.31335 29.213 3.54488 29.1053 0.937988 29.712C1.38683 32.8676 3.66696 35.7575 6.69397 36.7555C9.71738 37.7499 13.301 36.5867 15.538 34.3179H15.5344Z" fill="url(#paint15_linear_6593_54768)"/>
<path d="M23.4341 44.706C21.4125 42.9542 18.9134 41.7551 16.2814 41.2741C13.6493 40.793 10.888 41.03 8.37451 41.9562C9.21116 45.0291 11.836 47.6139 14.9636 48.2277C18.0911 48.838 21.4987 47.2369 23.4341 44.706Z" fill="url(#paint16_linear_6593_54768)"/>
<path d="M2.9917 14.7188C2.9917 14.7188 5.53036 21.4858 11.3869 24.5946C10.4748 20.1826 7.20365 16.3306 2.9917 14.7188Z" fill="url(#paint17_linear_6593_54768)"/>
<path d="M0.937988 29.712C0.937988 29.712 4.98836 34.4041 15.538 34.3179C13.7498 32.3255 11.423 30.8249 8.86996 30.0172C6.31694 29.213 3.54847 29.1053 0.941577 29.712H0.937988Z" fill="url(#paint18_linear_6593_54768)"/>
<path d="M14.967 48.2247C18.0945 48.835 21.5021 47.2339 23.4376 44.703C14.159 46.6667 8.37793 41.9531 8.37793 41.9531C9.21458 45.0261 11.8394 47.6108 14.967 48.2247Z" fill="url(#paint19_linear_6593_54768)"/>
<path d="M2.9917 14.7184C2.9917 14.7184 3.08506 14.9015 3.25023 15.221C3.41541 15.5441 3.67035 15.9893 3.98993 16.5134C4.30592 17.0411 4.69731 17.6406 5.13897 18.2653C5.3616 18.5776 5.59141 18.8935 5.84276 19.2094C6.07975 19.5325 6.34187 19.8449 6.60759 20.1536C6.85894 20.4731 7.14261 20.7675 7.41192 21.0618C7.67763 21.3634 7.96489 21.6326 8.23061 21.9055C8.49273 22.1819 8.78 22.4188 9.03494 22.6593C9.28988 22.9035 9.54483 23.1153 9.78182 23.3091C10.0224 23.4994 10.2271 23.6968 10.4246 23.8476C10.6256 23.9984 10.798 24.1312 10.9416 24.2389C11.2253 24.4651 11.3905 24.5907 11.3905 24.5907C11.3905 24.5907 11.2073 24.4974 10.8878 24.3251C10.7298 24.2353 10.5359 24.1312 10.3168 24.0056C10.0942 23.8835 9.86081 23.722 9.60228 23.5461C9.34375 23.3737 9.06007 23.1871 8.78718 22.9573C8.51069 22.7311 8.19829 22.5158 7.9218 22.2393C7.64173 21.9701 7.32215 21.7152 7.05284 21.4065C6.77276 21.1049 6.47832 20.8105 6.2162 20.4874C5.94689 20.1679 5.68835 19.8413 5.44777 19.511C5.19283 19.1879 4.98457 18.8433 4.76553 18.5202C4.34901 17.8596 3.99711 17.2206 3.73498 16.6534C3.46209 16.0934 3.28973 15.6016 3.16405 15.2605C3.04556 14.9195 2.99888 14.7148 2.99888 14.7148L2.9917 14.7184Z" fill="#FFD171"/>
<path d="M0.937988 29.7106C0.937988 29.7106 1.13907 29.8578 1.49815 30.0912C1.86081 30.3209 2.38506 30.6332 3.02063 30.9743C3.34739 31.1322 3.68851 31.3189 4.06913 31.4876C4.25585 31.5702 4.44975 31.6599 4.64724 31.7497C4.84832 31.8251 5.05299 31.9148 5.26126 32.001C5.6706 32.1913 6.11945 32.3097 6.55752 32.4856C7.00277 32.6364 7.46239 32.7764 7.91842 32.9128C8.38162 33.0313 8.84124 33.1749 9.30085 33.2754C9.76406 33.3616 10.2129 33.4908 10.6582 33.5734C11.1034 33.6416 11.5343 33.7277 11.9437 33.8103C12.3566 33.8713 12.748 33.9288 13.1071 33.979C13.4697 34.0329 13.8001 34.0939 14.0981 34.119C14.3925 34.1478 14.6511 34.1872 14.8665 34.2124C15.2938 34.2698 15.5416 34.3165 15.5416 34.3165C15.5416 34.3165 15.2974 34.3596 14.8665 34.4206C14.6511 34.4493 14.389 34.4852 14.0873 34.5139C13.7857 34.557 13.4446 34.5714 13.0711 34.5714C12.6977 34.5786 12.292 34.5965 11.8647 34.575C11.4374 34.5462 10.9849 34.5211 10.5181 34.4744C10.0549 34.417 9.57375 34.3416 9.089 34.2519C8.60425 34.1585 8.1195 34.0221 7.63116 33.9037C7.15359 33.7493 6.67602 33.5913 6.21281 33.419C5.75319 33.2287 5.30435 33.0457 4.88782 32.8231C4.67956 32.7154 4.4677 32.6149 4.27021 32.5036C4.07631 32.3851 3.886 32.2702 3.70287 32.1554C3.32943 31.94 3.00985 31.6815 2.70464 31.4661C2.10857 31.0066 1.65973 30.565 1.36888 30.2419C1.08162 29.9117 0.941577 29.707 0.941577 29.707L0.937988 29.7106Z" fill="#FFDE88"/>
<path d="M8.37779 41.9531C8.37779 41.9531 8.60401 42.0536 9.00617 42.2152C9.40474 42.3839 9.97567 42.6101 10.6615 42.8686C11.0062 42.9942 11.3761 43.1306 11.7711 43.267C12.1624 43.4106 12.5862 43.5291 13.0135 43.6727C13.4443 43.8127 13.9004 43.9168 14.3528 44.0568C14.8124 44.1609 15.2756 44.3009 15.7496 44.3763C16.22 44.4697 16.6868 44.5809 17.1536 44.6312C17.387 44.6599 17.6168 44.6958 17.8466 44.7353C18.0764 44.764 18.3026 44.7748 18.5253 44.7963C18.7479 44.8179 18.9705 44.8287 19.186 44.8574C19.4014 44.8646 19.6133 44.8681 19.8179 44.8753C20.2309 44.8825 20.6259 44.9112 20.9849 44.8825C21.3476 44.861 21.6815 44.8574 21.9796 44.8502C22.274 44.8107 22.5325 44.7856 22.748 44.764C23.1789 44.7246 23.4302 44.7066 23.4302 44.7066C23.4302 44.7066 23.204 44.8035 22.7947 44.9615C22.59 45.0405 22.3422 45.1374 22.0514 45.2379C21.7569 45.3133 21.423 45.3923 21.0496 45.4713C20.6797 45.5682 20.274 45.6113 19.8395 45.6472C19.624 45.6687 19.4014 45.6902 19.1752 45.7118C18.949 45.719 18.7156 45.7118 18.4786 45.7118C18.001 45.7154 17.5127 45.6938 17.0207 45.6256C16.5216 45.5861 16.0297 45.4856 15.5306 45.3959C15.035 45.3025 14.5539 45.1446 14.0727 45.0225C13.5987 44.8753 13.1427 44.7102 12.7046 44.5379C12.2666 44.362 11.85 44.1789 11.4658 43.985C11.0744 43.8055 10.7225 43.6009 10.3994 43.4142C9.09953 42.6603 8.37061 41.9639 8.37061 41.9639L8.37779 41.9531Z" fill="#FFC377"/>
<path d="M40.3248 53.9015L40.6659 52.8819C40.6659 52.8819 39.7144 52.5409 38.0519 51.9486C37.208 51.6793 36.2349 51.2306 35.1038 50.7495C33.9548 50.3008 32.7411 49.6367 31.391 48.9546C30.7052 48.6028 31.3443 48.9689 28.2886 47.1381C28.1198 47.0304 25.7679 45.3934 25.6171 45.2713C24.6978 44.5246 24.0336 43.9825 23.4842 43.5374C23.3513 43.4117 21.5416 41.7137 21.4159 41.5845C20.1268 40.1808 19.5702 39.6064 18.9957 38.8346C17.861 37.4022 18.2381 37.912 17.2255 36.4293C16.633 35.6216 16.159 34.7313 15.6384 33.8661C15.3691 33.4389 15.1716 32.9758 14.9382 32.5307C14.7191 32.0784 14.4714 31.6368 14.2775 31.1773C13.8933 30.2475 13.4624 29.3392 13.1572 28.3951C12.4498 26.5319 11.9794 24.6257 11.57 22.7733C11.4013 21.8399 11.2074 20.9245 11.1032 20.0126C10.9201 18.5874 11.035 19.7972 10.8052 17.3453C10.6688 15.6042 10.6185 13.9492 10.6544 12.4235C10.6975 8.75104 11.3043 4.4539 11.886 2.3502L11.5126 2.24609C11.5126 2.24609 0.557196 40.5434 40.332 53.9051L40.3248 53.9015Z" fill="url(#paint20_linear_6593_54768)"/>
<path d="M11.5056 2.24083L11.1322 2.13672C10.3027 5.11276 9.76048 9.2304 9.65635 12.3895C9.58454 13.944 9.60249 15.6348 9.70303 17.4154C9.73535 17.8606 9.76766 18.3129 9.79998 18.7688C9.8323 19.2283 9.90052 19.6843 9.95079 20.151C10.0406 21.0879 10.2201 22.0321 10.3709 22.9942C10.7515 24.9076 11.1968 26.8856 11.8862 28.8278C12.1842 29.815 12.608 30.7628 12.985 31.7356C13.1789 32.2203 13.4231 32.6798 13.6421 33.1572C13.8755 33.6275 14.073 34.1157 14.3423 34.5645C15.6098 36.7938 14.827 35.5697 16.7912 38.578C18.6368 41.0084 17.9869 40.233 20.1988 42.7423C20.3496 42.9075 22.1594 44.6737 22.3209 44.8317C23.2761 45.643 22.4789 44.9681 23.9691 46.2317C24.7052 46.8528 24.3497 46.5835 26.1738 47.9154C27.4916 48.8596 26.4324 48.1811 29.4091 50.0478C30.0267 50.4355 29.8041 50.3063 30.4468 50.6509C31.8329 51.3905 33.086 52.1048 34.2638 52.5967C37.0107 53.8352 35.5672 53.2464 39.9803 54.9301L40.3286 53.8962C0.553794 40.5345 11.5092 2.23724 11.5092 2.23724L11.5056 2.24083Z" fill="url(#paint21_linear_6593_54768)"/>
<path d="M11.4265 0.929688C8.46413 3.30622 7.09606 7.49206 8.07633 11.1574C8.38514 12.3169 9.03506 13.5339 10.1841 13.8893C12.1447 12.4103 13.4984 10.1127 13.8036 7.67156C14.1088 5.234 12.9633 2.84671 11.4301 0.929688H11.4265Z" fill="url(#paint22_linear_6593_54768)"/>
<path d="M13.8036 7.67156C14.1088 5.234 12.9634 2.84671 11.4301 0.929688C11.4301 0.929688 9.9723 7.25513 10.1877 13.8893C12.1483 12.4103 13.502 10.1127 13.8072 7.67156H13.8036Z" fill="url(#paint23_linear_6593_54768)"/>
<path d="M11.4264 0.929375C11.4264 0.929375 11.0638 4.16749 10.7047 7.4056C10.5323 9.02106 10.3923 10.6365 10.3061 11.8535C10.2702 12.4638 10.2235 12.9736 10.2163 13.329C10.1948 13.688 10.1804 13.889 10.1804 13.889C10.1804 13.889 10.1517 13.688 10.1158 13.329C10.0763 12.9736 10.0296 12.4638 10.0081 11.8463C9.98654 11.2325 9.98295 10.5145 10.0153 9.74622C10.0404 8.97798 10.1086 8.15948 10.1876 7.34456C10.281 6.53324 10.3851 5.71833 10.5144 4.96444C10.6401 4.20697 10.7765 3.50335 10.9094 2.90743C11.1787 1.70839 11.4228 0.925781 11.4228 0.925781L11.4264 0.929375Z" fill="#FFDE88"/>
<rect x="20.7188" y="1.26686" width="53.1044" height="53.1044" rx="26.5522" stroke="url(#paint24_linear_6593_54768)" stroke-width="2.52878"/>
<g style="mix-blend-mode:multiply">
<path d="M17.0746 27.4516C17.2937 30.3307 17.8933 33.1021 18.8413 35.712C20.7983 34.8361 22.4715 33.3427 23.3154 31.4149C24.6439 28.3814 23.9832 24.6048 21.8503 22.0703C19.8682 23.4596 18.2237 25.3228 17.071 27.4516H17.0746Z" fill="#C96B2D"/>
</g>
<path d="M15.5342 34.3104C15.2434 31.6503 15.6779 28.9112 16.7802 26.4772C17.8826 24.0397 19.6492 21.9037 21.8432 20.3672C23.8935 22.8047 24.5255 26.4377 23.2508 29.3564C21.976 32.275 18.7156 34.1633 15.5342 34.314V34.3104Z" fill="url(#paint25_linear_6593_54768)"/>
<path d="M21.8432 20.3672C21.8432 20.3672 22.6367 26.5131 15.5342 34.314C15.2434 31.6539 15.6779 28.9148 16.7802 26.4808C17.8826 24.0433 19.6492 21.9073 21.8432 20.3708V20.3672Z" fill="url(#paint26_linear_6593_54768)"/>
<path d="M21.8433 20.3669C21.8433 20.3669 21.9079 20.6074 21.9582 21.0418C22.0013 21.4762 22.0336 22.1044 21.9797 22.8547C21.9402 23.228 21.9151 23.6373 21.8289 24.0609C21.7894 24.2727 21.7499 24.4917 21.7104 24.7143C21.6601 24.9369 21.5955 25.1594 21.5381 25.3856C21.4268 25.8451 21.2616 26.301 21.0964 26.7677C20.9133 27.2272 20.7158 27.6903 20.5111 28.1462C20.2741 28.5878 20.0515 29.0401 19.8001 29.4637C19.5416 29.8838 19.2795 30.293 19.0102 30.6771C18.7337 31.0541 18.4536 31.4095 18.1879 31.7469C17.9186 32.0772 17.6313 32.368 17.38 32.6408C17.1286 32.9172 16.8916 33.1614 16.6582 33.3588C16.4356 33.5634 16.2345 33.7357 16.0693 33.8758C15.739 34.1558 15.5415 34.3101 15.5415 34.3101C15.5415 34.3101 15.6744 34.0983 15.9149 33.7393C16.037 33.5598 16.1807 33.3444 16.3566 33.1039C16.5361 32.867 16.7121 32.5798 16.9132 32.2747C17.1143 31.9731 17.3297 31.6428 17.5631 31.2946C17.7785 30.9356 18.0012 30.5623 18.2453 30.1817C18.4823 29.7976 18.6834 29.374 18.9276 28.9719C19.1574 28.5627 19.3585 28.1247 19.5775 27.6975C19.7822 27.2667 19.9833 26.8323 20.1664 26.3979C20.3244 25.9528 20.5362 25.5399 20.6691 25.1092C20.7445 24.8974 20.8127 24.6856 20.8917 24.4845C20.9564 24.2799 21.021 24.0753 21.082 23.8778C21.2077 23.4865 21.2975 23.106 21.398 22.7578C21.5668 22.0541 21.6853 21.4582 21.7571 21.0346C21.8217 20.611 21.8469 20.3633 21.8469 20.3633L21.8433 20.3669Z" fill="#FFC377"/>
<g style="mix-blend-mode:multiply">
<path d="M78.8931 27.4633C78.6776 30.3424 78.0744 33.1139 77.1264 35.7237C75.1659 34.8478 73.4962 33.3544 72.6523 31.4266C71.3238 28.3931 71.9845 24.6165 74.1138 22.082C76.0959 23.4713 77.744 25.3345 78.8931 27.4633Z" fill="#C96B2D"/>
</g>
<path d="M80.4336 34.3222C80.7244 31.662 80.2899 28.9229 79.184 26.4889C78.0816 24.0514 76.3114 21.9154 74.1246 20.3789C72.0743 22.8165 71.4423 26.4495 72.717 29.3681C73.9917 32.2867 77.2486 34.175 80.4336 34.3258V34.3222Z" fill="url(#paint27_linear_6593_54768)"/>
<path d="M74.1246 20.3789C74.1246 20.3789 73.3311 26.5249 80.4336 34.3258C80.7244 31.6656 80.2899 28.9265 79.184 26.4925C78.0816 24.055 76.3114 21.919 74.1246 20.3825V20.3789Z" fill="url(#paint28_linear_6593_54768)"/>
<path d="M74.1246 20.3789C74.1246 20.3789 74.1462 20.6302 74.2144 21.0502C74.2826 21.4738 74.4047 22.0698 74.5735 22.7734C74.674 23.1216 74.7638 23.5021 74.8894 23.8934C74.9505 24.0909 75.0151 24.2919 75.0798 24.5001C75.1587 24.7012 75.227 24.913 75.3024 25.1248C75.4316 25.552 75.6435 25.9684 75.8051 26.4136C75.9918 26.8479 76.1893 27.2823 76.394 27.7131C76.6166 28.1403 76.8105 28.5783 77.0439 28.9875C77.2917 29.3896 77.4927 29.8132 77.7261 30.1973C77.9703 30.5743 78.1965 30.9512 78.4084 31.3102C78.6382 31.6584 78.8572 31.9851 79.0583 32.2903C79.2594 32.5954 79.4353 32.8826 79.6149 33.1195C79.7908 33.3601 79.938 33.5791 80.0601 33.755C80.3007 34.114 80.4336 34.3258 80.4336 34.3258C80.4336 34.3258 80.2397 34.175 79.9057 33.8914C79.7405 33.7514 79.5395 33.5791 79.3168 33.3744C79.0834 33.1806 78.8464 32.9329 78.5951 32.6564C78.3437 32.3836 78.0565 32.0928 77.7872 31.7625C77.525 31.4251 77.2414 31.0697 76.9649 30.6928C76.6992 30.3086 76.4335 29.8994 76.1749 29.4794C75.9236 29.0558 75.7009 28.6034 75.464 28.1619C75.2593 27.7023 75.0582 27.2428 74.8751 26.7833C74.7135 26.3166 74.5483 25.8571 74.4334 25.4012C74.376 25.1714 74.3077 24.9489 74.2611 24.7299C74.218 24.5073 74.1785 24.2883 74.139 24.0765C74.0492 23.6529 74.0277 23.2437 73.9882 22.8703C73.9343 22.12 73.963 21.4918 74.0097 21.0574C74.0636 20.623 74.1246 20.3825 74.1246 20.3825V20.3789Z" fill="#FFC377"/>
<defs>
<linearGradient id="paint0_linear_6593_54768" x1="83.013" y1="17.3005" x2="77.4127" y2="19.0014" gradientUnits="userSpaceOnUse">
<stop stop-color="#C86710"/>
<stop offset="0.23" stop-color="#CA6A0F"/>
<stop offset="0.45" stop-color="#D2760C"/>
<stop offset="0.66" stop-color="#DF8909"/>
<stop offset="0.87" stop-color="#F1A403"/>
<stop offset="1" stop-color="#FFB800"/>
</linearGradient>
<linearGradient id="paint1_linear_6593_54768" x1="82.5995" y1="17.2475" x2="78.2047" y2="19.2515" gradientUnits="userSpaceOnUse">
<stop offset="0.12" stop-color="#FFC72C"/>
<stop offset="0.23" stop-color="#FBC02A"/>
<stop offset="0.4" stop-color="#F0AD24"/>
<stop offset="0.59" stop-color="#DE8E1B"/>
<stop offset="0.8" stop-color="#C86710"/>
</linearGradient>
<linearGradient id="paint2_linear_6593_54768" x1="93.7024" y1="17.5772" x2="83.2509" y2="20.7513" gradientUnits="userSpaceOnUse">
<stop offset="0.12" stop-color="#FFB800"/>
<stop offset="0.28" stop-color="#F3A702"/>
<stop offset="0.6" stop-color="#D67C07"/>
<stop offset="1" stop-color="#AD4010"/>
</linearGradient>
<linearGradient id="paint3_linear_6593_54768" x1="95.0399" y1="30.4743" x2="80.2691" y2="34.4496" gradientUnits="userSpaceOnUse">
<stop offset="0.12" stop-color="#FAA900"/>
<stop offset="0.38" stop-color="#E89304"/>
<stop offset="0.93" stop-color="#BD5D0E"/>
<stop offset="1" stop-color="#B75610"/>
</linearGradient>
<linearGradient id="paint4_linear_6593_54768" x1="87.3904" y1="42.7878" x2="72.2391" y2="44.8907" gradientUnits="userSpaceOnUse">
<stop offset="0.12" stop-color="#FFB800"/>
<stop offset="0.45" stop-color="#F8B103"/>
<stop offset="0.93" stop-color="#E59F0E"/>
<stop offset="1" stop-color="#E29C10"/>
</linearGradient>
<linearGradient id="paint5_linear_6593_54768" x1="92.5317" y1="-93.7399" x2="84.1401" y2="-93.7399" gradientUnits="userSpaceOnUse">
<stop stop-color="#C86710"/>
<stop offset="0.23" stop-color="#D6730A"/>
<stop offset="0.61" stop-color="#E98402"/>
<stop offset="0.88" stop-color="#F08B00"/>
</linearGradient>
<linearGradient id="paint6_linear_6593_54768" x1="94.7125" y1="29.8169" x2="79.774" y2="31.694" gradientUnits="userSpaceOnUse">
<stop offset="0.12" stopColor="#FFB800"/>
<stop offset="0.41" stopColor="#FAB103"/>
<stop offset="0.84" stopColor="#EC9E0B"/>
<stop offset="1" stopColor="#E69510"/>
</linearGradient>
<linearGradient id="paint7_linear_6593_54768" x1="87.149" y1="-93.7422" x2="72.0894" y2="-93.7422" gradientUnits="userSpaceOnUse">
<stop stopColor="#E69300"/>
<stop offset="0.51" stopColor="#CC7507"/>
<stop offset="1" stopColor="#B05610"/>
</linearGradient>
<linearGradient id="paint8_linear_6593_54768" x1="83.2747" y1="9.17084" x2="66.2" y2="45.9526" gradientUnits="userSpaceOnUse">
<stop offset="0.12" stopColor="#FAA900"/>
<stop offset="0.38" stopColor="#E89304"/>
<stop offset="0.93" stopColor="#BD5D0E"/>
<stop offset="1" stopColor="#B75610"/>
</linearGradient>
<linearGradient id="paint9_linear_6593_54768" x1="85.9137" y1="-93.7389" x2="55.1984" y2="-93.7389" gradientUnits="userSpaceOnUse">
<stop offset="0.12" stopColor="#FFCF63"/>
<stop offset="0.28" stopColor="#FCCA5C"/>
<stop offset="0.52" stopColor="#F7BC49"/>
<stop offset="0.8" stopColor="#EDA72A"/>
<stop offset="1" stopColor="#E69510"/>
</linearGradient>
<linearGradient id="paint10_linear_6593_54768" x1="87.6146" y1="6.085" x2="81.739" y2="6.9005" gradientUnits="userSpaceOnUse">
<stop offset="0.12" stopColor="#FFC72C"/>
<stop offset="0.23" stopColor="#FBC02A"/>
<stop offset="0.4" stopColor="#F0AD24"/>
<stop offset="0.59" stopColor="#DE8E1B"/>
<stop offset="0.8" stopColor="#C86710"/>
</linearGradient>
<linearGradient id="paint11_linear_6593_54768" x1="85.3609" y1="-93.7401" x2="81.6732" y2="-93.7401" gradientUnits="userSpaceOnUse">
<stop stopColor="#C86710"/>
<stop offset="0.14" stopColor="#CF720D"/>
<stop offset="1" stopColor="#FFB800"/>
</linearGradient>
<linearGradient id="paint12_linear_6593_54768" x1="12.5058" y1="18.2371" x2="18.106" y2="19.9379" gradientUnits="userSpaceOnUse">
<stop stopColor="#C86710"/>
<stop offset="0.23" stopColor="#CA6A0F"/>
<stop offset="0.45" stopColor="#D2760C"/>
<stop offset="0.66" stopColor="#DF8909"/>
<stop offset="0.87" stopColor="#F1A403"/>
<stop offset="1" stopColor="#FFB800"/>
</linearGradient>
<linearGradient id="paint13_linear_6593_54768" x1="12.9239" y1="18.1772" x2="17.3187" y2="20.1812" gradientUnits="userSpaceOnUse">
<stop offset="0.12" stopColor="#FFC72C"/>
<stop offset="0.23" stopColor="#FBC02A"/>
<stop offset="0.4" stopColor="#F0AD24"/>
<stop offset="0.59" stopColor="#DE8E1B"/>
<stop offset="0.8" stopColor="#C86710"/>
</linearGradient>
<linearGradient id="paint14_linear_6593_54768" x1="1.81515" y1="18.5172" x2="12.2701" y2="21.6924" gradientUnits="userSpaceOnUse">
<stop offset="0.12" stopColor="#FFB800"/>
<stop offset="0.28" stopColor="#F3A702"/>
<stop offset="0.6" stopColor="#D67C07"/>
<stop offset="1" stopColor="#AD4010"/>
</linearGradient>
<linearGradient id="paint15_linear_6593_54768" x1="0.481353" y1="31.4155" x2="15.2521" y2="35.3908" gradientUnits="userSpaceOnUse">
<stop offset="0.12" stopColor="#FAA900"/>
<stop offset="0.38" stopColor="#E89304"/>
<stop offset="0.93" stopColor="#BD5D0E"/>
<stop offset="1" stopColor="#B75610"/>
</linearGradient>
<linearGradient id="paint16_linear_6593_54768" x1="8.13042" y1="43.7138" x2="23.2782" y2="45.8162" gradientUnits="userSpaceOnUse">
<stop offset="0.12" stopColor="#FFB800"/>
<stop offset="0.45" stopColor="#F8B103"/>
<stop offset="0.93" stopColor="#E59F0E"/>
<stop offset="1" stopColor="#E29C10"/>
</linearGradient>
<linearGradient id="paint17_linear_6593_54768" x1="2.9917" y1="19.6585" x2="11.3869" y2="19.6585" gradientUnits="userSpaceOnUse">
<stop stopColor="#C86710"/>
<stop offset="0.23" stopColor="#D6730A"/>
<stop offset="0.61" stopColor="#E98402"/>
<stop offset="0.88" stopColor="#F08B00"/>
</linearGradient>
<linearGradient id="paint18_linear_6593_54768" x1="0.811647" y1="30.7556" x2="15.7537" y2="32.6331" gradientUnits="userSpaceOnUse">
<stop offset="0.12" stopColor="#FFB800"/>
<stop offset="0.41" stopColor="#FAB103"/>
<stop offset="0.84" stopColor="#EC9E0B"/>
<stop offset="1" stopColor="#E69510"/>
</linearGradient>
<linearGradient id="paint19_linear_6593_54768" x1="8.37793" y1="45.1517" x2="23.434" y2="45.1517" gradientUnits="userSpaceOnUse">
<stop stopColor="#E69300"/>
<stop offset="0.51" stopColor="#CC7507"/>
<stop offset="1" stopColor="#B05610"/>
</linearGradient>
<linearGradient id="paint20_linear_6593_54768" x1="12.2487" y1="10.1044" x2="29.327" y2="46.8862" gradientUnits="userSpaceOnUse">
<stop offset="0.12" stopColor="#FAA900"/>
<stop offset="0.38" stopColor="#E89304"/>
<stop offset="0.93" stopColor="#BD5D0E"/>
<stop offset="1" stopColor="#B75610"/>
</linearGradient>
<linearGradient id="paint21_linear_6593_54768" x1="9.60967" y1="28.5334" x2="40.325" y2="28.5334" gradientUnits="userSpaceOnUse">
<stop offset="0.12" stopColor="#FFCF63"/>
<stop offset="0.28" stopColor="#FCCA5C"/>
<stop offset="0.52" stopColor="#F7BC49"/>
<stop offset="0.8" stopColor="#EDA72A"/>
<stop offset="1" stopColor="#E69510"/>
</linearGradient>
<linearGradient id="paint22_linear_6593_54768" x1="7.90261" y1="7.01051" x2="13.7817" y2="7.8265" gradientUnits="userSpaceOnUse">
<stop offset="0.12" stopColor="#FFC72C"/>
<stop offset="0.23" stopColor="#FBC02A"/>
<stop offset="0.4" stopColor="#F0AD24"/>
<stop offset="0.59" stopColor="#DE8E1B"/>
<stop offset="0.8" stopColor="#C86710"/>
</linearGradient>
<linearGradient id="paint23_linear_6593_54768" x1="10.1626" y1="7.4095" x2="13.8539" y2="7.4095" gradientUnits="userSpaceOnUse">
<stop stopColor="#C86710"/>
<stop offset="0.14" stopColor="#CF720D"/>
<stop offset="1" stopColor="#FFB800"/>
</linearGradient>
<linearGradient id="paint24_linear_6593_54768" x1="31.9606" y1="6.88304" x2="65.3927" y2="52.6032" gradientUnits="userSpaceOnUse">
<stop offset="0.12" stopColor="#FFB800"/>
<stop offset="0.28" stopColor="#FAB101"/>
<stop offset="0.53" stopColor="#ED9E05"/>
<stop offset="0.81" stopColor="#D87F0B"/>
<stop offset="1" stopColor="#C86710"/>
</linearGradient>
<linearGradient id="paint25_linear_6593_54768" x1="19.818" y1="28.1322" x2="23.3077" y2="30.5885" gradientUnits="userSpaceOnUse">
<stop stopColor="#DA7410"/>
<stop offset="0.3" stopColor="#E3880C"/>
<stop offset="0.91" stopColor="#FBBC01"/>
<stop offset="1" stopColor="#FFC500"/>
</linearGradient>
<linearGradient id="paint26_linear_6593_54768" x1="16.7192" y1="26.1577" x2="21.243" y2="28.8726" gradientUnits="userSpaceOnUse">
<stop offset="0.12" stopColor="#FFC72C"/>
<stop offset="0.23" stopColor="#FBC02A"/>
<stop offset="0.4" stopColor="#F0AD24"/>
<stop offset="0.59" stopColor="#DE8E1B"/>
<stop offset="0.8" stopColor="#C86710"/>
</linearGradient>
<linearGradient id="paint27_linear_6593_54768" x1="76.1498" y1="28.1439" x2="72.6601" y2="30.6002" gradientUnits="userSpaceOnUse">
<stop stopColor="#DA7410"/>
<stop offset="0.3" stopColor="#E3880C"/>
<stop offset="0.91" stopColor="#FBBC01"/>
<stop offset="1" stopColor="#FFC500"/>
</linearGradient>
<linearGradient id="paint28_linear_6593_54768" x1="79.2486" y1="26.1695" x2="74.7248" y2="28.8844" gradientUnits="userSpaceOnUse">
<stop offset="0.12" stopColor="#FFC72C"/>
<stop offset="0.23" stopColor="#FBC02A"/>
<stop offset="0.4" stopColor="#F0AD24"/>
<stop offset="0.59" stopColor="#DE8E1B"/>
<stop offset="0.8" stopColor="#C86710"/>
</linearGradient>
</defs>
</svg>
