<svg width="20" height="20" viewBox="0 0 20 20" fill="none" xmlns="http://www.w3.org/2000/svg">
<path d="M13.875 3.2168H8.25835V5.73346C8.25835 6.05846 7.99168 6.3168 7.67502 6.3168C7.35835 6.3168 7.09168 6.05846 7.09168 5.73346V3.2168H6.12502C2.83335 3.2168 1.75002 4.20013 1.67502 7.27513C1.66668 7.42513 1.73335 7.58346 1.84168 7.6918C1.95002 7.80846 2.09168 7.8668 2.25835 7.8668C3.42502 7.8668 4.38335 8.83346 4.38335 10.0001C4.38335 11.1668 3.42502 12.1335 2.25835 12.1335C2.10002 12.1335 1.95002 12.1918 1.84168 12.3085C1.73335 12.4168 1.66668 12.5751 1.67502 12.7251C1.75002 15.8001 2.83335 16.7835 6.12502 16.7835H7.09168V14.2668C7.09168 13.9418 7.35835 13.6835 7.67502 13.6835C7.99168 13.6835 8.25835 13.9418 8.25835 14.2668V16.7835H13.875C17.2917 16.7835 18.3334 15.7418 18.3334 12.3251V7.67513C18.3334 4.25846 17.2917 3.2168 13.875 3.2168ZM15.3917 9.9168L14.6167 10.6668C14.5834 10.6918 14.575 10.7418 14.5834 10.7835L14.7667 11.8418C14.8 12.0335 14.725 12.2335 14.5583 12.3501C14.4 12.4668 14.1917 12.4835 14.0167 12.3918L13.0584 11.8918C13.025 11.8751 12.975 11.8751 12.9417 11.8918L11.9834 12.3918C11.9084 12.4335 11.825 12.4501 11.7417 12.4501C11.6334 12.4501 11.5333 12.4168 11.4417 12.3501C11.2833 12.2335 11.2 12.0418 11.2333 11.8418L11.4167 10.7835C11.425 10.7418 11.4084 10.7001 11.3834 10.6668L10.6083 9.9168C10.4667 9.78346 10.4167 9.57513 10.475 9.3918C10.5333 9.20013 10.6917 9.0668 10.8917 9.0418L11.9584 8.88346C12 8.87513 12.0334 8.85013 12.0584 8.8168L12.5334 7.85013C12.625 7.67513 12.8 7.5668 13 7.5668C13.2 7.5668 13.375 7.67513 13.4583 7.85013L13.9333 8.8168C13.95 8.85846 13.9834 8.88346 14.025 8.88346L15.0917 9.0418C15.2917 9.0668 15.45 9.20846 15.5084 9.3918C15.5834 9.57513 15.5334 9.77513 15.3917 9.9168Z" fill="#6B7280"/>
</svg>
