<svg width="28" height="28" viewBox="0 0 28 28" fill="none" xmlns="http://www.w3.org/2000/svg">
<g id="vuesax/bold/document-text">
<g id="document-text">
<path id="Vector" d="M18.6667 2.33203H9.33333C5.25 2.33203 3.5 4.66536 3.5 8.16536V19.832C3.5 23.332 5.25 25.6654 9.33333 25.6654H18.6667C22.75 25.6654 24.5 23.332 24.5 19.832V8.16536C24.5 4.66536 22.75 2.33203 18.6667 2.33203ZM9.33333 14.2904H14C14.4783 14.2904 14.875 14.687 14.875 15.1654C14.875 15.6437 14.4783 16.0404 14 16.0404H9.33333C8.855 16.0404 8.45833 15.6437 8.45833 15.1654C8.45833 14.687 8.855 14.2904 9.33333 14.2904ZM18.6667 20.707H9.33333C8.855 20.707 8.45833 20.3104 8.45833 19.832C8.45833 19.3537 8.855 18.957 9.33333 18.957H18.6667C19.145 18.957 19.5417 19.3537 19.5417 19.832C19.5417 20.3104 19.145 20.707 18.6667 20.707ZM21.5833 10.7904H19.25C17.4767 10.7904 16.0417 9.35536 16.0417 7.58203V5.2487C16.0417 4.77036 16.4383 4.3737 16.9167 4.3737C17.395 4.3737 17.7917 4.77036 17.7917 5.2487V7.58203C17.7917 8.38703 18.445 9.04036 19.25 9.04036H21.5833C22.0617 9.04036 22.4583 9.43703 22.4583 9.91536C22.4583 10.3937 22.0617 10.7904 21.5833 10.7904Z" fill="white"/>
</g>
</g>
</svg>
