<svg width="28" height="28" viewBox="0 0 28 28" fill="none" xmlns="http://www.w3.org/2000/svg">
<g id="vuesax/linear/messages-3">
<g id="messages-3">
<path id="Vector" d="M25.6663 7.29036V13.2403C25.6663 14.722 25.1763 15.9704 24.3013 16.8337C23.438 17.7087 22.1897 18.1987 20.708 18.1987V20.3103C20.708 21.1037 19.8213 21.582 19.168 21.1387L18.0363 20.392C18.1413 20.0303 18.188 19.6337 18.188 19.2137V14.4654C18.188 12.0854 16.6013 10.4987 14.2213 10.4987H6.29967C6.13633 10.4987 5.98467 10.5104 5.83301 10.5221V7.29036C5.83301 4.31536 7.81634 2.33203 10.7913 2.33203H20.708C23.683 2.33203 25.6663 4.31536 25.6663 7.29036Z" stroke="white" stroke-width="1.5" stroke-miterlimit="10" stroke-linecap="round" stroke-linejoin="round"/>
<path id="Vector_2" d="M18.188 14.4667V19.215C18.188 19.635 18.1414 20.0316 18.0364 20.3933C17.6047 22.1083 16.1813 23.1817 14.2213 23.1817H11.048L7.52467 25.5267C6.99967 25.8883 6.29967 25.5033 6.29967 24.8733V23.1817C5.10967 23.1817 4.11801 22.785 3.42968 22.0967C2.72968 21.3967 2.33301 20.405 2.33301 19.215V14.4667C2.33301 12.25 3.70967 10.7217 5.83301 10.5234C5.98467 10.5117 6.13633 10.5 6.29967 10.5H14.2213C16.6013 10.5 18.188 12.0867 18.188 14.4667Z" stroke="white" stroke-width="1.5" stroke-miterlimit="10" stroke-linecap="round" stroke-linejoin="round"/>
</g>
</g>
</svg>
