<svg width="28" height="28" viewBox="0 0 28 28" fill="none" xmlns="http://www.w3.org/2000/svg">
<g id="vuesax/bold/messages-3">
<g id="messages-3">
<path id="Vector" d="M18.188 14.4667V19.215C18.188 19.635 18.1413 20.0317 18.0363 20.3933C17.6047 22.1083 16.1813 23.1817 14.2213 23.1817H11.048L7.52467 25.5267C6.99967 25.8883 6.29967 25.5033 6.29967 24.8733V23.1817C5.10967 23.1817 4.11801 22.785 3.42967 22.0967C2.72967 21.3967 2.33301 20.405 2.33301 19.215V14.4667C2.33301 12.25 3.70967 10.7217 5.83301 10.5233C5.98467 10.5117 6.13634 10.5 6.29967 10.5H14.2213C16.6013 10.5 18.188 12.0867 18.188 14.4667Z" fill="white"/>
<path id="Vector_2" d="M20.708 18.1987C22.1897 18.1987 23.438 17.7087 24.3013 16.8337C25.1763 15.9704 25.6663 14.722 25.6663 13.2404V7.29036C25.6663 4.5487 23.4497 2.33203 20.708 2.33203H10.7913C8.04967 2.33203 5.83301 4.5487 5.83301 7.29036V8.16536C5.83301 8.49203 6.08967 8.7487 6.41634 8.7487H14.2213C17.383 8.7487 19.938 11.3037 19.938 14.4654V17.6154C19.938 17.942 20.1947 18.1987 20.5213 18.1987H20.708V18.1987Z" fill="white"/>
</g>
</g>
</svg>
