<svg width="19" height="18" viewBox="0 0 19 18" fill="none" xmlns="http://www.w3.org/2000/svg">
<g id="bug-outline">
<path id="Vector" d="M15.9192 13.5H14.8985C14.9489 13.2066 14.9809 12.9069 14.9809 12.6V11.7H16.8117C17.317 11.7 17.7271 11.2968 17.7271 10.8C17.7271 10.3032 17.317 9.9 16.8117 9.9H14.8985C14.8455 9.5904 14.7658 9.2898 14.6605 9H15.0038C16.0135 9 16.8346 8.1927 16.8346 7.2V5.4C16.8346 4.9032 16.4245 4.5 15.9192 4.5C15.4139 4.5 15.0038 4.9032 15.0038 5.4V7.2H13.5712C13.4385 7.0551 13.2975 6.9165 13.1501 6.786V5.4C13.1501 4.5027 12.8023 3.6909 12.2476 3.06L12.8819 2.4363C13.054 2.268 13.1501 2.0385 13.1501 1.8V0.9C13.1501 0.4032 12.74 0 12.2347 0C11.7294 0 11.3193 0.4032 11.3193 0.9V1.4274L10.7143 2.0223C10.3289 1.8873 9.92062 1.8 9.48856 1.8C9.05649 1.8 8.64823 1.8873 8.26284 2.0223L7.65777 1.4274V0.9C7.65777 0.4032 7.24767 0 6.74237 0C6.23707 0 5.82698 0.4032 5.82698 0.9V1.8C5.82698 2.0385 5.92309 2.268 6.09519 2.4363L6.72956 3.06C6.17483 3.6909 5.82698 4.5027 5.82698 5.4V6.786C5.6796 6.9165 5.53863 7.0551 5.40589 7.2H3.99619V5.4C3.99619 4.9032 3.58609 4.5 3.08079 4.5C2.57549 4.5 2.1654 4.9032 2.1654 5.4V7.2C2.1654 8.1927 2.9865 9 3.99619 9H4.31657C4.21222 9.2898 4.13166 9.5904 4.07857 9.9H2.1654C1.6601 9.9 1.25 10.3032 1.25 10.8C1.25 11.2968 1.6601 11.7 2.1654 11.7H3.99619V12.6C3.99619 12.9069 4.02822 13.2066 4.07857 13.5H3.08079C2.07111 13.5 1.25 14.3073 1.25 15.3V17.1C1.25 17.5968 1.6601 18 2.1654 18C2.67069 18 3.08079 17.5968 3.08079 17.1V15.3H4.73949C5.69058 16.911 7.46096 18 9.48856 18C11.5162 18 13.2865 16.911 14.2376 15.3H15.9192V17.1C15.9192 17.5968 16.3293 18 16.8346 18C17.3399 18 17.75 17.5968 17.75 17.1V15.3C17.75 14.3073 16.9289 13.5 15.9192 13.5ZM7.65777 5.4C7.65777 4.4073 8.47888 3.6 9.48856 3.6C10.4982 3.6 11.3193 4.4073 11.3193 5.4V5.715C11.0411 5.6178 10.7545 5.5413 10.458 5.4891C10.4241 5.4828 10.3902 5.4792 10.3564 5.4738C10.0726 5.4297 9.78423 5.4 9.48856 5.4C9.19289 5.4 8.90454 5.4297 8.62076 5.4738C8.58689 5.4792 8.55302 5.4828 8.51915 5.4891C8.22257 5.5413 7.93605 5.6178 7.65777 5.715V5.4ZM5.82698 12.6V10.8C5.82698 10.0314 6.0778 9.3222 6.49705 8.7363C6.7204 8.424 6.99685 8.154 7.30809 7.9254C7.30992 7.9236 7.31266 7.9236 7.31449 7.9218C7.46462 7.812 7.62207 7.7184 7.78318 7.6338C7.80332 7.623 7.82254 7.6122 7.84268 7.6023C7.99921 7.524 8.16032 7.4583 8.32417 7.4043C8.35164 7.3953 8.38001 7.3872 8.40748 7.3791C8.4624 7.362 8.51824 7.3539 8.57316 7.3395V16.0722C6.99868 15.6699 5.82698 14.2722 5.82698 12.6ZM10.404 16.0722V7.3395C10.4589 7.3539 10.5147 7.362 10.5696 7.3791C10.598 7.3881 10.6264 7.3953 10.6539 7.4052C10.8177 7.4601 10.9788 7.5249 11.1354 7.6032C11.1555 7.6131 11.1747 7.6248 11.1949 7.6347C11.356 7.7193 11.5134 7.8129 11.6635 7.9227C11.6654 7.9236 11.6672 7.9245 11.669 7.9254C12.5625 8.5824 13.1501 9.621 13.1501 10.8V12.6C13.1501 14.2722 11.9784 15.6699 10.404 16.0722Z" fill="url(#paint0_linear_6502_32120)"/>
</g>
<defs>
<linearGradient id="paint0_linear_6502_32120" x1="7.61429" y1="-10.9459" x2="27.3895" y2="4.32465" gradientUnits="userSpaceOnUse">
<stop offset="0.0444369" stop-color="#FD4077"/>
<stop offset="1" stop-color="#FE7601"/>
</linearGradient>
</defs>
</svg>
