<svg width="15" height="16" viewBox="0 0 15 16" fill="none" xmlns="http://www.w3.org/2000/svg">
<g id="hamburger-soda 1">
<path id="Vector" d="M11.8753 8.58333H9.93569L10.3814 5.11717C10.4788 4.68258 10.3744 4.23458 10.0961 3.8875C9.81786 3.54042 9.40311 3.34092 8.95803 3.34092H7.24653L7.37019 2.34983C7.42503 1.91292 7.79778 1.58333 8.23819 1.58333H10.1247C10.2857 1.58333 10.4164 1.45267 10.4164 1.29167C10.4164 1.13067 10.2857 1 10.1247 1H8.23819C7.50436 1 6.88194 1.54892 6.79153 2.2775L6.65853 3.34092H1.95919C1.51469 3.34092 1.10052 3.53983 0.822275 3.88633C0.544025 4.23283 0.439025 4.68025 0.530025 5.08508L1.42602 12.6818C1.58236 14.0031 2.70294 14.9994 4.03294 14.9994H11.8753C13.3225 14.9994 14.5003 13.8217 14.5003 12.3744V11.2078C14.5003 9.7605 13.3225 8.58333 11.8753 8.58333ZM13.9169 11.2083V11.5H12.4639C12.4609 11.5 12.458 11.5 12.4551 11.5H8.96211C8.95919 11.5 8.95628 11.5 8.95278 11.5H6.33361V11.2083C6.33361 10.0825 7.24944 9.16667 8.37528 9.16667H11.8753C13.0011 9.16667 13.9169 10.0825 13.9169 11.2083ZM11.4955 12.0833L10.7086 12.6078L9.92169 12.0833H11.4955ZM8.95803 3.92425C9.22519 3.92425 9.47369 4.04383 9.64053 4.25208C9.80794 4.46033 9.87036 4.72925 9.80736 5.01625L9.72336 5.66667H6.95544L7.17361 3.92425H8.95803ZM1.27728 4.25092C1.44411 4.04325 1.69261 3.92367 1.95919 3.92367H6.58561L6.36744 5.66608H1.18511L1.10519 4.98767C1.04744 4.7275 1.11044 4.45917 1.27728 4.25092ZM4.03294 14.4167C2.99811 14.4167 2.12661 13.6414 2.00528 12.6142L1.25394 6.25H9.64811L9.34711 8.58333H8.37469C6.92744 8.58333 5.74969 9.76108 5.74969 11.2083V12.375C5.74969 13.1987 6.13119 13.9348 6.72678 14.4167H4.03294ZM11.8753 14.4167H8.37528C7.24944 14.4167 6.33361 13.5008 6.33361 12.375V12.0833H8.87053L10.547 13.201C10.596 13.2337 10.6526 13.25 10.7086 13.25C10.7646 13.25 10.8212 13.2337 10.8702 13.201L12.5467 12.0833H13.9169V12.375C13.9169 13.5008 13.0011 14.4167 11.8753 14.4167Z" fill="url(#paint0_linear_7153_56265)"/>
<path id="Vector (Stroke)" fill-rule="evenodd" clip-rule="evenodd" d="M1.10444 4.98689L1.18436 5.6653H6.36669L6.58486 3.92289H1.95844C1.69186 3.92289 1.44336 4.04247 1.27652 4.25014C1.10969 4.45839 1.04669 4.72672 1.10444 4.98689ZM6.24495 4.22289H1.95844C1.78316 4.22289 1.62061 4.30093 1.51052 4.43788C1.40027 4.5756 1.3594 4.75107 1.39731 4.92188L1.4006 4.9367L1.45109 5.3653H6.10191L6.24495 4.22289ZM9.63977 4.2513C9.47294 4.04305 9.22444 3.92347 8.95727 3.92347H7.17286L6.95469 5.66589H9.72261L9.80661 5.01547C9.86961 4.72847 9.80719 4.45955 9.63977 4.2513ZM9.45886 5.36589L9.51076 4.964L9.51359 4.95115C9.55828 4.74754 9.51313 4.57258 9.40596 4.43927C9.29598 4.30198 9.13324 4.22347 8.95727 4.22347H7.43764L7.2946 5.36589H9.45886ZM1.12734 12.7162L0.233067 5.1341C0.127486 4.64075 0.258291 4.10781 0.587609 3.69771C0.922713 3.28041 1.42286 3.04014 1.95844 3.04014H6.39296L6.49306 2.23977C6.60228 1.36083 7.35256 0.699219 8.23744 0.699219H10.1239C10.4506 0.699219 10.7156 0.964199 10.7156 1.29089C10.7156 1.61757 10.4506 1.88255 10.1239 1.88255H8.23744C7.94858 1.88255 7.70315 2.09924 7.66711 2.38641L7.58553 3.04014H8.95727C9.49356 3.04014 9.99435 3.2811 10.3294 3.69907C10.6615 4.1133 10.7885 4.64844 10.6765 5.1678L10.276 8.28255H11.8745C13.4874 8.28255 14.7995 9.59395 14.7995 11.207V12.3736C14.7995 13.9866 13.4875 15.2986 11.8745 15.2986H4.03219C2.55002 15.2986 1.30152 14.1883 1.12734 12.7162ZM11.8745 8.58255C13.3218 8.58255 14.4995 9.75972 14.4995 11.207V12.3736C14.4995 13.8209 13.3218 14.9986 11.8745 14.9986H4.03219C2.70219 14.9986 1.58161 14.0023 1.42527 12.6811L0.529274 5.0843C0.438274 4.67947 0.543274 4.23205 0.821524 3.88555C1.09977 3.53905 1.51394 3.34014 1.95844 3.34014H6.65777L6.79077 2.27672C6.88119 1.54814 7.50361 0.999219 8.23744 0.999219H10.1239C10.2849 0.999219 10.4156 1.12989 10.4156 1.29089C10.4156 1.45189 10.2849 1.58255 10.1239 1.58255H8.23744C7.79702 1.58255 7.42427 1.91214 7.36944 2.34905L7.24577 3.34014H8.95727C9.40236 3.34014 9.81711 3.53964 10.0954 3.88672C10.3736 4.2338 10.478 4.6818 10.3806 5.11639L9.93494 8.58255H11.8745ZM13.9162 11.1992C13.9162 11.202 13.9162 11.2048 13.9162 11.2076V11.4992H6.33286V11.2076C6.33286 11.2048 6.33286 11.202 6.33287 11.1992C6.33738 10.0772 7.25147 9.16589 8.37452 9.16589H11.8745C12.9976 9.16589 13.9117 10.0772 13.9162 11.1992ZM6.63288 11.1992C6.63738 10.2429 7.41716 9.46589 8.37452 9.46589H11.8745C12.8319 9.46589 13.6117 10.2429 13.6162 11.1992H6.63288ZM11.4948 12.0826H9.92094L10.7079 12.607L11.4948 12.0826ZM2.30245 12.5782C2.40597 13.4545 3.14953 14.1159 4.03219 14.1159H6.02547C5.66366 13.6293 5.44894 13.0265 5.44894 12.3742V11.2076C5.44894 9.59462 6.76101 8.28255 8.37394 8.28255H9.08257L9.30617 6.54922H1.59069L2.30245 12.5782C2.30246 12.5782 2.30245 12.5782 2.30245 12.5782ZM2.00452 12.6134L1.25319 6.24922H9.64736L9.34636 8.58255H8.37394C6.92669 8.58255 5.74894 9.7603 5.74894 11.2076V12.3742C5.74894 13.0419 5.99962 13.6521 6.4118 14.1159C6.50811 14.2243 6.61323 14.3246 6.72602 14.4159H4.03219C2.99736 14.4159 2.12586 13.6406 2.00452 12.6134ZM8.37452 14.1159H11.8745C12.8319 14.1159 13.6117 13.3389 13.6162 12.3826H12.6368L11.0359 13.4498C10.9365 13.5161 10.8218 13.5492 10.7079 13.5492C10.5939 13.5492 10.4792 13.5161 10.3799 13.4498L8.77894 12.3826H6.63288C6.63738 13.3389 7.41716 14.1159 8.37452 14.1159ZM6.33287 12.3826C6.33286 12.3798 6.33286 12.377 6.33286 12.3742V12.0826H8.86977L10.5463 13.2002C10.5953 13.2329 10.6519 13.2492 10.7079 13.2492C10.7639 13.2492 10.8204 13.2329 10.8694 13.2002L12.5459 12.0826H13.9162V12.3742C13.9162 12.377 13.9162 12.3798 13.9162 12.3826C13.9117 13.5046 12.9976 14.4159 11.8745 14.4159H8.37452C7.25147 14.4159 6.33738 13.5046 6.33287 12.3826Z" fill="url(#paint1_linear_7153_56265)"/>
</g>
<defs>
<linearGradient id="paint0_linear_7153_56265" x1="5.89891" y1="-7.51316" x2="21.5653" y2="5.68704" gradientUnits="userSpaceOnUse">
<stop offset="0.0444369" stop-color="#FD4077"/>
<stop offset="1" stop-color="#FE7601"/>
</linearGradient>
<linearGradient id="paint1_linear_7153_56265" x1="5.82957" y1="-8.17881" x2="22.1674" y2="5.58704" gradientUnits="userSpaceOnUse">
<stop offset="0.0444369" stop-color="#FD4077"/>
<stop offset="1" stop-color="#FE7601"/>
</linearGradient>
</defs>
</svg>
