<svg width="21" height="20" viewBox="0 0 21 20" fill="none" xmlns="http://www.w3.org/2000/svg">
<g id="vuesax/bold/ticket-star">
<g id="ticket-star">
<path id="Vector" d="M16.239 10.2742L16.2389 10.2741L15.6082 10.8845L15.7588 11.7542C15.7588 11.7543 15.7588 11.7544 15.7589 11.7545C15.8231 12.1247 15.68 12.52 15.3495 12.7543C15.0389 12.9804 14.6283 13.0127 14.2849 12.8331L16.239 10.2742ZM16.239 10.2742L16.2447 10.2684C16.5087 10.0044 16.6263 9.60324 16.4781 9.21919C16.3597 8.87153 16.0538 8.59643 15.6599 8.54456L14.794 8.41603L14.4077 7.62991C14.2377 7.27618 13.8838 7.06484 13.4995 7.06484C13.1105 7.06484 12.7665 7.2791 12.5899 7.61617L12.5898 7.6161L12.5841 7.62767L12.1974 8.4147L11.3226 8.54455C10.9315 8.59598 10.6132 8.8639 10.4971 9.24127C10.3844 9.59928 10.4785 10.007 10.7622 10.2762L11.3909 10.8845L11.2402 11.7545L11.2402 11.7545L11.2397 11.7576C11.1742 12.1506 11.3407 12.5268 11.6446 12.7507L11.6471 12.7525C11.82 12.8783 12.0221 12.9482 12.2412 12.9482C12.3881 12.9482 12.5564 12.9192 12.7188 12.8307L13.4995 12.4234L14.2842 12.8328L16.239 10.2742ZM2.67742 7.30913C2.67502 7.30322 2.6742 7.29936 2.67393 7.29785L2.67419 7.29314L2.67438 7.28537C2.7111 5.77981 2.99659 4.94652 3.53003 4.46048C4.07387 3.96496 4.99838 3.71484 6.62453 3.71484H7.0912V5.73151C7.0912 6.33729 7.58638 6.81484 8.17453 6.81484C8.76268 6.81484 9.25786 6.33729 9.25786 5.73151V3.71484H14.3745C16.0653 3.71484 16.9959 3.98078 17.5314 4.51631C18.0669 5.05185 18.3329 5.98244 18.3329 7.67318V12.3232C18.3329 14.0139 18.0669 14.9445 17.5314 15.48C16.9959 16.0156 16.0653 16.2815 14.3745 16.2815H9.25786V14.2648C9.25786 13.6591 8.76268 13.1815 8.17453 13.1815C7.58637 13.1815 7.0912 13.6591 7.0912 14.2648V16.2815H6.62453C4.99838 16.2815 4.07387 16.0314 3.53003 15.5359C2.99659 15.0498 2.7111 14.2165 2.67438 12.711L2.67419 12.7032L2.67393 12.6985C2.6742 12.697 2.67502 12.6931 2.67742 12.6872C2.67958 12.6819 2.68245 12.6764 2.68585 12.6712C2.68924 12.6661 2.69245 12.6624 2.69475 12.6601L2.70129 12.6535L2.70759 12.6467C2.71097 12.6431 2.71488 12.6402 2.72115 12.6376C2.72799 12.6348 2.73999 12.6315 2.75786 12.6315C4.20321 12.6315 5.38286 11.4384 5.38286 9.99818C5.38286 8.55791 4.20321 7.36484 2.75786 7.36484C2.73352 7.36484 2.72286 7.36076 2.72045 7.35976L2.72042 7.35975C2.71869 7.35902 2.71483 7.35741 2.70759 7.34962L2.70129 7.34284L2.69475 7.33629C2.69245 7.33399 2.68924 7.33027 2.68585 7.32511C2.68245 7.31996 2.67958 7.31445 2.67742 7.30913Z" stroke="url(#paint0_linear_6976_45097)"/>
</g>
</g>
<defs>
<linearGradient id="paint0_linear_6976_45097" x1="8.59946" y1="-5.03516" x2="23.996" y2="10.8915" gradientUnits="userSpaceOnUse">
<stop offset="0.0444369" stop-color="#FD4077"/>
<stop offset="1" stop-color="#FE7601"/>
</linearGradient>
</defs>
</svg>
