<svg width="17" height="16" viewBox="0 0 17 16" fill="none" xmlns="http://www.w3.org/2000/svg">
<g id="vuesax/linear/cloud-minus">
<g id="cloud-minus">
<path id="Vector" d="M9.14714 13.332H6.48047" stroke="url(#paint0_linear_6976_5167)" stroke-width="1.5" stroke-miterlimit="10" stroke-linecap="round" stroke-linejoin="round"/>
<path id="Vector_2" d="M11.5732 13.3353C12.4665 13.3419 13.3265 13.0086 13.9865 12.4086C16.1665 10.5019 14.9998 6.67525 12.1265 6.31525C11.0998 0.0885855 2.11982 2.44859 4.24649 8.37525" stroke="url(#paint1_linear_6976_5167)" stroke-width="1.5" stroke-miterlimit="10" stroke-linecap="round" stroke-linejoin="round"/>
<path id="Vector_3" d="M5.35324 8.64591C4.99991 8.46591 4.60658 8.37257 4.21324 8.37924C1.10658 8.59924 1.11324 13.1192 4.21324 13.3392" stroke="url(#paint2_linear_6976_5167)" stroke-width="1.5" stroke-miterlimit="10" stroke-linecap="round" stroke-linejoin="round"/>
<path id="Vector_4" d="M11.0469 6.59365C11.3935 6.42031 11.7669 6.32698 12.1535 6.32031" stroke="url(#paint3_linear_6976_5167)" stroke-width="1.5" stroke-miterlimit="10" stroke-linecap="round" stroke-linejoin="round"/>
</g>
</g>
<defs>
<linearGradient id="paint0_linear_6976_5167" x1="7.50904" y1="12.7239" x2="8.35281" y2="14.6194" gradientUnits="userSpaceOnUse">
<stop offset="0.0444369" stop-color="#FD4077"/>
<stop offset="1" stop-color="#FE7601"/>
</linearGradient>
<linearGradient id="paint1_linear_6976_5167" x1="8.23972" y1="-3.86292" x2="20.2884" y2="6.76128" gradientUnits="userSpaceOnUse">
<stop offset="0.0444369" stop-color="#FD4077"/>
<stop offset="1" stop-color="#FE7601"/>
</linearGradient>
<linearGradient id="paint2_linear_6976_5167" x1="3.22321" y1="5.36249" x2="8.14895" y2="8.26318" gradientUnits="userSpaceOnUse">
<stop offset="0.0444369" stop-color="#FD4077"/>
<stop offset="1" stop-color="#FE7601"/>
</linearGradient>
<linearGradient id="paint3_linear_6976_5167" x1="11.4737" y1="6.1541" x2="11.6413" y2="6.72572" gradientUnits="userSpaceOnUse">
<stop offset="0.0444369" stop-color="#FD4077"/>
<stop offset="1" stop-color="#FE7601"/>
</linearGradient>
</defs>
</svg>
