<svg width="19" height="22" viewBox="0 0 19 22" fill="none" xmlns="http://www.w3.org/2000/svg">
<g id="Group 3">
<g id="Vector">
<mask id="path-1-outside-1_6502_32124" maskUnits="userSpaceOnUse" x="-0.396484" y="-0.265625" width="19" height="22" fill="black">
<rect fill="white" x="-0.396484" y="-0.265625" width="19" height="22"/>
<path d="M0.603516 16.1542V13.3207L2.93242 11.9736C2.95396 11.9611 2.96473 11.9429 2.96473 11.9181V10.1186C2.96473 10.0896 2.95231 10.068 2.92745 10.0539L0.603516 8.71177V5.87086L3.01444 4.47649C3.04593 4.45827 3.0857 4.45827 3.11718 4.47649L5.37815 5.78469C5.40218 5.79878 5.42537 5.79878 5.4494 5.78469L7.00698 4.88329C7.03266 4.86837 7.04509 4.846 7.04509 4.81701V2.18818C7.04509 2.15338 7.06 2.1277 7.08983 2.1103L9.44442 0.749909C9.48087 0.729197 9.52561 0.729197 9.56123 0.749909L11.9374 2.1219C11.9622 2.13599 11.9746 2.15753 11.9746 2.18652V4.80209C11.9746 4.84517 11.9978 4.88577 12.0351 4.90731L13.5579 5.78386C13.5794 5.79629 13.606 5.79629 13.6283 5.78386L15.9075 4.46655C15.9282 4.45495 15.9481 4.45495 15.968 4.46655L18.3508 5.83937C18.3781 5.85511 18.3955 5.88494 18.3955 5.91725V8.66704C18.3955 8.70183 18.3806 8.72752 18.3508 8.74492L16.0807 10.0556C16.05 10.073 16.0343 10.0995 16.0343 10.1351V11.8957C16.0343 11.9297 16.0492 11.9553 16.079 11.9727L18.3417 13.2776C18.3748 13.2967 18.3955 13.3323 18.3955 13.3712V16.1252C18.3955 16.1492 18.3847 16.1674 18.364 16.1799L16.0061 17.5419C15.9647 17.5659 15.9133 17.5659 15.8719 17.5419L13.5968 16.2279C13.567 16.2105 13.5372 16.2105 13.5074 16.2279L12.0128 17.0929C11.9896 17.1061 11.9746 17.1318 11.9746 17.1591V19.7706C11.9746 19.817 11.9548 19.8518 11.9142 19.8758L9.52892 21.2552C9.51153 21.2652 9.49496 21.2652 9.47756 21.2552L7.07574 19.8658C7.05669 19.8542 7.04509 19.8344 7.04509 19.812V17.1583C7.04509 17.1343 7.03514 17.1169 7.01443 17.1053L5.49497 16.2271C5.46597 16.2097 5.43614 16.2097 5.40715 16.2271L3.13458 17.5419C3.09315 17.5651 3.04344 17.5651 3.00285 17.5419L0.603516 16.1542ZM11.6109 2.22629C11.6267 2.21718 11.6325 2.1973 11.6242 2.18155C11.6209 2.17575 11.6167 2.17161 11.6109 2.1683L9.51981 0.961176C9.50987 0.955377 9.49661 0.955377 9.48667 0.961176L7.39388 2.16664C7.37814 2.17575 7.37234 2.19564 7.38063 2.21138C7.38394 2.21718 7.38808 2.22132 7.39388 2.22464L9.48584 3.43341C9.49578 3.43921 9.50904 3.43921 9.51898 3.43341L11.6109 2.22629ZM7.29198 2.40111C7.27955 2.39365 7.26298 2.39779 7.25553 2.41105C7.25304 2.41519 7.25221 2.42016 7.25221 2.4243V4.6977C7.25221 4.71262 7.26381 4.72421 7.27872 4.72421C7.28369 4.72421 7.28784 4.72339 7.29198 4.7209L9.25966 3.5842C9.27209 3.57674 9.27706 3.561 9.27043 3.54858C9.26795 3.54443 9.26463 3.54029 9.25966 3.53781L7.29198 2.40111ZM9.75013 3.53615C9.73605 3.5436 9.73108 3.56183 9.73936 3.57592C9.74185 3.58089 9.74599 3.5842 9.75013 3.58669L11.7236 4.72587C11.7377 4.73333 11.7551 4.72836 11.7634 4.71427C11.7659 4.71013 11.7667 4.70516 11.7667 4.70019L11.7684 2.41933C11.7684 2.40359 11.7559 2.39034 11.7394 2.39034C11.7344 2.39034 11.7294 2.39116 11.7253 2.39365L9.75013 3.53615ZM9.34997 6.08378C9.36737 6.09455 9.39056 6.08875 9.40133 6.07052C9.40465 6.06472 9.40631 6.0581 9.40631 6.05147V3.79795C9.40631 3.77724 9.38974 3.76067 9.36902 3.76067C9.3624 3.76067 9.35577 3.76233 9.34997 3.76564L7.40217 4.8924C7.38394 4.90234 7.37814 4.92554 7.38808 4.94294C7.3914 4.94874 7.39637 4.95371 7.40217 4.95702L9.34997 6.08378ZM11.6201 4.94625C11.6325 4.9388 11.6366 4.92223 11.6292 4.9098C11.6267 4.90566 11.6234 4.90317 11.6201 4.90068L9.65403 3.76564C9.6416 3.75819 9.62503 3.76233 9.61757 3.77558C9.61509 3.77973 9.61426 3.78387 9.61426 3.78801L9.61177 6.06224C9.61177 6.07715 9.62337 6.08875 9.63828 6.08875C9.64326 6.08875 9.6474 6.08792 9.65154 6.08544L11.6201 4.94625ZM5.15943 5.95205C5.17682 5.94211 5.18262 5.91974 5.17268 5.90234C5.16937 5.89654 5.16523 5.8924 5.15943 5.88908L3.08404 4.69522C3.07244 4.68859 3.05918 4.68859 3.04758 4.69522L0.963912 5.89902C0.946514 5.90897 0.940714 5.93134 0.950656 5.94873C0.95397 5.95453 0.958113 5.95868 0.963912 5.96199L3.0335 7.15668C3.0451 7.16331 3.05835 7.16331 3.06995 7.15668L5.15943 5.95205ZM17.9829 5.86423L15.9713 4.70267C15.949 4.69025 15.9266 4.69025 15.9042 4.70267L13.8355 5.89737C13.8222 5.90482 13.8181 5.92139 13.8255 5.93465C13.828 5.93879 13.8313 5.94211 13.8355 5.94459L15.9216 7.1484C15.944 7.16083 15.9672 7.16083 15.9895 7.1484L18.031 5.96862C18.0633 5.94956 18.0707 5.92471 18.0517 5.8924C18.0442 5.87997 18.0335 5.87334 18.0185 5.87334C18.0061 5.87334 17.9937 5.87003 17.9829 5.86423ZM15.8272 10.1136C15.8272 10.0887 15.8139 10.0655 15.7924 10.0531L13.5007 8.73C13.4792 8.71757 13.4659 8.69438 13.4659 8.66952V6.00756C13.4659 5.9827 13.4527 5.96033 13.4311 5.94791L11.9001 5.06141C11.8785 5.04899 11.852 5.04899 11.8305 5.06141L9.53721 6.38535C9.51567 6.39778 9.48915 6.39778 9.46761 6.38535L7.17599 5.06224C7.15445 5.04981 7.12794 5.04981 7.1064 5.06224L5.56787 5.95122C5.54633 5.96365 5.53308 5.98602 5.53308 6.01087V8.67449C5.53308 8.69935 5.51982 8.72172 5.49828 8.73414L3.20666 10.0581C3.18511 10.0705 3.17186 10.0929 3.17186 10.1177V11.9114C3.17186 11.9363 3.18511 11.9595 3.20666 11.9719L5.49828 13.295C5.51982 13.3075 5.53308 13.3307 5.53308 13.3555V15.9736C5.53308 15.9984 5.54633 16.0208 5.56787 16.0332L7.1064 16.9247C7.12794 16.9371 7.15445 16.9371 7.17599 16.9247L9.46761 15.5983C9.48915 15.5858 9.51567 15.5858 9.53721 15.5983L11.8288 16.923C11.8504 16.9354 11.8769 16.9354 11.8984 16.923L13.4311 16.0423C13.4527 16.0299 13.4659 16.0067 13.4659 15.9818V13.3588C13.4659 13.334 13.4792 13.3108 13.5007 13.2983L15.7924 11.9769C15.8139 11.9645 15.8272 11.9413 15.8272 11.9164V10.1136ZM0.850408 6.13018C0.837152 6.12272 0.820582 6.12686 0.813126 6.13929C0.81064 6.14343 0.808983 6.1484 0.808983 6.15337L0.811469 8.58584C0.811469 8.59579 0.81644 8.6049 0.824725 8.60987L2.9258 9.82113C2.93905 9.82859 2.95562 9.82445 2.96308 9.81202C2.96556 9.80788 2.96722 9.80291 2.96722 9.79794L2.96308 7.36795C2.96308 7.35801 2.95811 7.3489 2.94982 7.34392L0.850408 6.13018ZM5.3127 8.60656C5.32098 8.60158 5.32595 8.5933 5.32595 8.58419V6.14923C5.32595 6.13432 5.31435 6.12272 5.29944 6.12272C5.29447 6.12272 5.29033 6.12355 5.28619 6.12603L3.18511 7.34475C3.17683 7.34972 3.17186 7.35801 3.17186 7.36712V9.79711C3.17186 9.81202 3.18429 9.82362 3.1992 9.82279C3.20334 9.82279 3.20831 9.82113 3.21163 9.81948L5.3127 8.60656ZM15.8255 7.36132C15.8255 7.35221 15.8205 7.34392 15.8131 7.33895L13.712 6.12438C13.6996 6.11692 13.6838 6.12106 13.6764 6.13349C13.6739 6.13763 13.6722 6.1426 13.6731 6.14675V8.58004C13.6731 8.58916 13.678 8.59744 13.6855 8.60241L15.7907 9.81782C15.8031 9.82528 15.8189 9.82113 15.8263 9.80871C15.8288 9.80456 15.8305 9.79959 15.8296 9.79545L15.8255 7.36132ZM18.2091 6.15006C18.2091 6.13432 18.1967 6.12106 18.1809 6.12023C18.1751 6.12023 18.1702 6.12189 18.1652 6.12438L16.0484 7.34724C16.0393 7.35221 16.0343 7.36215 16.0343 7.37209V9.79711C16.0343 9.81285 16.0467 9.8261 16.0633 9.8261C16.0683 9.8261 16.0732 9.82528 16.0774 9.82279L18.1942 8.60158C18.2033 8.59661 18.2091 8.58667 18.2091 8.57673V6.15006ZM16.0724 12.2047C16.06 12.1981 16.0442 12.2022 16.0376 12.2147C16.0351 12.2188 16.0343 12.2229 16.0343 12.2271V14.5171C16.0343 14.5311 16.0459 14.5427 16.06 14.5427C16.0641 14.5427 16.0683 14.5419 16.0724 14.5394L18.0616 13.3944C18.0741 13.3878 18.0782 13.3721 18.0716 13.3596C18.0691 13.3555 18.0658 13.3522 18.0616 13.3497L16.0724 12.2047ZM0.956456 13.3447C0.941543 13.3538 0.936572 13.3729 0.945685 13.3878C0.948171 13.392 0.952313 13.3961 0.956456 13.3986L2.91751 14.5311C2.93242 14.5394 2.95148 14.5345 2.96059 14.5195C2.96308 14.5146 2.96473 14.5096 2.96473 14.5038V12.2379C2.96556 12.2205 2.95148 12.2064 2.93408 12.2064C2.92828 12.2064 2.92331 12.208 2.91834 12.2105L0.956456 13.3447ZM3.21163 12.2097C3.1992 12.2022 3.18263 12.2064 3.17517 12.2196C3.17269 12.2238 3.17186 12.2287 3.17186 12.2329V14.5113C3.17186 14.5262 3.18346 14.5378 3.19837 14.5378C3.20334 14.5378 3.20748 14.5369 3.21163 14.5345L5.18759 13.3953C5.20002 13.3878 5.20499 13.3721 5.19836 13.3596C5.19588 13.3555 5.19257 13.3514 5.18759 13.3489L3.21163 12.2097ZM15.7849 14.5295C15.7982 14.5369 15.8156 14.5328 15.823 14.5195C15.8255 14.5154 15.8263 14.5104 15.8272 14.5055V12.2387C15.8272 12.2229 15.8139 12.2105 15.799 12.2105C15.794 12.2105 15.7891 12.2122 15.7849 12.2147L13.8239 13.3481C13.8106 13.3563 13.8065 13.3737 13.8147 13.387C13.8172 13.3911 13.8205 13.3936 13.8239 13.3961L15.7849 14.5295ZM5.32595 13.5974C5.32595 13.5817 5.3127 13.5693 5.29778 13.5693C5.29281 13.5693 5.28784 13.5709 5.2837 13.5734L3.33756 14.6968C3.3243 14.7043 3.31933 14.7217 3.32679 14.735C3.32927 14.7391 3.33259 14.7432 3.33756 14.7457L5.28453 15.8708C5.29778 15.8783 5.31518 15.8741 5.32264 15.8609C5.32512 15.8567 5.32678 15.8518 5.32678 15.846V13.5974H5.32595ZM13.7178 13.5684C13.7046 13.561 13.6872 13.5651 13.6797 13.5784C13.6772 13.5825 13.6764 13.5875 13.6756 13.5925L13.6714 15.8485C13.6714 15.8642 13.6847 15.8766 13.6996 15.8766C13.7046 15.8766 13.7095 15.875 13.7137 15.8725L15.6731 14.7482C15.6863 14.7408 15.6913 14.7234 15.6838 14.7101C15.6813 14.706 15.678 14.7018 15.6731 14.6993L13.7178 13.5684ZM0.81064 16.0258C0.81064 16.0357 0.815611 16.0456 0.824725 16.0506L2.92497 17.2627C2.93822 17.2702 2.95562 17.266 2.96308 17.2528C2.96556 17.2486 2.96722 17.2436 2.96722 17.2378L2.96391 14.8112C2.96391 14.8012 2.95894 14.7913 2.94982 14.7863L0.852893 13.5734C0.839638 13.5659 0.822239 13.5701 0.814783 13.5833C0.812297 13.5875 0.811469 13.5925 0.81064 13.5974V16.0258ZM18.2141 13.6248C18.2265 13.619 18.2273 13.6057 18.2157 13.5842C18.2058 13.5651 18.1826 13.5577 18.1635 13.5676C18.1635 13.5676 18.1627 13.5676 18.1619 13.5676L16.0724 14.7756C16.0492 14.7888 16.0343 14.8137 16.0343 14.841V17.2428C16.0343 17.2577 16.0459 17.2702 16.0608 17.271C16.0658 17.271 16.0707 17.2702 16.0757 17.2668L18.1536 16.0655C18.1892 16.0448 18.2108 16.0075 18.2108 15.9661C18.2066 15.1948 18.2074 14.4143 18.2141 13.6239V13.6248ZM3.17103 17.237C3.17103 17.2519 3.18263 17.2644 3.19754 17.2652C3.20251 17.2652 3.20748 17.2644 3.21246 17.261L5.20914 16.1086C5.22239 16.1011 5.22653 16.0846 5.21908 16.0713C5.21659 16.0672 5.21328 16.0639 5.20914 16.0614L3.21328 14.9106C3.20003 14.9031 3.18346 14.9081 3.176 14.9214C3.17352 14.9255 3.17269 14.9297 3.17269 14.9338L3.17103 17.237ZM13.7982 16.0614C13.7849 16.0688 13.7808 16.0854 13.7882 16.0987C13.7907 16.1028 13.794 16.1061 13.7982 16.1086L15.7857 17.2561C15.799 17.2635 15.8156 17.2594 15.823 17.247C15.8255 17.2428 15.8272 17.2378 15.8272 17.232V14.9363C15.8272 14.9214 15.8147 14.9089 15.7998 14.9089C15.7949 14.9089 15.7899 14.9106 15.7857 14.9131L13.7982 16.0614ZM11.5513 17.0034C10.8835 16.6082 10.2133 16.2205 9.53969 15.841C9.51235 15.8253 9.48584 15.8253 9.45933 15.841L7.38891 17.0332C7.374 17.0415 7.36903 17.0606 7.37814 17.0755C7.38063 17.0804 7.38477 17.0837 7.38891 17.0862L9.47176 18.2876C9.49247 18.3 9.51401 18.3 9.53472 18.2876L11.5877 17.1053C11.6043 17.0962 11.6143 17.0788 11.6134 17.0597C11.6134 17.0382 11.6018 17.0233 11.5811 17.0158C11.5662 17.01 11.5563 17.0059 11.5513 17.0034ZM9.61343 20.9222C9.61343 20.9371 9.62669 20.9495 9.6416 20.9487C9.64574 20.9487 9.65071 20.947 9.65403 20.9454L11.7534 19.7358C11.7626 19.7308 11.7675 19.7217 11.7675 19.7117V17.2801C11.7675 17.2652 11.7551 17.2528 11.7402 17.2528C11.7352 17.2528 11.7302 17.2544 11.7261 17.2569L9.62669 18.4707C9.6184 18.4756 9.61343 18.4847 9.61343 18.4947V20.9222ZM9.40631 18.5054C9.40631 18.493 9.39885 18.4814 9.38808 18.4748L7.30192 17.271C7.28535 17.261 7.26298 17.2668 7.25304 17.2834C7.24973 17.2892 7.24807 17.2958 7.24807 17.3025L7.25387 19.7159C7.25387 19.7283 7.2605 19.7399 7.27127 19.7465L9.35328 20.9462C9.37068 20.9561 9.39222 20.9495 9.40216 20.9321C9.40548 20.9271 9.40631 20.9214 9.40631 20.9156V18.5054Z"/>
</mask>
<path d="M0.603516 16.1542V13.3207L2.93242 11.9736C2.95396 11.9611 2.96473 11.9429 2.96473 11.9181V10.1186C2.96473 10.0896 2.95231 10.068 2.92745 10.0539L0.603516 8.71177V5.87086L3.01444 4.47649C3.04593 4.45827 3.0857 4.45827 3.11718 4.47649L5.37815 5.78469C5.40218 5.79878 5.42537 5.79878 5.4494 5.78469L7.00698 4.88329C7.03266 4.86837 7.04509 4.846 7.04509 4.81701V2.18818C7.04509 2.15338 7.06 2.1277 7.08983 2.1103L9.44442 0.749909C9.48087 0.729197 9.52561 0.729197 9.56123 0.749909L11.9374 2.1219C11.9622 2.13599 11.9746 2.15753 11.9746 2.18652V4.80209C11.9746 4.84517 11.9978 4.88577 12.0351 4.90731L13.5579 5.78386C13.5794 5.79629 13.606 5.79629 13.6283 5.78386L15.9075 4.46655C15.9282 4.45495 15.9481 4.45495 15.968 4.46655L18.3508 5.83937C18.3781 5.85511 18.3955 5.88494 18.3955 5.91725V8.66704C18.3955 8.70183 18.3806 8.72752 18.3508 8.74492L16.0807 10.0556C16.05 10.073 16.0343 10.0995 16.0343 10.1351V11.8957C16.0343 11.9297 16.0492 11.9553 16.079 11.9727L18.3417 13.2776C18.3748 13.2967 18.3955 13.3323 18.3955 13.3712V16.1252C18.3955 16.1492 18.3847 16.1674 18.364 16.1799L16.0061 17.5419C15.9647 17.5659 15.9133 17.5659 15.8719 17.5419L13.5968 16.2279C13.567 16.2105 13.5372 16.2105 13.5074 16.2279L12.0128 17.0929C11.9896 17.1061 11.9746 17.1318 11.9746 17.1591V19.7706C11.9746 19.817 11.9548 19.8518 11.9142 19.8758L9.52892 21.2552C9.51153 21.2652 9.49496 21.2652 9.47756 21.2552L7.07574 19.8658C7.05669 19.8542 7.04509 19.8344 7.04509 19.812V17.1583C7.04509 17.1343 7.03514 17.1169 7.01443 17.1053L5.49497 16.2271C5.46597 16.2097 5.43614 16.2097 5.40715 16.2271L3.13458 17.5419C3.09315 17.5651 3.04344 17.5651 3.00285 17.5419L0.603516 16.1542ZM11.6109 2.22629C11.6267 2.21718 11.6325 2.1973 11.6242 2.18155C11.6209 2.17575 11.6167 2.17161 11.6109 2.1683L9.51981 0.961176C9.50987 0.955377 9.49661 0.955377 9.48667 0.961176L7.39388 2.16664C7.37814 2.17575 7.37234 2.19564 7.38063 2.21138C7.38394 2.21718 7.38808 2.22132 7.39388 2.22464L9.48584 3.43341C9.49578 3.43921 9.50904 3.43921 9.51898 3.43341L11.6109 2.22629ZM7.29198 2.40111C7.27955 2.39365 7.26298 2.39779 7.25553 2.41105C7.25304 2.41519 7.25221 2.42016 7.25221 2.4243V4.6977C7.25221 4.71262 7.26381 4.72421 7.27872 4.72421C7.28369 4.72421 7.28784 4.72339 7.29198 4.7209L9.25966 3.5842C9.27209 3.57674 9.27706 3.561 9.27043 3.54858C9.26795 3.54443 9.26463 3.54029 9.25966 3.53781L7.29198 2.40111ZM9.75013 3.53615C9.73605 3.5436 9.73108 3.56183 9.73936 3.57592C9.74185 3.58089 9.74599 3.5842 9.75013 3.58669L11.7236 4.72587C11.7377 4.73333 11.7551 4.72836 11.7634 4.71427C11.7659 4.71013 11.7667 4.70516 11.7667 4.70019L11.7684 2.41933C11.7684 2.40359 11.7559 2.39034 11.7394 2.39034C11.7344 2.39034 11.7294 2.39116 11.7253 2.39365L9.75013 3.53615ZM9.34997 6.08378C9.36737 6.09455 9.39056 6.08875 9.40133 6.07052C9.40465 6.06472 9.40631 6.0581 9.40631 6.05147V3.79795C9.40631 3.77724 9.38974 3.76067 9.36902 3.76067C9.3624 3.76067 9.35577 3.76233 9.34997 3.76564L7.40217 4.8924C7.38394 4.90234 7.37814 4.92554 7.38808 4.94294C7.3914 4.94874 7.39637 4.95371 7.40217 4.95702L9.34997 6.08378ZM11.6201 4.94625C11.6325 4.9388 11.6366 4.92223 11.6292 4.9098C11.6267 4.90566 11.6234 4.90317 11.6201 4.90068L9.65403 3.76564C9.6416 3.75819 9.62503 3.76233 9.61757 3.77558C9.61509 3.77973 9.61426 3.78387 9.61426 3.78801L9.61177 6.06224C9.61177 6.07715 9.62337 6.08875 9.63828 6.08875C9.64326 6.08875 9.6474 6.08792 9.65154 6.08544L11.6201 4.94625ZM5.15943 5.95205C5.17682 5.94211 5.18262 5.91974 5.17268 5.90234C5.16937 5.89654 5.16523 5.8924 5.15943 5.88908L3.08404 4.69522C3.07244 4.68859 3.05918 4.68859 3.04758 4.69522L0.963912 5.89902C0.946514 5.90897 0.940714 5.93134 0.950656 5.94873C0.95397 5.95453 0.958113 5.95868 0.963912 5.96199L3.0335 7.15668C3.0451 7.16331 3.05835 7.16331 3.06995 7.15668L5.15943 5.95205ZM17.9829 5.86423L15.9713 4.70267C15.949 4.69025 15.9266 4.69025 15.9042 4.70267L13.8355 5.89737C13.8222 5.90482 13.8181 5.92139 13.8255 5.93465C13.828 5.93879 13.8313 5.94211 13.8355 5.94459L15.9216 7.1484C15.944 7.16083 15.9672 7.16083 15.9895 7.1484L18.031 5.96862C18.0633 5.94956 18.0707 5.92471 18.0517 5.8924C18.0442 5.87997 18.0335 5.87334 18.0185 5.87334C18.0061 5.87334 17.9937 5.87003 17.9829 5.86423ZM15.8272 10.1136C15.8272 10.0887 15.8139 10.0655 15.7924 10.0531L13.5007 8.73C13.4792 8.71757 13.4659 8.69438 13.4659 8.66952V6.00756C13.4659 5.9827 13.4527 5.96033 13.4311 5.94791L11.9001 5.06141C11.8785 5.04899 11.852 5.04899 11.8305 5.06141L9.53721 6.38535C9.51567 6.39778 9.48915 6.39778 9.46761 6.38535L7.17599 5.06224C7.15445 5.04981 7.12794 5.04981 7.1064 5.06224L5.56787 5.95122C5.54633 5.96365 5.53308 5.98602 5.53308 6.01087V8.67449C5.53308 8.69935 5.51982 8.72172 5.49828 8.73414L3.20666 10.0581C3.18511 10.0705 3.17186 10.0929 3.17186 10.1177V11.9114C3.17186 11.9363 3.18511 11.9595 3.20666 11.9719L5.49828 13.295C5.51982 13.3075 5.53308 13.3307 5.53308 13.3555V15.9736C5.53308 15.9984 5.54633 16.0208 5.56787 16.0332L7.1064 16.9247C7.12794 16.9371 7.15445 16.9371 7.17599 16.9247L9.46761 15.5983C9.48915 15.5858 9.51567 15.5858 9.53721 15.5983L11.8288 16.923C11.8504 16.9354 11.8769 16.9354 11.8984 16.923L13.4311 16.0423C13.4527 16.0299 13.4659 16.0067 13.4659 15.9818V13.3588C13.4659 13.334 13.4792 13.3108 13.5007 13.2983L15.7924 11.9769C15.8139 11.9645 15.8272 11.9413 15.8272 11.9164V10.1136ZM0.850408 6.13018C0.837152 6.12272 0.820582 6.12686 0.813126 6.13929C0.81064 6.14343 0.808983 6.1484 0.808983 6.15337L0.811469 8.58584C0.811469 8.59579 0.81644 8.6049 0.824725 8.60987L2.9258 9.82113C2.93905 9.82859 2.95562 9.82445 2.96308 9.81202C2.96556 9.80788 2.96722 9.80291 2.96722 9.79794L2.96308 7.36795C2.96308 7.35801 2.95811 7.3489 2.94982 7.34392L0.850408 6.13018ZM5.3127 8.60656C5.32098 8.60158 5.32595 8.5933 5.32595 8.58419V6.14923C5.32595 6.13432 5.31435 6.12272 5.29944 6.12272C5.29447 6.12272 5.29033 6.12355 5.28619 6.12603L3.18511 7.34475C3.17683 7.34972 3.17186 7.35801 3.17186 7.36712V9.79711C3.17186 9.81202 3.18429 9.82362 3.1992 9.82279C3.20334 9.82279 3.20831 9.82113 3.21163 9.81948L5.3127 8.60656ZM15.8255 7.36132C15.8255 7.35221 15.8205 7.34392 15.8131 7.33895L13.712 6.12438C13.6996 6.11692 13.6838 6.12106 13.6764 6.13349C13.6739 6.13763 13.6722 6.1426 13.6731 6.14675V8.58004C13.6731 8.58916 13.678 8.59744 13.6855 8.60241L15.7907 9.81782C15.8031 9.82528 15.8189 9.82113 15.8263 9.80871C15.8288 9.80456 15.8305 9.79959 15.8296 9.79545L15.8255 7.36132ZM18.2091 6.15006C18.2091 6.13432 18.1967 6.12106 18.1809 6.12023C18.1751 6.12023 18.1702 6.12189 18.1652 6.12438L16.0484 7.34724C16.0393 7.35221 16.0343 7.36215 16.0343 7.37209V9.79711C16.0343 9.81285 16.0467 9.8261 16.0633 9.8261C16.0683 9.8261 16.0732 9.82528 16.0774 9.82279L18.1942 8.60158C18.2033 8.59661 18.2091 8.58667 18.2091 8.57673V6.15006ZM16.0724 12.2047C16.06 12.1981 16.0442 12.2022 16.0376 12.2147C16.0351 12.2188 16.0343 12.2229 16.0343 12.2271V14.5171C16.0343 14.5311 16.0459 14.5427 16.06 14.5427C16.0641 14.5427 16.0683 14.5419 16.0724 14.5394L18.0616 13.3944C18.0741 13.3878 18.0782 13.3721 18.0716 13.3596C18.0691 13.3555 18.0658 13.3522 18.0616 13.3497L16.0724 12.2047ZM0.956456 13.3447C0.941543 13.3538 0.936572 13.3729 0.945685 13.3878C0.948171 13.392 0.952313 13.3961 0.956456 13.3986L2.91751 14.5311C2.93242 14.5394 2.95148 14.5345 2.96059 14.5195C2.96308 14.5146 2.96473 14.5096 2.96473 14.5038V12.2379C2.96556 12.2205 2.95148 12.2064 2.93408 12.2064C2.92828 12.2064 2.92331 12.208 2.91834 12.2105L0.956456 13.3447ZM3.21163 12.2097C3.1992 12.2022 3.18263 12.2064 3.17517 12.2196C3.17269 12.2238 3.17186 12.2287 3.17186 12.2329V14.5113C3.17186 14.5262 3.18346 14.5378 3.19837 14.5378C3.20334 14.5378 3.20748 14.5369 3.21163 14.5345L5.18759 13.3953C5.20002 13.3878 5.20499 13.3721 5.19836 13.3596C5.19588 13.3555 5.19257 13.3514 5.18759 13.3489L3.21163 12.2097ZM15.7849 14.5295C15.7982 14.5369 15.8156 14.5328 15.823 14.5195C15.8255 14.5154 15.8263 14.5104 15.8272 14.5055V12.2387C15.8272 12.2229 15.8139 12.2105 15.799 12.2105C15.794 12.2105 15.7891 12.2122 15.7849 12.2147L13.8239 13.3481C13.8106 13.3563 13.8065 13.3737 13.8147 13.387C13.8172 13.3911 13.8205 13.3936 13.8239 13.3961L15.7849 14.5295ZM5.32595 13.5974C5.32595 13.5817 5.3127 13.5693 5.29778 13.5693C5.29281 13.5693 5.28784 13.5709 5.2837 13.5734L3.33756 14.6968C3.3243 14.7043 3.31933 14.7217 3.32679 14.735C3.32927 14.7391 3.33259 14.7432 3.33756 14.7457L5.28453 15.8708C5.29778 15.8783 5.31518 15.8741 5.32264 15.8609C5.32512 15.8567 5.32678 15.8518 5.32678 15.846V13.5974H5.32595ZM13.7178 13.5684C13.7046 13.561 13.6872 13.5651 13.6797 13.5784C13.6772 13.5825 13.6764 13.5875 13.6756 13.5925L13.6714 15.8485C13.6714 15.8642 13.6847 15.8766 13.6996 15.8766C13.7046 15.8766 13.7095 15.875 13.7137 15.8725L15.6731 14.7482C15.6863 14.7408 15.6913 14.7234 15.6838 14.7101C15.6813 14.706 15.678 14.7018 15.6731 14.6993L13.7178 13.5684ZM0.81064 16.0258C0.81064 16.0357 0.815611 16.0456 0.824725 16.0506L2.92497 17.2627C2.93822 17.2702 2.95562 17.266 2.96308 17.2528C2.96556 17.2486 2.96722 17.2436 2.96722 17.2378L2.96391 14.8112C2.96391 14.8012 2.95894 14.7913 2.94982 14.7863L0.852893 13.5734C0.839638 13.5659 0.822239 13.5701 0.814783 13.5833C0.812297 13.5875 0.811469 13.5925 0.81064 13.5974V16.0258ZM18.2141 13.6248C18.2265 13.619 18.2273 13.6057 18.2157 13.5842C18.2058 13.5651 18.1826 13.5577 18.1635 13.5676C18.1635 13.5676 18.1627 13.5676 18.1619 13.5676L16.0724 14.7756C16.0492 14.7888 16.0343 14.8137 16.0343 14.841V17.2428C16.0343 17.2577 16.0459 17.2702 16.0608 17.271C16.0658 17.271 16.0707 17.2702 16.0757 17.2668L18.1536 16.0655C18.1892 16.0448 18.2108 16.0075 18.2108 15.9661C18.2066 15.1948 18.2074 14.4143 18.2141 13.6239V13.6248ZM3.17103 17.237C3.17103 17.2519 3.18263 17.2644 3.19754 17.2652C3.20251 17.2652 3.20748 17.2644 3.21246 17.261L5.20914 16.1086C5.22239 16.1011 5.22653 16.0846 5.21908 16.0713C5.21659 16.0672 5.21328 16.0639 5.20914 16.0614L3.21328 14.9106C3.20003 14.9031 3.18346 14.9081 3.176 14.9214C3.17352 14.9255 3.17269 14.9297 3.17269 14.9338L3.17103 17.237ZM13.7982 16.0614C13.7849 16.0688 13.7808 16.0854 13.7882 16.0987C13.7907 16.1028 13.794 16.1061 13.7982 16.1086L15.7857 17.2561C15.799 17.2635 15.8156 17.2594 15.823 17.247C15.8255 17.2428 15.8272 17.2378 15.8272 17.232V14.9363C15.8272 14.9214 15.8147 14.9089 15.7998 14.9089C15.7949 14.9089 15.7899 14.9106 15.7857 14.9131L13.7982 16.0614ZM11.5513 17.0034C10.8835 16.6082 10.2133 16.2205 9.53969 15.841C9.51235 15.8253 9.48584 15.8253 9.45933 15.841L7.38891 17.0332C7.374 17.0415 7.36903 17.0606 7.37814 17.0755C7.38063 17.0804 7.38477 17.0837 7.38891 17.0862L9.47176 18.2876C9.49247 18.3 9.51401 18.3 9.53472 18.2876L11.5877 17.1053C11.6043 17.0962 11.6143 17.0788 11.6134 17.0597C11.6134 17.0382 11.6018 17.0233 11.5811 17.0158C11.5662 17.01 11.5563 17.0059 11.5513 17.0034ZM9.61343 20.9222C9.61343 20.9371 9.62669 20.9495 9.6416 20.9487C9.64574 20.9487 9.65071 20.947 9.65403 20.9454L11.7534 19.7358C11.7626 19.7308 11.7675 19.7217 11.7675 19.7117V17.2801C11.7675 17.2652 11.7551 17.2528 11.7402 17.2528C11.7352 17.2528 11.7302 17.2544 11.7261 17.2569L9.62669 18.4707C9.6184 18.4756 9.61343 18.4847 9.61343 18.4947V20.9222ZM9.40631 18.5054C9.40631 18.493 9.39885 18.4814 9.38808 18.4748L7.30192 17.271C7.28535 17.261 7.26298 17.2668 7.25304 17.2834C7.24973 17.2892 7.24807 17.2958 7.24807 17.3025L7.25387 19.7159C7.25387 19.7283 7.2605 19.7399 7.27127 19.7465L9.35328 20.9462C9.37068 20.9561 9.39222 20.9495 9.40216 20.9321C9.40548 20.9271 9.40631 20.9214 9.40631 20.9156V18.5054Z" fill="#00ADEE"/>
<path d="M0.603516 16.1542V13.3207L2.93242 11.9736C2.95396 11.9611 2.96473 11.9429 2.96473 11.9181V10.1186C2.96473 10.0896 2.95231 10.068 2.92745 10.0539L0.603516 8.71177V5.87086L3.01444 4.47649C3.04593 4.45827 3.0857 4.45827 3.11718 4.47649L5.37815 5.78469C5.40218 5.79878 5.42537 5.79878 5.4494 5.78469L7.00698 4.88329C7.03266 4.86837 7.04509 4.846 7.04509 4.81701V2.18818C7.04509 2.15338 7.06 2.1277 7.08983 2.1103L9.44442 0.749909C9.48087 0.729197 9.52561 0.729197 9.56123 0.749909L11.9374 2.1219C11.9622 2.13599 11.9746 2.15753 11.9746 2.18652V4.80209C11.9746 4.84517 11.9978 4.88577 12.0351 4.90731L13.5579 5.78386C13.5794 5.79629 13.606 5.79629 13.6283 5.78386L15.9075 4.46655C15.9282 4.45495 15.9481 4.45495 15.968 4.46655L18.3508 5.83937C18.3781 5.85511 18.3955 5.88494 18.3955 5.91725V8.66704C18.3955 8.70183 18.3806 8.72752 18.3508 8.74492L16.0807 10.0556C16.05 10.073 16.0343 10.0995 16.0343 10.1351V11.8957C16.0343 11.9297 16.0492 11.9553 16.079 11.9727L18.3417 13.2776C18.3748 13.2967 18.3955 13.3323 18.3955 13.3712V16.1252C18.3955 16.1492 18.3847 16.1674 18.364 16.1799L16.0061 17.5419C15.9647 17.5659 15.9133 17.5659 15.8719 17.5419L13.5968 16.2279C13.567 16.2105 13.5372 16.2105 13.5074 16.2279L12.0128 17.0929C11.9896 17.1061 11.9746 17.1318 11.9746 17.1591V19.7706C11.9746 19.817 11.9548 19.8518 11.9142 19.8758L9.52892 21.2552C9.51153 21.2652 9.49496 21.2652 9.47756 21.2552L7.07574 19.8658C7.05669 19.8542 7.04509 19.8344 7.04509 19.812V17.1583C7.04509 17.1343 7.03514 17.1169 7.01443 17.1053L5.49497 16.2271C5.46597 16.2097 5.43614 16.2097 5.40715 16.2271L3.13458 17.5419C3.09315 17.5651 3.04344 17.5651 3.00285 17.5419L0.603516 16.1542ZM11.6109 2.22629C11.6267 2.21718 11.6325 2.1973 11.6242 2.18155C11.6209 2.17575 11.6167 2.17161 11.6109 2.1683L9.51981 0.961176C9.50987 0.955377 9.49661 0.955377 9.48667 0.961176L7.39388 2.16664C7.37814 2.17575 7.37234 2.19564 7.38063 2.21138C7.38394 2.21718 7.38808 2.22132 7.39388 2.22464L9.48584 3.43341C9.49578 3.43921 9.50904 3.43921 9.51898 3.43341L11.6109 2.22629ZM7.29198 2.40111C7.27955 2.39365 7.26298 2.39779 7.25553 2.41105C7.25304 2.41519 7.25221 2.42016 7.25221 2.4243V4.6977C7.25221 4.71262 7.26381 4.72421 7.27872 4.72421C7.28369 4.72421 7.28784 4.72339 7.29198 4.7209L9.25966 3.5842C9.27209 3.57674 9.27706 3.561 9.27043 3.54858C9.26795 3.54443 9.26463 3.54029 9.25966 3.53781L7.29198 2.40111ZM9.75013 3.53615C9.73605 3.5436 9.73108 3.56183 9.73936 3.57592C9.74185 3.58089 9.74599 3.5842 9.75013 3.58669L11.7236 4.72587C11.7377 4.73333 11.7551 4.72836 11.7634 4.71427C11.7659 4.71013 11.7667 4.70516 11.7667 4.70019L11.7684 2.41933C11.7684 2.40359 11.7559 2.39034 11.7394 2.39034C11.7344 2.39034 11.7294 2.39116 11.7253 2.39365L9.75013 3.53615ZM9.34997 6.08378C9.36737 6.09455 9.39056 6.08875 9.40133 6.07052C9.40465 6.06472 9.40631 6.0581 9.40631 6.05147V3.79795C9.40631 3.77724 9.38974 3.76067 9.36902 3.76067C9.3624 3.76067 9.35577 3.76233 9.34997 3.76564L7.40217 4.8924C7.38394 4.90234 7.37814 4.92554 7.38808 4.94294C7.3914 4.94874 7.39637 4.95371 7.40217 4.95702L9.34997 6.08378ZM11.6201 4.94625C11.6325 4.9388 11.6366 4.92223 11.6292 4.9098C11.6267 4.90566 11.6234 4.90317 11.6201 4.90068L9.65403 3.76564C9.6416 3.75819 9.62503 3.76233 9.61757 3.77558C9.61509 3.77973 9.61426 3.78387 9.61426 3.78801L9.61177 6.06224C9.61177 6.07715 9.62337 6.08875 9.63828 6.08875C9.64326 6.08875 9.6474 6.08792 9.65154 6.08544L11.6201 4.94625ZM5.15943 5.95205C5.17682 5.94211 5.18262 5.91974 5.17268 5.90234C5.16937 5.89654 5.16523 5.8924 5.15943 5.88908L3.08404 4.69522C3.07244 4.68859 3.05918 4.68859 3.04758 4.69522L0.963912 5.89902C0.946514 5.90897 0.940714 5.93134 0.950656 5.94873C0.95397 5.95453 0.958113 5.95868 0.963912 5.96199L3.0335 7.15668C3.0451 7.16331 3.05835 7.16331 3.06995 7.15668L5.15943 5.95205ZM17.9829 5.86423L15.9713 4.70267C15.949 4.69025 15.9266 4.69025 15.9042 4.70267L13.8355 5.89737C13.8222 5.90482 13.8181 5.92139 13.8255 5.93465C13.828 5.93879 13.8313 5.94211 13.8355 5.94459L15.9216 7.1484C15.944 7.16083 15.9672 7.16083 15.9895 7.1484L18.031 5.96862C18.0633 5.94956 18.0707 5.92471 18.0517 5.8924C18.0442 5.87997 18.0335 5.87334 18.0185 5.87334C18.0061 5.87334 17.9937 5.87003 17.9829 5.86423ZM15.8272 10.1136C15.8272 10.0887 15.8139 10.0655 15.7924 10.0531L13.5007 8.73C13.4792 8.71757 13.4659 8.69438 13.4659 8.66952V6.00756C13.4659 5.9827 13.4527 5.96033 13.4311 5.94791L11.9001 5.06141C11.8785 5.04899 11.852 5.04899 11.8305 5.06141L9.53721 6.38535C9.51567 6.39778 9.48915 6.39778 9.46761 6.38535L7.17599 5.06224C7.15445 5.04981 7.12794 5.04981 7.1064 5.06224L5.56787 5.95122C5.54633 5.96365 5.53308 5.98602 5.53308 6.01087V8.67449C5.53308 8.69935 5.51982 8.72172 5.49828 8.73414L3.20666 10.0581C3.18511 10.0705 3.17186 10.0929 3.17186 10.1177V11.9114C3.17186 11.9363 3.18511 11.9595 3.20666 11.9719L5.49828 13.295C5.51982 13.3075 5.53308 13.3307 5.53308 13.3555V15.9736C5.53308 15.9984 5.54633 16.0208 5.56787 16.0332L7.1064 16.9247C7.12794 16.9371 7.15445 16.9371 7.17599 16.9247L9.46761 15.5983C9.48915 15.5858 9.51567 15.5858 9.53721 15.5983L11.8288 16.923C11.8504 16.9354 11.8769 16.9354 11.8984 16.923L13.4311 16.0423C13.4527 16.0299 13.4659 16.0067 13.4659 15.9818V13.3588C13.4659 13.334 13.4792 13.3108 13.5007 13.2983L15.7924 11.9769C15.8139 11.9645 15.8272 11.9413 15.8272 11.9164V10.1136ZM0.850408 6.13018C0.837152 6.12272 0.820582 6.12686 0.813126 6.13929C0.81064 6.14343 0.808983 6.1484 0.808983 6.15337L0.811469 8.58584C0.811469 8.59579 0.81644 8.6049 0.824725 8.60987L2.9258 9.82113C2.93905 9.82859 2.95562 9.82445 2.96308 9.81202C2.96556 9.80788 2.96722 9.80291 2.96722 9.79794L2.96308 7.36795C2.96308 7.35801 2.95811 7.3489 2.94982 7.34392L0.850408 6.13018ZM5.3127 8.60656C5.32098 8.60158 5.32595 8.5933 5.32595 8.58419V6.14923C5.32595 6.13432 5.31435 6.12272 5.29944 6.12272C5.29447 6.12272 5.29033 6.12355 5.28619 6.12603L3.18511 7.34475C3.17683 7.34972 3.17186 7.35801 3.17186 7.36712V9.79711C3.17186 9.81202 3.18429 9.82362 3.1992 9.82279C3.20334 9.82279 3.20831 9.82113 3.21163 9.81948L5.3127 8.60656ZM15.8255 7.36132C15.8255 7.35221 15.8205 7.34392 15.8131 7.33895L13.712 6.12438C13.6996 6.11692 13.6838 6.12106 13.6764 6.13349C13.6739 6.13763 13.6722 6.1426 13.6731 6.14675V8.58004C13.6731 8.58916 13.678 8.59744 13.6855 8.60241L15.7907 9.81782C15.8031 9.82528 15.8189 9.82113 15.8263 9.80871C15.8288 9.80456 15.8305 9.79959 15.8296 9.79545L15.8255 7.36132ZM18.2091 6.15006C18.2091 6.13432 18.1967 6.12106 18.1809 6.12023C18.1751 6.12023 18.1702 6.12189 18.1652 6.12438L16.0484 7.34724C16.0393 7.35221 16.0343 7.36215 16.0343 7.37209V9.79711C16.0343 9.81285 16.0467 9.8261 16.0633 9.8261C16.0683 9.8261 16.0732 9.82528 16.0774 9.82279L18.1942 8.60158C18.2033 8.59661 18.2091 8.58667 18.2091 8.57673V6.15006ZM16.0724 12.2047C16.06 12.1981 16.0442 12.2022 16.0376 12.2147C16.0351 12.2188 16.0343 12.2229 16.0343 12.2271V14.5171C16.0343 14.5311 16.0459 14.5427 16.06 14.5427C16.0641 14.5427 16.0683 14.5419 16.0724 14.5394L18.0616 13.3944C18.0741 13.3878 18.0782 13.3721 18.0716 13.3596C18.0691 13.3555 18.0658 13.3522 18.0616 13.3497L16.0724 12.2047ZM0.956456 13.3447C0.941543 13.3538 0.936572 13.3729 0.945685 13.3878C0.948171 13.392 0.952313 13.3961 0.956456 13.3986L2.91751 14.5311C2.93242 14.5394 2.95148 14.5345 2.96059 14.5195C2.96308 14.5146 2.96473 14.5096 2.96473 14.5038V12.2379C2.96556 12.2205 2.95148 12.2064 2.93408 12.2064C2.92828 12.2064 2.92331 12.208 2.91834 12.2105L0.956456 13.3447ZM3.21163 12.2097C3.1992 12.2022 3.18263 12.2064 3.17517 12.2196C3.17269 12.2238 3.17186 12.2287 3.17186 12.2329V14.5113C3.17186 14.5262 3.18346 14.5378 3.19837 14.5378C3.20334 14.5378 3.20748 14.5369 3.21163 14.5345L5.18759 13.3953C5.20002 13.3878 5.20499 13.3721 5.19836 13.3596C5.19588 13.3555 5.19257 13.3514 5.18759 13.3489L3.21163 12.2097ZM15.7849 14.5295C15.7982 14.5369 15.8156 14.5328 15.823 14.5195C15.8255 14.5154 15.8263 14.5104 15.8272 14.5055V12.2387C15.8272 12.2229 15.8139 12.2105 15.799 12.2105C15.794 12.2105 15.7891 12.2122 15.7849 12.2147L13.8239 13.3481C13.8106 13.3563 13.8065 13.3737 13.8147 13.387C13.8172 13.3911 13.8205 13.3936 13.8239 13.3961L15.7849 14.5295ZM5.32595 13.5974C5.32595 13.5817 5.3127 13.5693 5.29778 13.5693C5.29281 13.5693 5.28784 13.5709 5.2837 13.5734L3.33756 14.6968C3.3243 14.7043 3.31933 14.7217 3.32679 14.735C3.32927 14.7391 3.33259 14.7432 3.33756 14.7457L5.28453 15.8708C5.29778 15.8783 5.31518 15.8741 5.32264 15.8609C5.32512 15.8567 5.32678 15.8518 5.32678 15.846V13.5974H5.32595ZM13.7178 13.5684C13.7046 13.561 13.6872 13.5651 13.6797 13.5784C13.6772 13.5825 13.6764 13.5875 13.6756 13.5925L13.6714 15.8485C13.6714 15.8642 13.6847 15.8766 13.6996 15.8766C13.7046 15.8766 13.7095 15.875 13.7137 15.8725L15.6731 14.7482C15.6863 14.7408 15.6913 14.7234 15.6838 14.7101C15.6813 14.706 15.678 14.7018 15.6731 14.6993L13.7178 13.5684ZM0.81064 16.0258C0.81064 16.0357 0.815611 16.0456 0.824725 16.0506L2.92497 17.2627C2.93822 17.2702 2.95562 17.266 2.96308 17.2528C2.96556 17.2486 2.96722 17.2436 2.96722 17.2378L2.96391 14.8112C2.96391 14.8012 2.95894 14.7913 2.94982 14.7863L0.852893 13.5734C0.839638 13.5659 0.822239 13.5701 0.814783 13.5833C0.812297 13.5875 0.811469 13.5925 0.81064 13.5974V16.0258ZM18.2141 13.6248C18.2265 13.619 18.2273 13.6057 18.2157 13.5842C18.2058 13.5651 18.1826 13.5577 18.1635 13.5676C18.1635 13.5676 18.1627 13.5676 18.1619 13.5676L16.0724 14.7756C16.0492 14.7888 16.0343 14.8137 16.0343 14.841V17.2428C16.0343 17.2577 16.0459 17.2702 16.0608 17.271C16.0658 17.271 16.0707 17.2702 16.0757 17.2668L18.1536 16.0655C18.1892 16.0448 18.2108 16.0075 18.2108 15.9661C18.2066 15.1948 18.2074 14.4143 18.2141 13.6239V13.6248ZM3.17103 17.237C3.17103 17.2519 3.18263 17.2644 3.19754 17.2652C3.20251 17.2652 3.20748 17.2644 3.21246 17.261L5.20914 16.1086C5.22239 16.1011 5.22653 16.0846 5.21908 16.0713C5.21659 16.0672 5.21328 16.0639 5.20914 16.0614L3.21328 14.9106C3.20003 14.9031 3.18346 14.9081 3.176 14.9214C3.17352 14.9255 3.17269 14.9297 3.17269 14.9338L3.17103 17.237ZM13.7982 16.0614C13.7849 16.0688 13.7808 16.0854 13.7882 16.0987C13.7907 16.1028 13.794 16.1061 13.7982 16.1086L15.7857 17.2561C15.799 17.2635 15.8156 17.2594 15.823 17.247C15.8255 17.2428 15.8272 17.2378 15.8272 17.232V14.9363C15.8272 14.9214 15.8147 14.9089 15.7998 14.9089C15.7949 14.9089 15.7899 14.9106 15.7857 14.9131L13.7982 16.0614ZM11.5513 17.0034C10.8835 16.6082 10.2133 16.2205 9.53969 15.841C9.51235 15.8253 9.48584 15.8253 9.45933 15.841L7.38891 17.0332C7.374 17.0415 7.36903 17.0606 7.37814 17.0755C7.38063 17.0804 7.38477 17.0837 7.38891 17.0862L9.47176 18.2876C9.49247 18.3 9.51401 18.3 9.53472 18.2876L11.5877 17.1053C11.6043 17.0962 11.6143 17.0788 11.6134 17.0597C11.6134 17.0382 11.6018 17.0233 11.5811 17.0158C11.5662 17.01 11.5563 17.0059 11.5513 17.0034ZM9.61343 20.9222C9.61343 20.9371 9.62669 20.9495 9.6416 20.9487C9.64574 20.9487 9.65071 20.947 9.65403 20.9454L11.7534 19.7358C11.7626 19.7308 11.7675 19.7217 11.7675 19.7117V17.2801C11.7675 17.2652 11.7551 17.2528 11.7402 17.2528C11.7352 17.2528 11.7302 17.2544 11.7261 17.2569L9.62669 18.4707C9.6184 18.4756 9.61343 18.4847 9.61343 18.4947V20.9222ZM9.40631 18.5054C9.40631 18.493 9.39885 18.4814 9.38808 18.4748L7.30192 17.271C7.28535 17.261 7.26298 17.2668 7.25304 17.2834C7.24973 17.2892 7.24807 17.2958 7.24807 17.3025L7.25387 19.7159C7.25387 19.7283 7.2605 19.7399 7.27127 19.7465L9.35328 20.9462C9.37068 20.9561 9.39222 20.9495 9.40216 20.9321C9.40548 20.9271 9.40631 20.9214 9.40631 20.9156V18.5054Z" stroke="#00ADEE" stroke-width="0.1" mask="url(#path-1-outside-1_6502_32124)"/>
</g>
<path id="Vector_2" d="M7.69298 8.30549C7.8166 8.30549 7.91682 8.20527 7.91682 8.08165C7.91682 7.95803 7.8166 7.85781 7.69298 7.85781C7.56936 7.85781 7.46914 7.95803 7.46914 8.08165C7.46914 8.20527 7.56936 8.30549 7.69298 8.30549Z" fill="#00ADEE" stroke="#00ADEE" stroke-width="0.05"/>
<path id="Vector_3" d="M11.3169 8.31105C11.4409 8.31105 11.5415 8.21047 11.5415 8.08639C11.5415 7.96231 11.4409 7.86172 11.3169 7.86172C11.1928 7.86172 11.0922 7.96231 11.0922 8.08639C11.0922 8.21047 11.1928 8.31105 11.3169 8.31105Z" fill="#00ADEE" stroke="#00ADEE" stroke-width="0.05"/>
<path id="Vector_4" d="M7.89556 8.27831L7.88503 8.28887C7.7645 8.40982 7.76484 8.60558 7.88579 8.72611L8.83885 9.67585C8.9598 9.79638 9.15556 9.79604 9.27609 9.67509L9.28662 9.66452C9.40715 9.54357 9.4068 9.34781 9.28585 9.22728L8.3328 8.27755C8.21185 8.15702 8.01609 8.15736 7.89556 8.27831Z" fill="#00ADEE" stroke="#00ADEE" stroke-width="0.05"/>
<path id="Vector_5" d="M10.6839 8.27881L9.71022 9.25247C9.59724 9.36545 9.59724 9.54862 9.71022 9.66159L9.74068 9.69205C9.85366 9.80503 10.0368 9.80503 10.1498 9.69205L11.1235 8.71839C11.2364 8.60542 11.2364 8.42225 11.1235 8.30928L11.093 8.27881C10.98 8.16584 10.7969 8.16584 10.6839 8.27881Z" fill="#00ADEE" stroke="#00ADEE" stroke-width="0.05"/>
<path id="Vector_6" d="M7.55919 9.27815C7.68281 9.27815 7.78303 9.17793 7.78303 9.05431C7.78303 8.93069 7.68281 8.83047 7.55919 8.83047C7.43557 8.83047 7.33535 8.93069 7.33535 9.05431C7.33535 9.17793 7.43557 9.27815 7.55919 9.27815Z" fill="#00ADEE" stroke="#00ADEE" stroke-width="0.05"/>
<path id="Vector_7" d="M11.4451 9.27258C11.5682 9.27258 11.6681 9.17274 11.6681 9.04957C11.6681 8.92641 11.5682 8.82656 11.4451 8.82656C11.3219 8.82656 11.2221 8.92641 11.2221 9.04957C11.2221 9.17274 11.3219 9.27258 11.4451 9.27258Z" fill="#00ADEE" stroke="#00ADEE" stroke-width="0.05"/>
<path id="Vector_8" d="M6.59811 9.4048C6.72219 9.4048 6.82277 9.30422 6.82277 9.18014C6.82277 9.05606 6.72219 8.95547 6.59811 8.95547C6.47403 8.95547 6.37344 9.05606 6.37344 9.18014C6.37344 9.30422 6.47403 9.4048 6.59811 9.4048Z" fill="#00ADEE" stroke="#00ADEE" stroke-width="0.05"/>
<path id="Vector_9" d="M12.4093 9.40421C12.5343 9.40421 12.6357 9.30288 12.6357 9.17789C12.6357 9.05289 12.5343 8.95156 12.4093 8.95156C12.2843 8.95156 12.183 9.05289 12.183 9.17789C12.183 9.30288 12.2843 9.40421 12.4093 9.40421Z" fill="#00ADEE" stroke="#00ADEE" stroke-width="0.05"/>
<path id="Vector_10" d="M7.77096 9.2474L7.75807 9.26029C7.63862 9.37973 7.63862 9.57339 7.75807 9.69284L8.29704 10.2318C8.41649 10.3513 8.61015 10.3513 8.72959 10.2318L8.74248 10.2189C8.86193 10.0995 8.86193 9.90581 8.74248 9.78637L8.20351 9.2474C8.08406 9.12795 7.8904 9.12795 7.77096 9.2474Z" fill="#00ADEE" stroke="#00ADEE" stroke-width="0.05"/>
<path id="Vector_11" d="M10.7972 9.24522L10.2643 9.77623C10.1447 9.89546 10.1443 10.0891 10.2636 10.2088L10.2788 10.224C10.398 10.3437 10.5917 10.344 10.7113 10.2248L11.2442 9.69378C11.3638 9.57454 11.3642 9.38088 11.2449 9.26123L11.2297 9.24597C11.1105 9.12632 10.9168 9.12598 10.7972 9.24522Z" fill="#00ADEE" stroke="#00ADEE" stroke-width="0.05"/>
<path id="Vector_12" d="M6.80514 9.38021L6.79459 9.39076C6.67385 9.5115 6.67385 9.70725 6.79459 9.82799L7.74482 10.7782C7.86556 10.899 8.06132 10.899 8.18206 10.7782L8.1926 10.7677C8.31334 10.6469 8.31334 10.4512 8.1926 10.3304L7.24238 9.38021C7.12164 9.25947 6.92588 9.25947 6.80514 9.38021Z" fill="#00ADEE" stroke="#00ADEE" stroke-width="0.05"/>
<path id="Vector_13" d="M11.7589 9.37764L10.8122 10.3243C10.6914 10.4451 10.6914 10.6408 10.8122 10.7616L10.8239 10.7733C10.9446 10.894 11.1404 10.894 11.2611 10.7733L12.2078 9.82659C12.3286 9.70585 12.3286 9.51009 12.2078 9.38935L12.1961 9.37764C12.0754 9.2569 11.8796 9.2569 11.7589 9.37764Z" fill="#00ADEE" stroke="#00ADEE" stroke-width="0.05"/>
<path id="Vector_14" d="M7.75224 11.2114L6.79147 12.1722C6.67299 12.2907 6.67299 12.4828 6.79147 12.6012L6.80084 12.6106C6.91932 12.7291 7.1114 12.7291 7.22988 12.6106L8.19065 11.6498C8.30913 11.5314 8.30913 11.3393 8.19065 11.2208L8.18128 11.2114C8.0628 11.093 7.87072 11.093 7.75224 11.2114Z" fill="#00ADEE" stroke="#00ADEE" stroke-width="0.05"/>
<path id="Vector_15" d="M10.8251 11.2089L10.8157 11.2183C10.6946 11.3394 10.6946 11.5356 10.8157 11.6567L11.7647 12.6058C11.8858 12.7268 12.0821 12.7268 12.2032 12.6058L12.2125 12.5964C12.3336 12.4753 12.3336 12.279 12.2125 12.158L11.2635 11.2089C11.1424 11.0879 10.9461 11.0879 10.8251 11.2089Z" fill="#00ADEE" stroke="#00ADEE" stroke-width="0.05"/>
<path id="Vector_16" d="M8.29171 11.7507L7.75649 12.284C7.63684 12.4033 7.6365 12.5969 7.75574 12.7166L7.77094 12.7318C7.89018 12.8515 8.08384 12.8518 8.20349 12.7326L8.73871 12.1993C8.85836 12.08 8.8587 11.8864 8.73946 11.7667L8.72426 11.7514C8.60502 11.6318 8.41136 11.6315 8.29171 11.7507Z" fill="#00ADEE" stroke="#00ADEE" stroke-width="0.05"/>
<path id="Vector_17" d="M10.2807 11.7508L10.2666 11.7648C10.1468 11.8839 10.1461 12.0775 10.2651 12.1974L10.801 12.737C10.9201 12.8569 11.1137 12.8576 11.2336 12.7386L11.2477 12.7245C11.3676 12.6055 11.3682 12.4119 11.2492 12.292L10.7133 11.7523C10.5943 11.6325 10.4006 11.6318 10.2807 11.7508Z" fill="#00ADEE" stroke="#00ADEE" stroke-width="0.05"/>
<path id="Vector_18" d="M8.83631 12.3052L7.88443 13.2538C7.76315 13.3746 7.76281 13.5709 7.88366 13.6922L7.89302 13.7016C8.01387 13.8228 8.21016 13.8232 8.33143 13.7023L9.28331 12.7538C9.40459 12.6329 9.40493 12.4366 9.28408 12.3154L9.27472 12.306C9.15387 12.1847 8.95759 12.1844 8.83631 12.3052Z" fill="#00ADEE" stroke="#00ADEE" stroke-width="0.05"/>
<path id="Vector_19" d="M9.72643 12.3027L9.71705 12.312C9.59599 12.4331 9.59599 12.6294 9.71705 12.7505L10.6685 13.7019C10.7895 13.8229 10.9858 13.8229 11.1069 13.7019L11.1162 13.6925C11.2373 13.5714 11.2373 13.3751 11.1162 13.2541L10.1648 12.3027C10.0438 12.1816 9.84749 12.1816 9.72643 12.3027Z" fill="#00ADEE" stroke="#00ADEE" stroke-width="0.05"/>
<path id="Vector_20" d="M6.59796 13.0276C6.7225 13.0276 6.82345 12.9266 6.82345 12.8021C6.82345 12.6775 6.7225 12.5766 6.59796 12.5766C6.47342 12.5766 6.37246 12.6775 6.37246 12.8021C6.37246 12.9266 6.47342 13.0276 6.59796 13.0276Z" fill="#00ADEE" stroke="#00ADEE" stroke-width="0.05"/>
<path id="Vector_21" d="M12.4111 13.027C12.5366 13.027 12.6383 12.9253 12.6383 12.7998C12.6383 12.6744 12.5366 12.5727 12.4111 12.5727C12.2857 12.5727 12.184 12.6744 12.184 12.7998C12.184 12.9253 12.2857 13.027 12.4111 13.027Z" fill="#00ADEE" stroke="#00ADEE" stroke-width="0.05"/>
<path id="Vector_22" d="M7.56085 13.1604C7.68539 13.1604 7.78634 13.0594 7.78634 12.9349C7.78634 12.8103 7.68539 12.7094 7.56085 12.7094C7.43631 12.7094 7.33535 12.8103 7.33535 12.9349C7.33535 13.0594 7.43631 13.1604 7.56085 13.1604Z" fill="#00ADEE" stroke="#00ADEE" stroke-width="0.05"/>
<path id="Vector_23" d="M11.4423 13.1576C11.565 13.1576 11.6645 13.0582 11.6645 12.9355C11.6645 12.8128 11.565 12.7133 11.4423 12.7133C11.3196 12.7133 11.2201 12.8128 11.2201 12.9355C11.2201 13.0582 11.3196 13.1576 11.4423 13.1576Z" fill="#00ADEE" stroke="#00ADEE" stroke-width="0.05"/>
<path id="Vector_24" d="M7.69073 14.1252C7.81527 14.1252 7.91623 14.0243 7.91623 13.8997C7.91623 13.7752 7.81527 13.6742 7.69073 13.6742C7.56619 13.6742 7.46523 13.7752 7.46523 13.8997C7.46523 14.0243 7.56619 14.1252 7.69073 14.1252Z" fill="#00ADEE" stroke="#00ADEE" stroke-width="0.05"/>
<path id="Vector_25" d="M11.3159 14.1236C11.44 14.1236 11.5405 14.023 11.5405 13.8989C11.5405 13.7748 11.44 13.6742 11.3159 13.6742C11.1918 13.6742 11.0912 13.7748 11.0912 13.8989C11.0912 14.023 11.1918 14.1236 11.3159 14.1236Z" fill="#00ADEE" stroke="#00ADEE" stroke-width="0.05"/>
</g>
</svg>
