<svg width="14" height="15" viewBox="0 0 14 15" fill="none" xmlns="http://www.w3.org/2000/svg">
<g id="edit-user-outline">
<g id="Vector">
<path d="M4.65879 7.13158C4.02088 7.13158 3.3973 6.93711 2.8669 6.57277C2.3365 6.20843 1.9231 5.69057 1.67899 5.08469C1.43487 4.47881 1.371 3.81211 1.49545 3.16891C1.6199 2.52571 1.92708 1.9349 2.37815 1.47117C2.82922 1.00745 3.40391 0.691654 4.02956 0.563713C4.65521 0.435773 5.30372 0.501437 5.89306 0.752401C6.48241 1.00337 6.98614 1.42836 7.34054 1.97364C7.69494 2.51892 7.88411 3.15999 7.88411 3.81579C7.88316 4.69489 7.54304 5.53771 6.93839 6.15933C6.33373 6.78095 5.51391 7.1306 4.65879 7.13158ZM4.65879 1.97369C4.3044 1.97369 3.95796 2.08172 3.6633 2.28414C3.36863 2.48655 3.13896 2.77425 3.00334 3.11085C2.86772 3.44745 2.83224 3.81783 2.90138 4.17517C2.97052 4.5325 3.14117 4.86073 3.39177 5.11836C3.64236 5.37598 3.96163 5.55142 4.30922 5.6225C4.6568 5.69358 5.01708 5.6571 5.3445 5.51767C5.67191 5.37825 5.95176 5.14214 6.14865 4.83921C6.34554 4.53628 6.45063 4.18012 6.45063 3.81579C6.45063 3.32723 6.26185 2.85869 5.92581 2.51323C5.58978 2.16776 5.13402 1.97369 4.65879 1.97369Z" fill="#1F2A37"/>
<path d="M3.66181 13.2923L3.71341 13.0263H1.43347V11.5526C1.43347 10.9664 1.66001 10.4041 2.06326 9.98955C2.4665 9.575 3.01341 9.34211 3.58368 9.34211H4.96627L6.33882 7.93105C6.13927 7.8926 5.9369 7.87164 5.73389 7.86842H3.58368C2.63358 7.86959 1.72272 8.25812 1.05089 8.94879C0.379069 9.63946 0.00113808 10.5759 0 11.5526V13.7632C0 13.9586 0.0755131 14.146 0.209927 14.2842C0.344342 14.4224 0.526646 14.5 0.716737 14.5H3.76932C3.62372 14.1158 3.58646 13.6973 3.66181 13.2923Z" fill="#1F2A37"/>
<path d="M5.76973 14.4632C5.66338 14.4633 5.55833 14.4391 5.4622 14.3923C5.36607 14.3455 5.28127 14.2773 5.21396 14.1927C5.14665 14.108 5.0985 14.009 5.07301 13.9029C5.04753 13.7967 5.04534 13.6861 5.06661 13.5789L5.57406 10.9735C5.60192 10.8308 5.67025 10.6998 5.77045 10.5969L10.331 5.90768C10.7349 5.49431 11.2817 5.26223 11.8516 5.26223C12.4215 5.26223 12.9683 5.49431 13.3722 5.90768C13.7743 6.32292 14 6.88498 14 7.4709C14 8.05681 13.7743 8.61887 13.3722 9.03411L8.81013 13.7226C8.71012 13.8256 8.58268 13.8959 8.44388 13.9245L5.9095 14.4462C5.8635 14.4562 5.81672 14.4619 5.76973 14.4632ZM6.9373 11.4841L6.68357 12.7868L7.95076 12.526L12.3587 7.99516C12.4252 7.9267 12.478 7.84543 12.514 7.756C12.55 7.66658 12.5685 7.57073 12.5685 7.47395C12.5684 7.37717 12.5499 7.28134 12.5138 7.19194C12.4778 7.10253 12.4249 7.02131 12.3583 6.9529C12.2917 6.88448 12.2127 6.83023 12.1257 6.79322C12.0387 6.75622 11.9455 6.73719 11.8513 6.73722C11.7572 6.73725 11.664 6.75635 11.577 6.79342C11.4901 6.83049 11.4111 6.8848 11.3445 6.95326L6.9373 11.4841Z" fill="#1F2A37"/>
</g>
</g>
</svg>
