<svg width="20" height="20" viewBox="0 0 20 20" fill="none" xmlns="http://www.w3.org/2000/svg">
<g id="vuesax/linear/emoji-normal">
<g id="emoji-normal">
<path id="Vector" d="M7.49996 18.3327H12.5C16.6666 18.3327 18.3333 16.666 18.3333 12.4993V7.49935C18.3333 3.33268 16.6666 1.66602 12.5 1.66602H7.49996C3.33329 1.66602 1.66663 3.33268 1.66663 7.49935V12.4993C1.66663 16.666 3.33329 18.3327 7.49996 18.3327Z" stroke="#9CA3AF" stroke-linecap="round" stroke-linejoin="round"/>
<path id="Vector_2" d="M5.83337 6.875C6.66671 7.70833 8.02504 7.70833 8.86671 6.875" stroke="#9CA3AF" stroke-miterlimit="10" stroke-linecap="round" stroke-linejoin="round"/>
<path id="Vector_3" d="M11.1333 6.875C11.9666 7.70833 13.325 7.70833 14.1666 6.875" stroke="#9CA3AF" stroke-miterlimit="10" stroke-linecap="round" stroke-linejoin="round"/>
<path id="Vector_4" d="M7 10.834H13C13.4167 10.834 13.75 11.1673 13.75 11.584C13.75 13.659 12.075 15.334 10 15.334C7.925 15.334 6.25 13.659 6.25 11.584C6.25 11.1673 6.58333 10.834 7 10.834Z" stroke="#9CA3AF" stroke-miterlimit="10" stroke-linecap="round" stroke-linejoin="round"/>
</g>
</g>
</svg>
