<svg width="18" height="19" viewBox="0 0 18 19" fill="none" xmlns="http://www.w3.org/2000/svg">
<g id="vuesax/linear/eye">
<g id="eye">
<path id="Vector" d="M11.6849 9.49945C11.6849 10.9845 10.4849 12.1845 8.99994 12.1845C7.51494 12.1845 6.31494 10.9845 6.31494 9.49945C6.31494 8.01445 7.51494 6.81445 8.99994 6.81445C10.4849 6.81445 11.6849 8.01445 11.6849 9.49945Z" stroke="#6B7280" stroke-width="1.5" stroke-linecap="round" stroke-linejoin="round"/>
<path id="Vector_2" d="M9 15.7016C11.6475 15.7016 14.115 14.1416 15.8325 11.4416C16.5075 10.3841 16.5075 8.60656 15.8325 7.54906C14.115 4.84906 11.6475 3.28906 9 3.28906C6.3525 3.28906 3.885 4.84906 2.1675 7.54906C1.4925 8.60656 1.4925 10.3841 2.1675 11.4416C3.885 14.1416 6.3525 15.7016 9 15.7016Z" stroke="#6B7280" stroke-width="1.5" stroke-linecap="round" stroke-linejoin="round"/>
</g>
</g>
</svg>
