<svg width="20" height="21" viewBox="0 0 20 21" fill="none" xmlns="http://www.w3.org/2000/svg">
<path d="M2.50289 11.3589C2.7362 11.5546 2.98681 11.6304 3.18224 11.5748C3.37754 11.5191 3.55046 11.3225 3.64551 11.0332C3.74026 10.7448 3.75595 10.3684 3.63997 9.96166C3.52399 9.55495 3.31224 9.2434 3.07973 9.04838L2.50289 11.3589ZM2.50289 11.3589C2.27033 11.1639 2.05849 10.8524 1.94251 10.4456C1.82971 10.0501 1.83503 9.63865 1.95536 9.31716M2.50289 11.3589L1.95536 9.31716M1.95536 9.31716C2.01278 9.16392 2.14566 8.90512 2.40027 8.83252L1.95536 9.31716ZM2.04384 7.58236L2.04384 7.58237C1.45445 7.75043 0.978954 8.21751 0.737868 8.86143C0.518447 9.44764 0.502619 10.1368 0.692356 10.8022C0.882092 11.4675 1.25898 12.0447 1.7546 12.4271C2.15078 12.7327 2.60289 12.8932 3.0471 12.8932C3.21327 12.8932 3.37831 12.8707 3.53873 12.825C4.12815 12.6569 4.60357 12.1898 4.84465 11.5459L4.82124 11.5371L4.84466 11.5459C5.06407 10.9597 5.07986 10.2705 4.89017 9.60518C4.70047 8.93984 4.32354 8.36261 3.82792 7.98028C3.28353 7.56036 2.6333 7.41438 2.04384 7.58236ZM7.46152 17.1158L7.46991 17.1394L7.46152 17.1158C7.01366 17.2755 6.58739 17.1762 6.22614 16.8262C5.84229 16.4544 5.68238 15.9385 5.77719 15.3719C6.21559 12.752 7.99521 10.8598 9.99987 10.8598C12.0046 10.8598 13.7842 12.752 14.2226 15.3719C14.3175 15.9386 14.1576 16.4544 13.7738 16.8262C13.4125 17.1762 12.9863 17.2755 12.5384 17.1159C11.7266 16.8265 10.8725 16.6799 9.99991 16.6799C9.12733 16.6799 8.27323 16.8265 7.46152 17.1158ZM16.4612 12.825L16.4681 12.8009L16.4612 12.825C16.6217 12.8707 16.7866 12.8932 16.9528 12.8932C17.3969 12.8932 17.8492 12.7326 18.2453 12.4271C18.7409 12.0448 19.1179 11.4675 19.3075 10.8022C19.4972 10.1368 19.4815 9.44764 19.262 8.86143C19.021 8.21755 18.5455 7.75047 17.9561 7.58237C17.3666 7.41426 16.7163 7.56037 16.172 7.98028C15.6764 8.36257 15.2994 8.9398 15.1097 9.60514C14.92 10.2705 14.9358 10.9597 15.1552 11.5459C15.3963 12.1898 15.8718 12.6568 16.4612 12.825ZM13.6167 11.206C12.609 10.145 11.3247 9.55981 9.99995 9.55981C8.67526 9.55981 7.39087 10.1451 6.38323 11.206C5.42237 12.2176 4.75219 13.621 4.4951 15.1573C4.33025 16.1422 4.63126 17.0912 5.3217 17.76C6.03994 18.4556 6.97944 18.6676 7.89795 18.3404C8.5692 18.1012 9.2764 17.9798 9.99995 17.9798C10.7235 17.9798 11.4307 18.1012 12.102 18.3404C12.3851 18.4413 12.6701 18.4909 12.9505 18.4909C13.5792 18.4909 14.1818 18.2408 14.6782 17.76C15.3687 17.0912 15.6697 16.1422 15.5048 15.1573C15.2478 13.621 14.5776 12.2176 13.6167 11.206ZM12.9836 9.15066C13.684 9.15066 14.3502 8.76104 14.8125 8.08572C15.2314 7.47374 15.4615 6.67272 15.4615 5.83043C15.4615 4.98811 15.2314 4.18708 14.8125 3.5751C14.3502 2.89978 13.684 2.51016 12.9836 2.51016C12.2832 2.51016 11.617 2.89974 11.1547 3.57506C10.7358 4.18704 10.5057 4.98811 10.5057 5.83039C10.5057 6.67268 10.7358 7.4737 11.1548 8.08569C11.617 8.76104 12.2832 9.15066 12.9836 9.15066ZM12.9836 3.81012C13.2558 3.81012 13.5498 4.01192 13.7773 4.36919C14.0041 4.72541 14.1615 5.23196 14.1615 5.83039C14.1615 6.4288 14.0041 6.93535 13.7773 7.29156C13.5498 7.64882 13.2558 7.85063 12.9836 7.85063C12.7114 7.85063 12.4174 7.64882 12.1899 7.29156C11.9631 6.93535 11.8057 6.4288 11.8057 5.83039C11.8057 5.23196 11.9631 4.7254 12.1899 4.36919C12.4174 4.01192 12.7114 3.81012 12.9836 3.81012ZM7.01632 9.15066C7.71673 9.15066 8.38292 8.76104 8.84515 8.08572C9.26412 7.47374 9.49417 6.67272 9.49417 5.83043C9.49417 4.98814 9.26412 4.18708 8.84519 3.5751C8.38292 2.89978 7.71673 2.51016 7.01632 2.51016C6.31591 2.51016 5.64968 2.89978 5.18745 3.5751C4.76848 4.18708 4.53843 4.98811 4.53843 5.83043C4.53843 6.67272 4.76848 7.47374 5.18745 8.08573C5.64968 8.76104 6.31591 9.15066 7.01632 9.15066ZM7.01632 3.81012C7.28851 3.81012 7.58255 4.01192 7.81 4.36919C8.03677 4.7254 8.19417 5.23196 8.19417 5.83039C8.19417 6.4288 8.03677 6.93535 7.81 7.29156C7.58255 7.64882 7.28851 7.85063 7.01632 7.85063C6.74411 7.85063 6.45006 7.64882 6.22261 7.29156C5.99583 6.93535 5.83843 6.4288 5.83843 5.83039C5.83843 5.23196 5.99582 4.7254 6.22259 4.36919C6.45004 4.01192 6.74409 3.81012 7.01632 3.81012ZM18.0574 10.4457C17.9414 10.8524 17.7297 11.1639 17.4971 11.359C17.2639 11.5547 17.0132 11.6305 16.8177 11.5748C16.6224 11.5191 16.4495 11.3225 16.3544 11.0332C16.2596 10.7448 16.2439 10.3684 16.3599 9.96166C16.4635 9.59849 16.6435 9.31115 16.8465 9.11493C17.05 8.91831 17.2746 8.81477 17.4675 8.81477C17.5136 8.81477 17.5579 8.82066 17.5997 8.83256C17.8544 8.90515 17.9872 9.16393 18.0446 9.3172C18.1649 9.63865 18.1702 10.0501 18.0574 10.4457Z" fill="#6B7280" stroke="#6B7280" stroke-width="0.05"/>
</svg>
