<svg width="20" height="21" viewBox="0 0 20 21" fill="none" xmlns="http://www.w3.org/2000/svg">
<g id="pets 1">
<path id="Vector" d="M18.8026 10.6573L18.8023 10.6585C18.6411 11.2273 18.3228 11.7042 17.9253 12.0103L17.925 12.0105C17.6103 12.2531 17.2699 12.3675 16.9534 12.3675C16.8339 12.3675 16.7184 12.3517 16.6039 12.3194C16.1979 12.2029 15.8385 11.8716 15.6476 11.3614L15.6474 11.3607C15.4711 10.8917 15.4528 10.3187 15.6144 9.74783C15.7774 9.17847 16.0959 8.70143 16.4918 8.39537C16.9238 8.0625 17.4043 7.97044 17.8122 8.08631C18.2191 8.20278 18.5803 8.53476 18.7711 9.04452C18.9462 9.51522 18.9653 10.0884 18.8026 10.6573ZM8.41168 7.78816L8.41148 7.78845C8.02715 8.34991 7.51094 8.62486 7.01696 8.62486C6.52105 8.62486 6.00499 8.34978 5.62078 7.78869C5.27039 7.27516 5.06407 6.581 5.06407 5.83006C5.06407 5.0783 5.27043 4.38412 5.62082 3.87062C6.00503 3.30973 6.52104 3.03467 7.01696 3.03467C7.51089 3.03467 8.02714 3.30966 8.41153 3.871L8.41168 3.87121C8.76344 4.38432 8.96985 5.07817 8.96985 5.83006C8.96985 6.58116 8.76346 7.27502 8.41168 7.78816ZM11.5885 3.87121L11.5887 3.87097C11.973 3.30964 12.4892 3.03467 12.9832 3.03467C13.4791 3.03467 13.9952 3.3098 14.3795 3.87076C14.7298 4.38425 14.9361 5.07837 14.9361 5.83006C14.9361 6.58103 14.7298 7.27522 14.3794 7.78875C13.9951 8.3498 13.4791 8.62486 12.9832 8.62486C12.4892 8.62486 11.973 8.34991 11.5887 7.78845L11.5885 7.78816C11.2367 7.27502 11.0303 6.58116 11.0303 5.83006C11.0303 5.07817 11.2367 4.38432 11.5885 3.87121ZM1.19788 10.6585L1.19755 10.6573C1.03484 10.0883 1.05395 9.51494 1.22924 9.04423C1.42024 8.53407 1.77979 8.20278 2.18773 8.08643C2.59571 7.97044 3.07624 8.06246 3.50829 8.39537C3.90432 8.70149 4.22287 9.17862 4.38586 9.74843C4.54735 10.3188 4.52912 10.8917 4.3528 11.3607L4.35254 11.3614C4.1616 11.8718 3.802 12.2032 3.39397 12.3195L3.39363 12.3196C3.28212 12.3515 3.1652 12.3675 3.04677 12.3675C2.73024 12.3675 2.38984 12.2531 2.07514 12.0105L2.07486 12.0103C1.67729 11.7043 1.35902 11.2274 1.19788 10.6585ZM6.7648 11.567L6.76523 11.5666C7.68334 10.598 8.83502 10.0843 10.0001 10.0843C11.1647 10.0843 12.3149 10.5977 13.2372 11.5671C14.1164 12.4941 14.7446 13.7975 14.987 15.2432C15.1246 16.0667 14.8743 16.8393 14.3128 17.3815L14.3119 17.3824C13.9064 17.7758 13.4325 17.9655 12.9502 17.9655C12.7332 17.9655 12.5074 17.927 12.278 17.8455C11.5498 17.5856 10.7829 17.4542 10.0001 17.4542C9.21728 17.4542 8.45035 17.5855 7.72215 17.8455L7.8902 18.3163L7.72271 17.8453C6.99749 18.1032 6.26578 17.9435 5.68612 17.3821L5.68603 17.382C5.1259 16.8397 4.87563 16.067 5.01313 15.2435C5.25556 13.7975 5.88383 12.4941 6.7648 11.567Z" fill="url(#paint0_linear_4236_54914)" stroke="url(#paint1_linear_4236_54914)"/>
</g>
<defs>
<linearGradient id="paint0_linear_4236_54914" x1="7.84827" y1="-7.15302" x2="25.9381" y2="10.8576" gradientUnits="userSpaceOnUse">
<stop offset="0.0444369" stop-color="#FD4077"/>
<stop offset="1" stop-color="#FE7601"/>
</linearGradient>
<linearGradient id="paint1_linear_4236_54914" x1="7.84827" y1="-7.15302" x2="25.9381" y2="10.8576" gradientUnits="userSpaceOnUse">
<stop offset="0.0444369" stop-color="#FD4077"/>
<stop offset="1" stop-color="#FE7601"/>
</linearGradient>
</defs>
</svg>
