<svg width="20" height="21" viewBox="0 0 20 21" fill="none" xmlns="http://www.w3.org/2000/svg">
<g id="pets (1) 1">
<path id="Vector" d="M2.50301 11.3584C2.73633 11.5541 2.98693 11.6299 3.18236 11.5743C3.37766 11.5186 3.55058 11.322 3.64563 11.0327C3.74038 10.7443 3.75608 10.3679 3.6401 9.96117C3.52411 9.55446 3.31236 9.24292 3.07985 9.04789L2.50301 11.3584ZM2.50301 11.3584C2.27045 11.1634 2.05861 10.8519 1.94263 10.4452C1.82983 10.0496 1.83515 9.63816 1.95548 9.31667M2.50301 11.3584L1.95548 9.31667M1.95548 9.31667C2.0129 9.16343 2.14578 8.90463 2.40039 8.83203L1.95548 9.31667ZM2.04396 7.58188L2.04396 7.58188C1.45458 7.74994 0.979076 8.21702 0.73799 8.86094C0.518569 9.44715 0.502741 10.1363 0.692478 10.8017C0.882214 11.467 1.2591 12.0442 1.75473 12.4266C2.1509 12.7322 2.60301 12.8927 3.04722 12.8927C3.21339 12.8927 3.37844 12.8703 3.53885 12.8245C4.12827 12.6564 4.60369 12.1893 4.84478 11.5454L4.82136 11.5367L4.84478 11.5454C5.0642 10.9592 5.07999 10.27 4.89029 9.60469C4.70059 8.93935 4.32367 8.36212 3.82804 7.9798C3.28365 7.55988 2.63342 7.4139 2.04396 7.58188ZM7.46164 17.1153L7.47004 17.1389L7.46164 17.1153C7.01378 17.2751 6.58751 17.1757 6.22626 16.8257C5.84241 16.4539 5.6825 15.938 5.77731 15.3714C6.21571 12.7516 7.99534 10.8593 10 10.8593C12.0047 10.8593 13.7843 12.7516 14.2227 15.3714C14.3176 15.9381 14.1577 16.454 13.7739 16.8257C13.4126 17.1757 12.9864 17.275 12.5385 17.1154C11.7268 16.826 10.8727 16.6794 10 16.6794C9.12745 16.6794 8.27336 16.826 7.46164 17.1153ZM16.4613 12.8245L16.4682 12.8005L16.4613 12.8245C16.6218 12.8702 16.7867 12.8927 16.9529 12.8927C17.3971 12.8927 17.8493 12.7321 18.2454 12.4266C18.741 12.0443 19.118 11.467 19.3077 10.8017C19.4974 10.1363 19.4816 9.44715 19.2622 8.86094C19.0212 8.21706 18.5457 7.74998 17.9562 7.58188C17.3667 7.41378 16.7165 7.55988 16.1721 7.9798C15.6765 8.36208 15.2996 8.93931 15.1099 9.60465C14.9202 10.27 14.936 10.9592 15.1554 11.5454C15.3964 12.1893 15.8719 12.6564 16.4613 12.8245ZM13.6168 11.2055C12.6092 10.1446 11.3248 9.55932 10.0001 9.55932C8.67538 9.55932 7.391 10.1446 6.38335 11.2055C5.42249 12.2171 4.75231 13.6205 4.49522 15.1568C4.33037 16.1417 4.63138 17.0907 5.32182 17.7595C6.04006 18.4552 6.97956 18.6671 7.89807 18.3399C8.56933 18.1007 9.27652 17.9794 10.0001 17.9794C10.7236 17.9794 11.4309 18.1007 12.1022 18.3399C12.3852 18.4408 12.6703 18.4905 12.9506 18.4905C13.5794 18.4904 14.182 18.2403 14.6784 17.7595C15.3688 17.0907 15.6698 16.1417 15.505 15.1568C15.2479 13.6205 14.5777 12.2171 13.6168 11.2055ZM12.9837 9.15018C13.6841 9.15018 14.3503 8.76055 14.8126 8.08523C15.2316 7.47325 15.4616 6.67223 15.4616 5.82994C15.4616 4.98762 15.2316 4.18659 14.8126 3.57461C14.3503 2.89929 13.6841 2.50967 12.9837 2.50967C12.2833 2.50967 11.6171 2.89925 11.1548 3.57457C10.7359 4.18655 10.5059 4.98762 10.5059 5.8299C10.5059 6.67219 10.7359 7.47321 11.1549 8.0852C11.6171 8.76055 12.2833 9.15018 12.9837 9.15018ZM12.9837 3.80963C13.2559 3.80963 13.55 4.01143 13.7774 4.3687C14.0042 4.72492 14.1616 5.23147 14.1616 5.8299C14.1616 6.42831 14.0042 6.93486 13.7774 7.29107C13.55 7.64833 13.2559 7.85014 12.9837 7.85014C12.7115 7.85014 12.4175 7.64834 12.19 7.29107C11.9633 6.93486 11.8059 6.42831 11.8059 5.8299C11.8059 5.23147 11.9633 4.72492 12.19 4.3687C12.4175 4.01143 12.7115 3.80963 12.9837 3.80963ZM7.01644 9.15018C7.71685 9.15018 8.38304 8.76055 8.84527 8.08523C9.26425 7.47325 9.49429 6.67223 9.49429 5.82994C9.49429 4.98766 9.26425 4.18659 8.84531 3.57461C8.38304 2.89929 7.71685 2.50967 7.01644 2.50967C6.31603 2.50967 5.64981 2.89929 5.18757 3.57461C4.7686 4.18659 4.53855 4.98762 4.53855 5.82994C4.53855 6.67223 4.7686 7.47325 5.18757 8.08524C5.64981 8.76055 6.31603 9.15018 7.01644 9.15018ZM7.01644 3.80963C7.28863 3.80963 7.58267 4.01143 7.81012 4.3687C8.03689 4.72492 8.19429 5.23147 8.19429 5.8299C8.19429 6.42831 8.03689 6.93486 7.81012 7.29107C7.58267 7.64834 7.28863 7.85014 7.01644 7.85014C6.74423 7.85014 6.45018 7.64833 6.22273 7.29107C5.99595 6.93486 5.83855 6.42831 5.83855 5.8299C5.83855 5.23147 5.99594 4.72492 6.22272 4.3687C6.45016 4.01143 6.74421 3.80963 7.01644 3.80963ZM18.0575 10.4452C17.9416 10.8519 17.7298 11.1635 17.4973 11.3585C17.264 11.5542 17.0134 11.63 16.8178 11.5743C16.6225 11.5186 16.4496 11.322 16.3545 11.0327C16.2598 10.7444 16.2441 10.3679 16.3601 9.96117C16.4636 9.598 16.6436 9.31066 16.8466 9.11444C17.0501 8.91782 17.2747 8.81428 17.4676 8.81428C17.5137 8.81428 17.558 8.82018 17.5998 8.83207C17.8545 8.90466 17.9874 9.16344 18.0447 9.31671C18.165 9.63816 18.1703 10.0496 18.0575 10.4452Z" fill="url(#paint0_linear_4236_54911)" stroke="#FF8A4C" stroke-width="0.05"/>
</g>
<defs>
<linearGradient id="paint0_linear_4236_54911" x1="4.08113" y1="16.484" x2="15.919" y2="4.64611" gradientUnits="userSpaceOnUse">
<stop stop-color="#FC4422"/>
<stop offset="1" stop-color="#FFBB32"/>
</linearGradient>
</defs>
</svg>
