<svg width="16" height="15" viewBox="0 0 16 15" fill="none" xmlns="http://www.w3.org/2000/svg">
<g id="qr (1) 1" clip-path="url(#clip0_5228_24465)">
<path id="Vector" d="M5.92595 2.70435H4.74077C3.92418 2.70435 3.25929 3.36924 3.25929 4.18584V5.37102C3.25929 6.18761 3.92418 6.8525 4.74077 6.8525H5.92595C6.74255 6.8525 7.40743 6.18761 7.40743 5.37102V4.18584C7.40743 3.36924 6.74255 2.70435 5.92595 2.70435ZM6.22225 5.37102C6.22225 5.53458 6.08951 5.66732 5.92595 5.66732H4.74077C4.57721 5.66732 4.44447 5.53458 4.44447 5.37102V4.18584C4.44447 4.02228 4.57721 3.88954 4.74077 3.88954H5.92595C6.08951 3.88954 6.22225 4.02228 6.22225 4.18584V5.37102ZM10.0741 6.8525H11.2593C12.0759 6.8525 12.7408 6.18761 12.7408 5.37102V4.18584C12.7408 3.36924 12.0759 2.70435 11.2593 2.70435H10.0741C9.25751 2.70435 8.59262 3.36924 8.59262 4.18584V5.37102C8.59262 6.18761 9.25751 6.8525 10.0741 6.8525ZM9.77781 4.18584C9.77781 4.02228 9.91055 3.88954 10.0741 3.88954H11.2593C11.4228 3.88954 11.5556 4.02228 11.5556 4.18584V5.37102C11.5556 5.53458 11.4228 5.66732 11.2593 5.66732H10.0741C9.91055 5.66732 9.77781 5.53458 9.77781 5.37102V4.18584ZM5.92595 8.03769H4.74077C3.92418 8.03769 3.25929 8.70258 3.25929 9.51917V10.7044C3.25929 11.5209 3.92418 12.1858 4.74077 12.1858H5.92595C6.74255 12.1858 7.40743 11.5209 7.40743 10.7044V9.51917C7.40743 8.70258 6.74255 8.03769 5.92595 8.03769ZM6.22225 10.7044C6.22225 10.8679 6.08951 11.0007 5.92595 11.0007H4.74077C4.57721 11.0007 4.44447 10.8679 4.44447 10.7044V9.51917C4.44447 9.35561 4.57721 9.22287 4.74077 9.22287H5.92595C6.08951 9.22287 6.22225 9.35561 6.22225 9.51917V10.7044ZM5.62966 13.9636C5.62966 14.2907 5.36418 14.5562 5.03706 14.5562H3.85188C2.2181 14.5562 0.888916 13.227 0.888916 11.5932V10.4081C0.888916 10.0809 1.1544 9.81547 1.48151 9.81547C1.80862 9.81547 2.0741 10.0809 2.0741 10.4081V11.5932C2.0741 12.5734 2.87173 13.371 3.85188 13.371H5.03706C5.36418 13.371 5.62966 13.6365 5.62966 13.9636ZM15.1111 10.4081V11.5932C15.1111 13.227 13.782 14.5562 12.1482 14.5562H10.963C10.6359 14.5562 10.3704 14.2907 10.3704 13.9636C10.3704 13.6365 10.6359 13.371 10.963 13.371H12.1482C13.1283 13.371 13.926 12.5734 13.926 11.5932V10.4081C13.926 10.0809 14.1914 9.81547 14.5185 9.81547C14.8457 9.81547 15.1111 10.0809 15.1111 10.4081ZM15.1111 3.29695V4.48213C15.1111 4.80924 14.8457 5.07473 14.5185 5.07473C14.1914 5.07473 13.926 4.80924 13.926 4.48213V3.29695C13.926 2.3168 13.1283 1.51917 12.1482 1.51917H10.963C10.6359 1.51917 10.3704 1.25369 10.3704 0.926577C10.3704 0.599466 10.6359 0.333984 10.963 0.333984H12.1482C13.782 0.333984 15.1111 1.66317 15.1111 3.29695ZM0.888916 4.48213V3.29695C0.888916 1.66317 2.2181 0.333984 3.85188 0.333984H5.03706C5.36418 0.333984 5.62966 0.599466 5.62966 0.926577C5.62966 1.25369 5.36418 1.51917 5.03706 1.51917H3.85188C2.87173 1.51917 2.0741 2.3168 2.0741 3.29695V4.48213C2.0741 4.80924 1.80862 5.07473 1.48151 5.07473C1.1544 5.07473 0.888916 4.80924 0.888916 4.48213ZM10.3704 11.2969C10.3704 11.7876 9.97218 12.1858 9.48151 12.1858C8.99084 12.1858 8.59262 11.7876 8.59262 11.2969C8.59262 10.8063 8.99084 10.4081 9.48151 10.4081C9.97218 10.4081 10.3704 10.8063 10.3704 11.2969ZM11.8519 8.03769C12.3425 8.03769 12.7408 8.43591 12.7408 8.92658C12.7408 9.41724 12.3425 9.81547 11.8519 9.81547C11.3612 9.81547 10.963 9.41724 10.963 8.92658C10.963 8.43591 11.3612 8.03769 11.8519 8.03769ZM8.59262 8.92658C8.59262 8.43591 8.99084 8.03769 9.48151 8.03769C9.97218 8.03769 10.3704 8.43591 10.3704 8.92658C10.3704 9.41724 9.97218 9.81547 9.48151 9.81547C8.99084 9.81547 8.59262 9.41724 8.59262 8.92658Z" fill="#6B7280"/>
</g>
<defs>
<clipPath id="clip0_5228_24465">
<rect width="14.2222" height="14.2222" fill="white" transform="translate(0.888916 0.333984)"/>
</clipPath>
</defs>
</svg>
