<svg width="18" height="19" viewBox="0 0 18 19" fill="none" xmlns="http://www.w3.org/2000/svg">
<g id="share-all-outline">
<path id="Vector" d="M7.02772 6.7601L6.60701 6.82768C4.04628 7.23897 2 9.73499 2 12.8269V13.9659C2 14.4884 2.32858 14.885 2.75263 14.9783C2.82008 14.9931 2.88552 15 2.94703 15C3.28019 15 3.60267 14.8032 3.77223 14.419L7.02772 6.7601ZM7.02772 6.7601V6.334M7.02772 6.7601V6.334M7.02772 6.334V5.6698C7.02772 5.13953 7.30317 4.70622 7.71597 4.50878L7.71645 4.50855M7.02772 6.334L7.71645 4.50855M7.71645 4.50855C8.09129 4.32877 8.5248 4.38413 8.85686 4.66711L8.85714 4.66734M7.71645 4.50855L8.85714 4.66734M8.85714 4.66734L13.1387 8.3106L13.1392 8.31104M8.85714 4.66734L13.1392 8.31104M13.1392 8.31104C13.4108 8.54153 13.5756 8.89609 13.5756 9.29335C13.5756 9.69103 13.4103 10.0458 13.1384 10.2765L13.1379 10.277M13.1392 8.31104L13.1379 10.277M13.1379 10.277L8.8563 13.9202L8.85569 13.9207M13.1379 10.277L8.85569 13.9207M8.85569 13.9207C8.52582 14.2023 8.09316 14.258 7.71568 14.0786C7.3035 13.881 7.02772 13.4474 7.02772 12.9178V12.5072V11.8466M8.85569 13.9207L7.02772 11.8466M7.02772 11.8466L6.39191 12.026M7.02772 11.8466L6.39191 12.026M6.39191 12.026C5.24985 12.3483 4.30001 13.222 3.77228 14.4189L6.39191 12.026ZM15.9463 9.63335L11.6099 13.6531L15.9463 9.63335ZM15.9463 9.63335L15.9737 9.65883L16.314 9.29249M15.9463 9.63335L16.314 9.29249M16.314 9.29249L15.9741 8.9258L15.9467 8.95125M16.314 9.29249L15.9467 8.95125M15.9467 8.95125L11.6879 4.99531C11.3433 4.67993 11.3148 4.13742 11.6233 3.78518C11.9327 3.43294 12.4617 3.40209 12.808 3.72005L15.9467 8.95125ZM8.54268 5.31724L7.72941 4.62543L7.71874 5.69308L7.70448 7.11833L7.70446 7.11833V7.12333C7.70446 7.33124 7.54273 7.48037 7.36609 7.48037C4.71444 7.48037 2.67674 9.94841 2.67674 12.826V13.0369V14.712L3.59494 13.311C4.47944 11.9613 5.86461 11.1757 7.36609 11.1757C7.54273 11.1757 7.70446 11.3249 7.70446 11.5328V12.9006V13.9824L8.52844 13.2815L12.7144 9.72047L12.7634 9.67877L12.8003 9.62602C12.8638 9.53516 12.8826 9.44582 12.8889 9.41249C12.8975 9.36676 12.9 9.32391 12.8996 9.28729C12.8992 9.25077 12.8957 9.20676 12.8854 9.1593C12.8774 9.12253 12.8551 9.03313 12.7876 8.94384L12.7545 8.90007L12.7127 8.86451L8.54268 5.31724ZM11.9267 14.5329L11.9261 14.5322C11.7949 14.3844 11.807 14.1523 11.9499 14.0197L16.6539 9.65918L17.0491 9.29287L16.6543 8.92615L12.0282 4.62898L12.0282 4.62897L12.0255 4.62649C11.8829 4.49602 11.8688 4.26397 11.9993 4.11478C12.1251 3.97195 12.3318 3.96166 12.4698 4.08832L12.47 4.08856L17.0953 8.33C17.0953 8.33001 17.0953 8.33002 17.0953 8.33003C17.3485 8.56228 17.4987 8.90187 17.5 9.26301C17.5005 9.62314 17.3522 9.96323 17.1002 10.1967L17.1001 10.1968L12.3972 14.5562C12.3971 14.5564 12.3969 14.5565 12.3968 14.5566C12.3309 14.617 12.2515 14.6452 12.1733 14.6452C12.0832 14.6452 11.9935 14.6084 11.9267 14.5329Z" stroke="#FE9134"/>
</g>
</svg>
