<svg width="14" height="15" viewBox="0 0 14 15" fill="none" xmlns="http://www.w3.org/2000/svg">
<g id="share-all-outline">
<path id="Vector" d="M5.88121 10.8529V10.1456V9.0817C5.88121 8.97912 5.80294 8.91512 5.72914 8.91512C4.60213 8.91512 3.55827 9.50434 2.88895 10.5256L2.15205 11.65C2.15623 11.6511 2.16042 11.652 2.16462 11.653C2.20958 11.6628 2.25252 11.6673 2.29209 11.6673C2.50378 11.6673 2.71672 11.5435 2.83225 11.2817L5.88121 10.8529ZM5.88121 10.8529C5.69559 10.6961 5.57707 10.451 5.57707 10.1589V9.83961V9.17897L4.94127 9.3584C4.01718 9.6192 3.2544 10.3243 2.8323 11.2816L5.88121 10.8529ZM5.15636 5.53188L5.57707 5.46431V5.03821V4.52161C5.57707 4.21961 5.70332 3.96814 5.89958 3.81238L5.89232 4.53861L5.88123 5.64713L5.88121 5.64713V5.65213C5.88121 5.75472 5.80294 5.81872 5.72914 5.81872C3.59076 5.81872 1.97076 7.80377 1.97076 10.0876V10.2516V11.5717C1.79234 11.4563 1.66663 11.2432 1.66663 10.9741V10.0882C1.66663 7.72957 3.22647 5.84185 5.15636 5.53188ZM6.71626 4.16276L6.14853 3.67982C6.37443 3.61006 6.61999 3.65879 6.81656 3.8263L6.81684 3.82654L10.1469 6.66019L10.1475 6.66062C10.3324 6.8176 10.4476 7.0617 10.4476 7.33992C10.4476 7.61838 10.3321 7.86265 10.1468 8.01989L10.1463 8.02033L6.81618 10.854L6.81558 10.8545C6.62067 11.0209 6.37571 11.0699 6.14826 11.0002L6.70518 10.5264L9.96095 7.75676L10.01 7.71506L10.0468 7.6623C10.1096 7.57244 10.1279 7.48465 10.1338 7.45314C10.1421 7.40924 10.1445 7.36849 10.1441 7.33398C10.1437 7.29957 10.1404 7.25768 10.1305 7.21206C10.1229 7.17715 10.1012 7.08933 10.0346 7.0011L10.0015 6.95731L9.95964 6.92175L6.71626 4.16276ZM9.35952 11.3416L9.3589 11.3409C9.2969 11.271 9.30314 11.1594 9.36981 11.0975C9.36983 11.0975 9.36985 11.0975 9.36987 11.0975L13.0286 7.70594L13.4237 7.33963L13.0289 6.97292L9.43083 3.63067L9.43084 3.63066L9.42813 3.62818C9.36219 3.56782 9.35437 3.45639 9.41625 3.38547C9.47324 3.32085 9.5625 3.31738 9.62352 3.37341L9.62377 3.37364L13.2212 6.67254C13.2212 6.67255 13.2212 6.67256 13.2212 6.67256C13.3947 6.83168 13.499 7.06595 13.5 7.31662C13.5002 7.56648 13.3973 7.80106 13.2246 7.96098L13.2245 7.96111L9.56699 11.3515C9.56684 11.3517 9.56668 11.3518 9.56653 11.3519C9.5363 11.3796 9.50157 11.3914 9.46809 11.3914C9.42867 11.3914 9.38958 11.3756 9.35952 11.3416Z" fill="#1F2A37" stroke="#9CA3AF"/>
</g>
</svg>
