<svg width="16" height="16" viewBox="0 0 16 16" fill="none" xmlns="http://www.w3.org/2000/svg">
<g id="vuesax/linear/buy-crypto">
<g id="buy-crypto">
<path id="Vector" d="M14.6667 5.66683C14.6667 8.06016 12.7267 10.0002 10.3333 10.0002C10.22 10.0002 10.1 9.9935 9.98667 9.98684C9.82001 7.8735 8.12666 6.18016 6.01333 6.01349C6.00666 5.90016 6 5.78016 6 5.66683C6 3.2735 7.94 1.3335 10.3333 1.3335C12.7267 1.3335 14.6667 3.2735 14.6667 5.66683Z" stroke="#6B7280" stroke-linecap="round" stroke-linejoin="round"/>
<path id="Vector_2" d="M10.0002 10.3333C10.0002 12.7267 8.06016 14.6667 5.66683 14.6667C3.2735 14.6667 1.3335 12.7267 1.3335 10.3333C1.3335 7.94 3.2735 6 5.66683 6C5.78016 6 5.90016 6.00666 6.01349 6.01333C8.12682 6.17999 9.82017 7.87334 9.98684 9.98667C9.9935 10.1 10.0002 10.22 10.0002 10.3333Z" stroke="#6B7280" stroke-linecap="round" stroke-linejoin="round"/>
<path id="Vector_3" d="M5.08 9.7465L5.66667 8.6665L6.25334 9.7465L7.33333 10.3332L6.25334 10.9198L5.66667 11.9998L5.08 10.9198L4 10.3332L5.08 9.7465Z" stroke="#6B7280" stroke-linecap="round" stroke-linejoin="round"/>
</g>
</g>
</svg>
