<svg width="50" height="49" viewBox="0 0 50 49" fill="none" xmlns="http://www.w3.org/2000/svg">
<path d="M25.0304 40.4583C23.1163 41.1632 20.6857 42.0567 17.6112 43.1961C12.3609 42.4632 6.84357 40.7549 4.45833 36.834C5.32728 34.494 6.08455 32.4436 6.75459 30.6341C11.2494 35.8271 19.1031 39.1251 25.0304 40.4583ZM26.5555 22.944C21.4465 17.8364 14.8683 14.0638 12.1864 16.7511C11.6141 17.3234 11.7868 16.9814 7.81024 27.7741C12.0503 33.8937 22.7638 38.1671 30.2267 38.5423C32.4584 37.703 32.406 37.6611 32.7498 37.3156C36.0389 34.0263 29.8428 26.2298 26.5555 22.944ZM30.8967 35.4624C30.6472 35.7154 29.4869 35.7277 27.4262 34.7103C25.1857 33.6023 22.6295 31.6706 20.2285 29.2695C14.6659 23.7065 13.3659 19.2708 14.036 18.6007C14.1407 18.496 14.3361 18.4402 14.6135 18.4402C16.1159 18.4402 20.0087 20.0997 24.7059 24.7954C27.1068 27.1965 29.0402 29.7529 30.1482 31.9934C31.1654 34.0507 31.148 35.2129 30.8967 35.4624ZM12.8198 44.9743C9.79765 46.098 6.31313 47.3998 2.26676 48.9162C1.2146 49.3035 0.195587 48.281 0.584695 47.234C1.6037 44.5049 2.52325 42.0375 3.3608 39.7865C5.66055 42.4284 9.1189 44.0302 12.8198 44.9743ZM31.3329 3.44566C30.5181 3.58874 29.7311 3.71787 29.1972 3.9866C29.9999 5.21855 31.6767 6.78728 30.6524 8.83588C29.7364 10.6681 27.8327 10.5599 26.1803 10.6175C27.1941 12.003 28.3667 13.4077 27.4628 15.2172C26.5258 17.0931 24.069 17.4822 22.619 17.7178C22.1496 17.7946 21.7134 17.4805 21.6262 17.0146L21.3086 15.301C21.2196 14.8246 21.5407 14.3657 22.017 14.2819C22.8424 14.1371 23.6153 14.0115 24.1528 13.741C23.3466 12.5178 21.6768 10.9333 22.6958 8.89346C23.6101 7.06647 25.512 7.16943 27.1679 7.11184C26.1524 5.72633 24.9816 4.32163 25.8854 2.51209C26.8224 0.637994 29.281 0.24712 30.7275 0.0115485C31.1968 -0.0652303 31.6331 0.248865 31.7186 0.714772L32.0361 2.42834C32.1286 2.90471 31.811 3.3619 31.3329 3.44566ZM47.0717 17.4578L48.7852 17.7754C49.2528 17.8626 49.5652 18.2989 49.4884 18.7665C49.2528 20.2131 48.862 22.6718 46.988 23.6088C45.1786 24.5127 43.7739 23.3418 42.3885 22.3263C42.3309 23.9822 42.4339 25.886 40.607 26.7986C38.5672 27.8177 36.9829 26.1478 35.7597 25.3416C35.4892 25.879 35.3636 26.6521 35.2188 27.4774C35.135 27.9555 34.6761 28.2749 34.1998 28.1859L32.4863 27.8683C32.0187 27.781 31.7063 27.3448 31.7831 26.8754C32.0187 25.4271 32.4095 22.9702 34.2835 22.0314C36.0912 21.1275 37.4976 22.3001 38.883 23.3139C38.9406 21.6614 38.8324 19.7559 40.6646 18.8416C42.713 17.8173 44.2817 19.4942 45.5136 20.2969C45.7823 19.7629 45.9114 18.9759 46.0545 18.161C46.1365 17.6881 46.5937 17.3705 47.0717 17.4578ZM41.8563 33.2934H38.541C38.2514 33.2934 38.0176 33.0596 38.0176 32.7699V31.1994C38.0176 30.9098 38.2514 30.676 38.541 30.676H41.8563C42.146 30.676 42.3798 30.9098 42.3798 31.1994V32.7699C42.3798 33.0596 42.146 33.2934 41.8563 33.2934ZM45.4996 2.36028L43.1545 4.70553C42.9503 4.90969 42.6188 4.90969 42.4147 4.70553L41.3049 3.59398C41.1008 3.38982 41.1008 3.05827 41.3049 2.85411L43.65 0.508866C43.8542 0.304704 44.1857 0.304704 44.3899 0.508866L45.4996 1.61867C45.7038 1.82283 45.7038 2.15438 45.4996 2.36028ZM18.3004 7.99131H16.7301C16.4404 7.99131 16.2066 7.75748 16.2066 7.46782V4.15237C16.2066 3.8627 16.4404 3.62888 16.7301 3.62888H18.3004C18.5901 3.62888 18.8239 3.8627 18.8239 4.15237V7.46782C18.8239 7.75748 18.5901 7.99131 18.3004 7.99131ZM30.8339 19.7786L29.5252 18.9061C29.2792 18.7421 29.2077 18.4105 29.3769 18.168C32.9382 13.1006 39.8043 7.81856 47.0683 7.56379C47.3666 7.55507 47.6144 7.80285 47.6144 8.0995V9.67172C47.6144 9.95091 47.3946 10.169 47.1154 10.1813C41.038 10.4221 34.8122 14.9991 31.5371 19.646C31.3748 19.8781 31.0677 19.9357 30.8339 19.7786Z" fill="white"/>
</svg>
