<svg width="135" height="128" viewBox="0 0 135 128" fill="none" xmlns="http://www.w3.org/2000/svg">
<path d="M64.126 126.5C98.6189 126.5 126.581 98.5178 126.581 64C126.581 29.4822 98.6189 1.5 64.126 1.5C29.633 1.5 1.6709 29.4822 1.6709 64C1.6709 98.5178 29.633 126.5 64.126 126.5Z" fill="white" stroke="url(#paint0_linear_2672_7287)" stroke-width="2" stroke-miterlimit="10"/>
<mask id="mask0_2672_7287" style="mask-type:alpha" maskUnits="userSpaceOnUse" x="0" y="0" width="128" height="128">
<path d="M64.126 126.5C98.6189 126.5 126.581 98.5178 126.581 64C126.581 29.4822 98.6189 1.5 64.126 1.5C29.633 1.5 1.6709 29.4822 1.6709 64C1.6709 98.5178 29.633 126.5 64.126 126.5Z" fill="white" stroke="#D6DCE8" stroke-width="2" stroke-miterlimit="10"/>
</mask>
<g mask="url(#mask0_2672_7287)">
<rect x="10.0637" y="53.5098" width="111.546" height="20.6989" rx="3" fill="url(#paint1_linear_2672_7287)" stroke="url(#paint2_linear_2672_7287)" stroke-width="2"/>
<path opacity="0.6" d="M72.6295 41.745H1.14606C0.221137 41.745 -0.571655 40.9516 -0.571655 40.026V34.6047C-0.571655 33.6791 0.221137 32.8857 1.14606 32.8857H72.6295C73.5544 32.8857 74.3472 33.6791 74.3472 34.6047V40.026C74.3472 40.9516 73.5544 41.745 72.6295 41.745Z" fill="url(#paint3_linear_2672_7287)"/>
<path opacity="0.6" d="M128.654 41.745H83.3329C82.408 41.745 81.6152 40.9516 81.6152 40.026V34.6047C81.6152 33.6791 82.408 32.8857 83.3329 32.8857H128.654C129.579 32.8857 130.372 33.6791 130.372 34.6047V40.026C130.372 40.9516 129.579 41.745 128.654 41.745Z" fill="url(#paint4_linear_2672_7287)"/>
<path opacity="0.6" d="M125.483 68.4539H209.783C210.708 68.4539 211.501 67.6606 211.501 66.735V61.3137C211.501 60.3881 210.708 59.5947 209.783 59.5947H125.483C124.558 59.5947 123.765 60.3881 123.765 61.3137V66.735C123.765 67.6606 124.558 68.4539 125.483 68.4539Z" fill="url(#paint5_linear_2672_7287)"/>
<path d="M59.8127 68.4539H113.458C114.383 68.4539 115.176 67.6606 115.176 66.735V61.3137C115.176 60.3881 114.383 59.5947 113.458 59.5947H59.8127C58.8878 59.5947 58.095 60.3881 58.095 61.3137V66.735C58.2271 67.6606 58.8878 68.4539 59.8127 68.4539Z" fill="url(#paint6_linear_2672_7287)"/>
<path d="M17.2676 68.4539H48.4508C49.3757 68.4539 50.1685 67.6606 50.1685 66.735V61.3137C50.1685 60.3881 49.3757 59.5947 48.4508 59.5947H17.2676C16.3427 59.5947 15.5499 60.3881 15.5499 61.3137V66.735C15.5499 67.6606 16.2106 68.4539 17.2676 68.4539Z" fill="url(#paint7_linear_2672_7287)"/>
<path opacity="0.6" d="M85.4466 85.6436H-2.4212C-3.34612 85.6436 -4.13892 86.4369 -4.13892 87.3625V92.7838C-4.13892 93.7094 -3.34612 94.5028 -2.4212 94.5028H85.5788C86.5037 94.5028 87.2965 93.7094 87.2965 92.7838V87.3625C87.1643 86.4369 86.3716 85.6436 85.4466 85.6436Z" fill="url(#paint8_linear_2672_7287)"/>
<path opacity="0.6" d="M85.4466 8.24683H-2.4212C-3.34612 8.24683 -4.13892 9.04019 -4.13892 9.96578V15.3871C-4.13892 16.3127 -3.34612 17.106 -2.4212 17.106H85.5788C86.5037 17.106 87.2965 16.3127 87.2965 15.3871V9.96578C87.1643 9.04019 86.3716 8.24683 85.4466 8.24683Z" fill="url(#paint9_linear_2672_7287)"/>
<path opacity="0.6" d="M153.892 85.6436H97.736C96.8111 85.6436 96.0183 86.4369 96.0183 87.3625V92.7838C96.0183 93.7094 96.8111 94.5028 97.736 94.5028H153.76C154.685 94.5028 155.478 93.7094 155.478 92.7838V87.3625C155.478 86.4369 154.817 85.6436 153.892 85.6436Z" fill="url(#paint10_linear_2672_7287)"/>
<path opacity="0.6" d="M153.892 8.24683H97.736C96.8111 8.24683 96.0183 9.04019 96.0183 9.96578V15.3871C96.0183 16.3127 96.8111 17.106 97.736 17.106H153.76C154.685 17.106 155.478 16.3127 155.478 15.3871V9.96578C155.478 9.04019 154.817 8.24683 153.892 8.24683Z" fill="url(#paint11_linear_2672_7287)"/>
<path opacity="0.6" d="M81.4826 110.392H137.639C138.564 110.392 139.356 111.185 139.356 112.111V117.532C139.356 118.458 138.564 119.251 137.639 119.251H81.6147C80.6898 119.251 79.897 118.458 79.897 117.532V112.111C79.897 111.185 80.5577 110.392 81.4826 110.392Z" fill="url(#paint12_linear_2672_7287)"/>
<path opacity="0.6" d="M-2.42068 110.392H69.7234C70.6484 110.392 71.4412 111.185 71.4412 112.111V117.532C71.4412 118.458 70.6484 119.251 69.7234 119.251H-2.42068C-3.3456 119.251 -4.13837 118.458 -4.13837 117.532V112.111C-4.13837 111.185 -3.3456 110.392 -2.42068 110.392Z" fill="url(#paint13_linear_2672_7287)"/>
</g>
<path d="M127.104 72.2846L104.627 60.92C103.522 60.3514 102.146 61.3779 102.313 62.6463L106.779 87.4485C106.963 88.6106 108.55 88.9123 109.222 87.8544L112.603 83.3816C113.051 82.6763 114.094 82.6406 114.539 83.2374L120.275 90.9362C120.63 91.4137 121.272 91.4918 121.773 91.1186L126.338 87.7125C126.838 87.3393 126.947 86.7012 126.591 86.2238L120.856 78.5249C120.366 77.8684 120.743 76.9374 121.546 76.7095L126.795 74.7434C127.938 74.4483 128.164 72.7935 127.104 72.2846Z" fill="url(#paint14_linear_2672_7287)" stroke="url(#paint15_linear_2672_7287)" stroke-width="2" stroke-miterlimit="10"/>
<defs>
<linearGradient id="paint0_linear_2672_7287" x1="116.042" y1="124.897" x2="-5.92161" y2="116.989" gradientUnits="userSpaceOnUse">
<stop stop-color="#FEA7C0"/>
<stop offset="1" stop-color="#FFC08A"/>
</linearGradient>
<linearGradient id="paint1_linear_2672_7287" x1="113.029" y1="74.9177" x2="12.3078" y2="42.2243" gradientUnits="userSpaceOnUse">
<stop stop-color="#FEA7C0"/>
<stop offset="1" stop-color="#FFC08A"/>
</linearGradient>
<linearGradient id="paint2_linear_2672_7287" x1="113.739" y1="74.9019" x2="11.1179" y2="45.124" gradientUnits="userSpaceOnUse">
<stop stop-color="#FE7FA4"/>
<stop offset="1" stop-color="#FEA355"/>
</linearGradient>
<linearGradient id="paint3_linear_2672_7287" x1="68.026" y1="41.6314" x2="11.5675" y2="10.6503" gradientUnits="userSpaceOnUse">
<stop stop-color="#FEA7C0"/>
<stop offset="1" stop-color="#FFC08A"/>
</linearGradient>
<linearGradient id="paint4_linear_2672_7287" x1="126.258" y1="41.6314" x2="83.8588" y2="26.4898" gradientUnits="userSpaceOnUse">
<stop stop-color="#FEA7C0"/>
<stop offset="1" stop-color="#FFC08A"/>
</linearGradient>
<linearGradient id="paint5_linear_2672_7287" x1="204.098" y1="68.3404" x2="143.214" y2="29.2154" gradientUnits="userSpaceOnUse">
<stop stop-color="#FEA7C0"/>
<stop offset="1" stop-color="#FFC08A"/>
</linearGradient>
<linearGradient id="paint6_linear_2672_7287" x1="110.717" y1="68.3342" x2="61.6395" y2="49.9914" gradientUnits="userSpaceOnUse">
<stop stop-color="#FE7FA4"/>
<stop offset="1" stop-color="#FEA355"/>
</linearGradient>
<linearGradient id="paint7_linear_2672_7287" x1="47.4639" y1="68.3342" x2="15.1996" y2="61.0207" gradientUnits="userSpaceOnUse">
<stop stop-color="#FE7FA4"/>
<stop offset="1" stop-color="#FEA355"/>
</linearGradient>
<linearGradient id="paint8_linear_2672_7287" x1="79.5816" y1="94.3892" x2="17.6883" y2="52.9383" gradientUnits="userSpaceOnUse">
<stop stop-color="#FEA7C0"/>
<stop offset="1" stop-color="#FFC08A"/>
</linearGradient>
<linearGradient id="paint9_linear_2672_7287" x1="79.5816" y1="16.9925" x2="17.6883" y2="-24.4585" gradientUnits="userSpaceOnUse">
<stop stop-color="#FEA7C0"/>
<stop offset="1" stop-color="#FFC08A"/>
</linearGradient>
<linearGradient id="paint10_linear_2672_7287" x1="150.461" y1="94.3892" x2="101.455" y2="73.0467" gradientUnits="userSpaceOnUse">
<stop stop-color="#FEA7C0"/>
<stop offset="1" stop-color="#FFC08A"/>
</linearGradient>
<linearGradient id="paint11_linear_2672_7287" x1="150.461" y1="16.9925" x2="101.455" y2="-4.35005" gradientUnits="userSpaceOnUse">
<stop stop-color="#FEA7C0"/>
<stop offset="1" stop-color="#FFC08A"/>
</linearGradient>
<linearGradient id="paint12_linear_2672_7287" x1="84.9139" y1="119.137" x2="133.92" y2="97.795" gradientUnits="userSpaceOnUse">
<stop stop-color="#FEA7C0"/>
<stop offset="1" stop-color="#FFC08A"/>
</linearGradient>
<linearGradient id="paint13_linear_2672_7287" x1="2.23865" y1="119.137" x2="58.9624" y2="87.7364" gradientUnits="userSpaceOnUse">
<stop stop-color="#FEA7C0"/>
<stop offset="1" stop-color="#FFC08A"/>
</linearGradient>
<linearGradient id="paint14_linear_2672_7287" x1="132.325" y1="82.6816" x2="111.501" y2="96.7201" gradientUnits="userSpaceOnUse">
<stop stop-color="#FEA7C0"/>
<stop offset="1" stop-color="#FFC08A"/>
</linearGradient>
<linearGradient id="paint15_linear_2672_7287" x1="132.439" y1="82.5661" x2="111.694" y2="96.7025" gradientUnits="userSpaceOnUse">
<stop stop-color="#FE7FA4"/>
<stop offset="1" stop-color="#FEA355"/>
</linearGradient>
</defs>
</svg>
