<svg width="128" height="127" viewBox="0 0 128 127" fill="none" xmlns="http://www.w3.org/2000/svg">
<path d="M64 126C98.493 126 126.455 98.0178 126.455 63.5C126.455 28.9822 98.493 1 64 1C29.507 1 1.54492 28.9822 1.54492 63.5C1.54492 98.0178 29.507 126 64 126Z" fill="url(#paint0_linear_2672_40262)" stroke="url(#paint1_linear_2672_40262)" stroke-width="2" stroke-miterlimit="10"/>
<path d="M84.7917 62.7907C84.7917 68.4653 82.5077 73.5883 78.9636 77.3714C78.7273 77.7655 78.3336 78.0019 77.9398 78.2384C74.1594 81.785 69.0401 83.913 63.5271 83.913C59.1166 83.913 54.9424 82.4943 51.4771 80.1299C50.4532 79.4994 49.5869 78.6324 48.7206 77.8443C44.7827 74.0612 42.4199 68.7018 42.4199 62.7119C42.4199 51.0473 51.9496 41.5107 63.6058 41.5107C75.3408 41.5896 84.7917 51.1261 84.7917 62.7907Z" fill="white"/>
<path d="M84.7918 62.7908C84.7918 69.0171 82.1141 74.4553 77.9399 78.3961C74.1595 81.9427 69.0403 84.0707 63.5272 84.0707C59.1168 84.0707 54.9426 82.6521 51.4772 80.2876C45.8854 76.5045 42.3413 70.1205 42.3413 62.8696C42.3413 51.205 51.871 41.6685 63.5272 41.6685C75.1834 41.6685 84.7918 51.1262 84.7918 62.7908Z" fill="url(#paint2_linear_2672_40262)" stroke="url(#paint3_linear_2672_40262)" stroke-width="2" stroke-miterlimit="10"/>
<path d="M78.9643 77.3713C78.728 77.7654 78.3342 78.0018 77.9404 78.2382C74.16 81.7849 69.0407 83.9129 63.5277 83.9129C59.1172 83.9129 54.9431 82.4942 51.4777 80.1298C50.4539 79.4993 49.5875 78.6323 48.7212 77.8442C49.1937 77.2137 49.9813 76.8196 51.6352 76.1891L52.2653 75.9526C53.5254 75.4797 55.3369 74.8492 57.6208 73.8246C58.0146 73.667 58.2509 73.4305 58.4872 73.1941C58.6447 73.0365 58.7235 72.9577 58.7235 72.7212C58.881 72.4848 58.9597 72.0907 58.9597 71.8543V67.5195C58.8022 67.3618 58.8022 67.3618 58.7235 67.283C58.3297 66.8101 58.0934 66.1796 58.0934 65.3915L57.8571 65.2338C56.7545 65.4703 56.8333 64.3669 56.597 62.0812C56.4395 61.2143 56.597 60.9778 57.0695 60.8202L57.4633 60.3473C56.6757 58.5346 56.3607 56.9583 56.3607 55.6184C56.3607 53.4905 57.2271 52.0718 58.4872 51.4413C57.6996 49.9438 57.6996 49.3921 57.6996 49.3921C57.6996 49.3921 62.11 50.1802 63.6852 49.865C65.5754 49.4709 68.647 50.0226 69.7496 52.5447C71.6398 53.3328 72.2698 54.4362 72.5061 55.6973C72.7424 57.7464 71.6398 59.8744 71.4035 60.7414V60.899C71.6398 61.0567 71.7973 61.2931 71.6398 62.1601C71.4035 64.2881 71.4035 65.5491 70.3796 65.3126L69.3558 67.1254C69.3558 67.3618 69.3558 67.3618 69.1983 67.5195C69.1983 67.9135 69.1983 68.544 69.1983 71.9331C69.1983 72.3271 69.3558 72.8 69.5921 73.0365C69.7496 73.1941 69.7496 73.2729 69.8283 73.2729C70.0646 73.5094 70.3009 73.7458 70.6159 73.7458C73.1362 74.7704 74.9476 75.5585 76.2865 76.0314C77.6254 76.5831 78.4917 76.9772 78.9643 77.3713Z" fill="white"/>
<path d="M78.9643 77.3715C78.728 77.7656 78.3342 78.002 77.9404 78.2385C74.16 81.7851 69.0407 83.9131 63.5277 83.9131C59.1172 83.9131 54.9431 82.4945 51.4777 80.13C50.4539 79.4995 49.5875 78.6325 48.7212 77.8444C49.1937 77.2139 49.9813 76.8198 51.6352 76.1893L52.2653 75.9528C53.5254 75.48 55.3369 74.8494 57.6208 73.8249C58.0146 73.6672 58.2509 73.4308 58.4872 73.1943C59.7473 75.0071 61.795 76.1105 64.1578 76.1105C66.4417 76.1105 68.4894 75.0071 69.7496 73.352C69.9858 73.5884 70.2221 73.8249 70.5371 73.8249C73.0574 74.8494 74.8688 75.6376 76.2077 76.1105C77.6254 76.5834 78.4917 76.9774 78.9643 77.3715Z" fill="url(#paint4_linear_2672_40262)"/>
<path d="M71.2454 60.584C71.4029 60.1111 71.0879 59.3229 70.8516 58.9289C70.8516 58.7712 70.6941 58.7712 70.6941 58.6924C69.8278 56.8797 67.9376 56.2492 66.1261 56.1703C61.4007 55.9339 61.0856 56.8009 59.668 55.5398C60.1405 56.1703 60.1405 57.3526 59.4317 58.6136C58.9592 59.4806 58.0141 60.0323 57.1477 60.2687C55.0213 55.461 56.1239 52.3872 58.1716 51.3627C57.384 49.8652 57.384 49.3135 57.384 49.3135C57.384 49.3135 61.7945 50.1016 63.3696 49.7864C65.2598 49.3923 68.3314 49.944 69.434 52.4661C71.3242 53.2542 71.9542 54.3576 72.1905 55.6186C72.663 57.589 71.4817 59.717 71.2454 60.584Z" fill="url(#paint5_linear_2672_40262)"/>
<path d="M59.1171 71.7755V67.4407C58.9596 67.283 58.9596 67.283 58.8809 67.2042V66.9678C59.1171 67.3618 59.3534 67.7559 59.7472 67.9924L63.1338 70.4356C63.9214 71.0661 65.024 71.0661 65.8116 70.4356L68.9619 67.6771C69.1194 67.5195 69.1981 67.5195 69.3557 67.4407C69.3557 67.8347 69.3557 68.4653 69.3557 71.8543C69.3557 72.0907 69.3557 72.2484 69.5132 72.4848H59.1171C58.9596 72.1695 59.1171 72.0119 59.1171 71.7755Z" fill="url(#paint6_linear_2672_40262)"/>
<g opacity="0.6">
<mask id="mask0_2672_40262" style="mask-type:alpha" maskUnits="userSpaceOnUse" x="0" y="0" width="128" height="127">
<path d="M64 126C98.493 126 126.455 98.0178 126.455 63.5C126.455 28.9822 98.493 1 64 1C29.507 1 1.54492 28.9822 1.54492 63.5C1.54492 98.0178 29.507 126 64 126Z" fill="#F1F3F9" stroke="#D6DCE8" stroke-width="2" stroke-miterlimit="10"/>
</mask>
<g mask="url(#mask0_2672_40262)">
<path d="M38.6393 30.7921C38.6393 35.521 36.6704 39.6982 33.4413 42.6931C32.575 43.4813 31.6299 44.1906 30.5273 44.8211C28.1645 46.2398 25.3292 47.0279 22.3364 47.0279C19.3436 47.0279 16.5084 46.2398 14.1456 44.8211C13.7518 44.5847 13.4368 44.427 13.043 44.1118C8.86883 41.1956 6.1123 36.3091 6.1123 30.7921C6.1123 21.8072 13.4368 14.5563 22.3364 14.5563C31.3936 14.4775 38.6393 21.8072 38.6393 30.7921Z" fill="url(#paint7_linear_2672_40262)" stroke="url(#paint8_linear_2672_40262)" stroke-width="2" stroke-miterlimit="10"/>
<path d="M19.1078 34.4176C19.3441 34.6541 19.5016 34.8905 19.8166 35.127C20.0529 35.3634 20.2104 35.4422 20.4467 35.5999C20.5254 35.6787 20.7617 35.8363 20.8405 35.9151C20.8405 35.9151 20.9192 35.9151 20.9192 35.9939L20.998 36.0728V37.4914C20.998 37.4914 20.998 37.4914 20.9192 37.4126C20.8405 37.3338 20.6042 37.1762 20.5254 37.0973C20.2892 37.0185 20.1316 36.7821 19.8954 36.7033C19.8166 36.7033 19.8166 36.6245 19.6591 36.6245C18.9503 36.2304 18.399 35.8363 18.399 35.2846C18.4777 35.127 18.714 34.8117 19.1078 34.4176ZM32.9692 42.1415C32.3391 40.8016 31.5515 39.6194 30.1339 38.9101C29.4251 38.5948 28.6375 38.2796 27.8499 38.2796C27.6136 38.2796 27.3774 38.2796 27.1411 38.2796C27.0623 38.2796 26.9048 38.2796 26.8261 38.2796C25.7235 38.2007 25.6447 37.9643 25.6447 37.9643V35.6787C26.3535 35.0482 27.0623 34.3388 27.6136 33.7083C28.0862 32.999 28.48 32.2108 28.7163 31.1862C29.5826 30.9498 30.2127 30.1617 30.1339 29.2159C30.1339 28.8218 29.8189 28.4277 29.8189 28.0337C29.8189 27.7972 29.8189 27.6396 29.8189 27.4031C29.8189 27.3243 29.8189 27.0879 29.8189 27.0091C29.8189 26.9303 29.8189 26.6938 29.8189 26.615C29.7401 25.9057 29.5038 25.1963 29.11 24.4082C27.9287 22.2014 25.7235 20.7827 23.1244 20.7827C22.6519 20.7827 22.1006 20.8615 21.628 21.0192C20.7617 21.2556 19.8166 21.6497 19.1078 22.2014C19.029 22.2802 18.7928 22.4378 18.714 22.5955L18.6352 22.6743C17.8477 23.4624 17.1388 24.4082 16.8238 25.5116C16.43 26.615 16.43 27.7184 16.5088 28.8218C16.5088 28.8218 16.5088 28.8218 16.5088 28.9006V28.9794C16.5088 29.2159 16.5875 29.2159 16.5088 29.2947C16.5088 29.3735 16.43 29.3735 16.43 29.5311C16.1937 29.8464 16.115 30.2405 16.3513 30.871C16.745 31.8956 17.3751 31.7379 18.0839 32.2897C18.0839 32.2897 18.0052 32.2896 18.0052 32.3685L17.2964 32.5261C14.0673 33.5507 12.9647 36.2304 14.3823 37.9643C14.8549 38.5948 15.6424 39.0677 16.9026 39.383C16.5875 39.383 16.2725 39.6194 16.115 39.777C14.6973 40.8804 13.831 42.6144 13.5947 44.1907C13.5947 44.2695 13.5947 44.4271 13.5947 44.5059C13.9885 44.7424 14.3035 44.9788 14.6973 45.2152L30.3702 44.8212C31.394 44.1907 31.7878 43.7178 32.7329 42.9296C32.5754 42.3779 33.1267 42.2203 32.9692 42.1415Z" fill="white"/>
<path d="M33.4413 42.6933C32.5749 43.4814 31.6298 44.1907 30.5272 44.8213C28.1645 46.2399 25.3292 47.0281 22.3364 47.0281C19.3436 47.0281 16.5083 46.2399 14.1456 44.8213C13.7518 44.5848 13.4368 44.4272 13.043 44.1119C13.043 44.0331 13.043 43.8755 13.043 43.7967C13.2792 42.2204 14.1456 40.4865 15.5632 39.383C15.7995 39.1466 16.0358 39.0678 16.3508 38.989C15.1694 38.7525 14.3819 38.2796 13.8305 37.5703H17.6109C18.7135 39.0678 20.4462 39.9348 22.4152 39.9348C24.1478 39.9348 25.6442 39.2254 26.7469 38.122C26.8256 38.122 26.9831 38.122 27.0619 38.122C27.2982 38.122 27.4557 38.122 27.7707 38.122C28.5583 38.122 29.3459 38.3585 30.0547 38.7525C31.4723 39.4619 32.4174 40.6441 33.1262 42.0627C33.3625 42.2992 33.3625 42.5356 33.4413 42.6933Z" fill="url(#paint9_linear_2672_40262)"/>
<path d="M29.8979 27.0087C28.7166 27.4028 27.2989 27.6392 26.0388 27.4816C23.9123 27.2451 21.9434 26.457 20.3682 25.1171C19.8957 26.6146 18.5568 27.718 17.0604 28.4274C16.8241 28.5062 16.6666 28.6638 16.4303 28.6638C16.4303 28.6638 16.4303 28.6638 16.4303 28.585C16.3516 27.4816 16.3516 26.3782 16.7453 25.2748C17.0604 24.1714 17.7692 23.3044 18.5568 22.4375L18.6355 22.3586C18.7143 22.2798 18.9506 22.1222 19.0293 21.9646C19.7381 21.334 20.6045 20.94 21.5496 20.7823C22.0221 20.7035 22.5734 20.5459 23.046 20.5459C25.645 20.5459 27.929 21.9646 29.0316 24.1714C29.4254 24.9595 29.6617 25.7477 29.7404 26.3782C29.8979 26.6934 29.8979 26.8511 29.8979 27.0087Z" fill="url(#paint10_linear_2672_40262)"/>
<path d="M21.8642 41.8262C21.2341 42.5356 20.289 42.5356 19.3439 42.5356C20.2103 41.6686 19.7377 38.7525 16.5086 39.0677C12.0982 38.2796 12.492 33.6295 16.9024 32.2897L17.6112 32.0532L17.69 32.132C18.005 32.999 18.4776 33.866 18.9501 34.4177C17.1387 35.9151 19.659 36.3092 20.8403 37.4914C21.9429 38.1219 22.888 40.5652 21.8642 41.8262Z" fill="url(#paint11_linear_2672_40262)"/>
<path d="M121.965 34.1021C121.965 38.9097 119.996 43.2446 117.004 46.476C116.767 46.7912 116.452 47.0277 116.137 47.2641C112.908 50.2591 108.655 52.0718 103.93 52.0718C100.149 52.0718 96.6053 50.8896 93.77 48.8404C92.9037 48.2887 92.1949 47.5794 91.4073 46.87C88.0995 43.6386 86.0518 39.1462 86.0518 34.1021C86.0518 24.2502 94.0851 16.1323 103.93 16.1323C113.932 16.1323 121.965 24.2502 121.965 34.1021Z" fill="url(#paint12_linear_2672_40262)"/>
<path d="M121.965 34.1019C121.965 39.3824 119.681 43.9537 116.137 47.3427C112.908 50.3377 108.655 52.1504 103.93 52.1504C100.149 52.1504 96.6053 50.9682 93.77 48.919C89.0446 45.6876 86.0518 40.3282 86.0518 34.1807C86.0518 24.3288 94.0851 16.2109 103.93 16.2109C113.775 16.2898 121.965 24.25 121.965 34.1019Z" fill="url(#paint13_linear_2672_40262)" stroke="url(#paint14_linear_2672_40262)" stroke-width="2" stroke-miterlimit="10"/>
<path d="M117.004 46.4761C116.767 46.7914 116.452 47.0278 116.137 47.2643C112.908 50.2592 108.655 52.072 103.93 52.072C100.149 52.072 96.6053 50.8897 93.77 48.8406C92.9036 48.2889 92.1948 47.5795 91.4072 46.8702C91.801 46.3185 92.5098 46.0032 93.8487 45.4515L94.4 45.2151C95.5026 44.821 96.999 44.2693 98.8892 43.4024C99.2043 43.3235 99.4405 43.0871 99.6768 42.8507C99.7556 42.7718 99.9131 42.6142 99.9131 42.4566C99.9918 42.2201 100.149 41.9049 100.149 41.6684V38.043C100.071 37.9642 100.071 37.9642 99.9131 37.8065C99.5981 37.4124 99.3618 36.8607 99.3618 36.2302L99.1255 36.1514C98.1804 36.3879 98.2592 35.3633 98.0229 33.4717C97.9441 32.6836 98.0229 32.5259 98.4167 32.3683L98.7317 31.9742C98.1017 30.4768 97.7866 29.0581 97.7866 28.0335C97.7866 26.2208 98.5742 25.0386 99.5981 24.4869C98.968 23.2258 98.968 22.7529 98.968 22.7529C98.968 22.7529 102.748 23.3834 104.009 23.147C105.584 22.8317 108.183 23.2258 109.128 25.4326C110.703 26.0631 111.254 27.0089 111.491 28.1123C111.727 29.8462 110.703 31.659 110.545 32.3683V32.5259C110.782 32.6048 110.86 32.8412 110.782 33.6293C110.545 35.4421 110.545 36.5455 109.679 36.309L108.813 37.8065C108.813 38.043 108.813 38.043 108.734 38.1218C108.734 38.437 108.734 38.9887 108.734 41.9049C108.734 42.2201 108.813 42.693 109.049 42.8507C109.128 42.9295 109.128 43.0871 109.285 43.0871C109.522 43.3235 109.679 43.4812 109.915 43.4812C112.042 44.3481 113.538 44.9787 114.72 45.4515C115.822 45.8456 116.61 46.1609 117.004 46.4761Z" fill="white"/>
<path d="M117.004 46.4761C116.767 46.7913 116.452 47.0278 116.137 47.2642C112.908 50.2592 108.655 52.0719 103.93 52.0719C100.149 52.0719 96.6053 50.8897 93.77 48.8405C92.9036 48.2888 92.1948 47.5795 91.4072 46.8701C91.801 46.3184 92.5098 46.0032 93.8487 45.4515L94.4 45.215C95.5026 44.821 96.999 44.2692 98.8892 43.4023C99.2043 43.3235 99.4405 43.087 99.6768 42.8506C100.779 44.3481 102.433 45.2938 104.481 45.2938C106.45 45.2938 108.104 44.3481 109.207 42.9294C109.443 43.1658 109.6 43.3235 109.837 43.3235C111.963 44.1904 113.459 44.821 114.641 45.2938C115.822 45.8455 116.61 46.1608 117.004 46.4761Z" fill="url(#paint15_linear_2672_40262)"/>
<path d="M110.467 32.2895C110.546 31.8954 110.388 31.1861 110.152 30.8708C110.152 30.792 110.073 30.792 110.073 30.6344C109.286 29.1369 107.711 28.5852 106.214 28.5064C102.276 28.27 101.961 29.0581 100.78 27.9547C101.174 28.5064 101.174 29.4522 100.544 30.5556C100.15 31.3437 99.3622 31.7378 98.5746 31.9742C96.7632 27.8759 97.7083 25.3538 99.441 24.4869C98.8109 23.2258 98.8109 22.7529 98.8109 22.7529C98.8109 22.7529 102.591 23.3834 103.851 23.147C105.427 22.8317 108.026 23.2258 108.971 25.4326C110.546 26.0631 111.097 27.0089 111.333 28.1123C111.648 29.6886 110.703 31.5014 110.467 32.2895Z" fill="url(#paint16_linear_2672_40262)"/>
<path d="M53.0527 103.538C53.0527 108.03 51.2413 112.05 48.4847 115.045C48.2485 115.36 48.0122 115.518 47.6972 115.754C44.7044 118.592 40.6877 120.247 36.2773 120.247C32.8119 120.247 29.5041 119.143 26.7475 117.252C25.96 116.779 25.2511 116.069 24.5423 115.439C21.4708 112.444 19.5806 108.267 19.5806 103.538C19.5806 94.3166 27.0626 86.8292 36.2773 86.8292C45.5707 86.7504 53.0527 94.3166 53.0527 103.538Z" fill="url(#paint17_linear_2672_40262)"/>
<path d="M53.0524 103.538C53.0524 108.425 50.9259 112.759 47.6181 115.833C44.6253 118.67 40.6086 120.326 36.1982 120.326C32.7328 120.326 29.425 119.222 26.6684 117.331C22.258 114.336 19.5015 109.292 19.5015 103.617C19.5015 94.3956 26.9835 86.9082 36.1982 86.9082C45.4916 86.9082 53.0524 94.3168 53.0524 103.538Z" fill="url(#paint18_linear_2672_40262)" stroke="url(#paint19_linear_2672_40262)" stroke-width="2" stroke-miterlimit="10"/>
<path d="M48.4844 115.045C48.2481 115.36 48.0119 115.518 47.6968 115.754C44.704 118.592 40.6874 120.247 36.2769 120.247C32.8116 120.247 29.5037 119.143 26.7472 117.252C25.9596 116.779 25.2508 116.07 24.542 115.439C24.9358 114.966 25.5658 114.651 26.826 114.099L27.2985 113.863C28.3224 113.469 29.6613 112.996 31.4727 112.129C31.7877 112.05 31.9452 111.814 32.1815 111.656C32.2603 111.577 32.4178 111.42 32.4178 111.262C32.4965 111.026 32.6541 110.789 32.6541 110.553V107.164C32.5753 107.085 32.5753 107.085 32.4178 106.927C32.1028 106.533 31.9452 106.06 31.9452 105.43L31.709 105.351C30.8426 105.587 30.9214 104.642 30.6851 102.829C30.6064 102.119 30.6851 101.962 31.0789 101.804L31.3939 101.41C30.7639 99.9915 30.5276 98.7304 30.5276 97.7058C30.5276 95.9719 31.2364 94.8685 32.2603 94.3956C31.6302 93.2134 31.6302 92.8193 31.6302 92.8193C31.6302 92.8193 35.0956 93.4499 36.3557 93.2134C37.8521 92.8982 40.2148 93.2922 41.1599 95.3414C42.6563 95.9719 43.1289 96.8389 43.3651 97.8635C43.6014 99.4398 42.6563 101.174 42.4988 101.883V101.962C42.7351 102.041 42.8138 102.277 42.7351 102.986C42.4988 104.72 42.4988 105.666 41.7112 105.508L40.9236 106.927C40.9236 107.164 40.9236 107.164 40.8449 107.242C40.8449 107.558 40.8449 108.031 40.8449 110.71C40.8449 111.026 40.9236 111.42 41.1599 111.577C41.2387 111.656 41.2387 111.814 41.3962 111.814C41.6325 112.05 41.79 112.208 42.0263 112.208C43.9952 112.996 45.4129 113.626 46.5155 114.02C47.3818 114.415 48.0906 114.73 48.4844 115.045Z" fill="white"/>
<path d="M48.4844 115.045C48.2481 115.36 48.0119 115.518 47.6968 115.754C44.704 118.591 40.6874 120.247 36.2769 120.247C32.8116 120.247 29.5037 119.143 26.7472 117.252C25.9596 116.779 25.2508 116.069 24.542 115.439C24.9358 114.966 25.5658 114.651 26.826 114.099L27.2985 113.863C28.3224 113.469 29.6613 112.996 31.4727 112.129C31.7877 112.05 31.9452 111.813 32.1815 111.656C33.2054 113.074 34.7805 113.941 36.6707 113.941C38.4822 113.941 40.0573 113.074 41.0812 111.735C41.3174 111.971 41.475 112.129 41.7112 112.129C43.6802 112.917 45.0978 113.547 46.2004 113.941C47.3818 114.414 48.0906 114.73 48.4844 115.045Z" fill="url(#paint20_linear_2672_40262)"/>
<path d="M42.3412 101.804C42.42 101.41 42.2625 100.779 42.0262 100.464C42.0262 100.385 41.9474 100.385 41.9474 100.228C41.2386 98.809 39.7422 98.3362 38.3246 98.2573C34.623 98.0209 34.3079 98.7302 33.2053 97.7845C33.5991 98.2573 33.5991 99.2031 32.969 100.149C32.5752 100.858 31.8664 101.252 31.1576 101.489C29.4249 97.7056 30.37 95.2624 31.9452 94.4742C31.3151 93.292 31.3151 92.8979 31.3151 92.8979C31.3151 92.8979 34.7805 93.5285 36.0406 93.292C37.537 92.9768 39.8997 93.3708 40.8448 95.42C42.3412 96.0505 42.8138 96.9175 43.0501 97.9421C43.4438 99.3607 42.5775 101.095 42.3412 101.804Z" fill="url(#paint21_linear_2672_40262)"/>
</g>
</g>
<path d="M64 126C98.493 126 126.455 98.0178 126.455 63.5C126.455 28.9822 98.493 1 64 1C29.507 1 1.54492 28.9822 1.54492 63.5C1.54492 98.0178 29.507 126 64 126Z" stroke="url(#paint22_linear_2672_40262)" stroke-width="2" stroke-miterlimit="10"/>
<path d="M115.532 106.341L99.9374 90.5835C98.3379 88.9673 96.0387 88.3613 93.9395 88.7653L90.1408 84.9269C100.937 71.3916 100.037 51.4926 87.6417 38.9673C77.2453 28.4623 61.7506 26.1391 49.155 32.0986C45.6562 33.7148 42.3574 36.038 39.3584 38.9673C35.6597 42.6037 33.0606 46.9471 31.4612 51.5936C30.6614 53.8158 30.0616 56.038 29.7617 58.3613C28.2623 68.7653 31.4612 79.7754 39.3584 87.7552C39.5584 87.9572 39.6583 88.0582 39.8583 88.2603C46.456 94.7249 54.953 97.8562 63.55 97.8562C71.1474 97.8562 78.7447 95.331 84.9426 90.2804L88.7413 94.1188C88.3414 96.24 88.9412 98.5633 90.5407 100.179L106.035 115.937C108.634 118.563 112.833 118.563 115.432 115.937C118.131 113.311 118.131 108.967 115.532 106.341ZM82.7434 82.8057C81.5438 84.0178 80.2442 85.0279 78.9447 86.038C77.6451 86.9471 76.3456 87.6542 75.046 88.2603C67.8485 91.6946 59.3515 91.6946 52.154 88.2603C49.3549 86.9471 46.7559 85.1289 44.4567 82.8057C37.8589 76.139 35.3598 66.9471 36.9593 58.3613C37.3591 56.038 38.0589 53.7148 39.1585 51.5936C40.458 48.8663 42.2574 46.2401 44.4567 44.0178C45.9561 42.5027 47.5556 41.1896 49.255 40.1795C53.6535 37.3512 58.6517 36.038 63.65 36.038C70.6476 36.038 77.5452 38.6643 82.8433 44.0178C93.3397 54.7249 93.3397 72.0986 82.7434 82.8057Z" fill="url(#paint23_linear_2672_40262)" stroke="url(#paint24_linear_2672_40262)" stroke-width="2" stroke-miterlimit="10"/>
<defs>
<linearGradient id="paint0_linear_2672_40262" x1="119.039" y1="124.397" x2="4.01593" y2="118.016" gradientUnits="userSpaceOnUse">
<stop stop-color="#FEC4D5"/>
<stop offset="1" stop-color="#FFF1E6"/>
</linearGradient>
<linearGradient id="paint1_linear_2672_40262" x1="115.916" y1="124.397" x2="-6.04758" y2="116.489" gradientUnits="userSpaceOnUse">
<stop stop-color="#FEA7C0"/>
<stop offset="1" stop-color="#FFC08A"/>
</linearGradient>
<linearGradient id="paint2_linear_2672_40262" x1="82.2713" y1="83.5271" x2="43.1815" y2="81.3545" gradientUnits="userSpaceOnUse">
<stop stop-color="#FEC4D5"/>
<stop offset="1" stop-color="#FFF1E6"/>
</linearGradient>
<linearGradient id="paint3_linear_2672_40262" x1="81.2101" y1="83.5271" x2="39.7617" y2="80.8345" gradientUnits="userSpaceOnUse">
<stop stop-color="#FEA7C0"/>
<stop offset="1" stop-color="#FFC08A"/>
</linearGradient>
<linearGradient id="paint4_linear_2672_40262" x1="76.4125" y1="83.7757" x2="47.7205" y2="78.5226" gradientUnits="userSpaceOnUse">
<stop stop-color="#FEA7C0"/>
<stop offset="1" stop-color="#FFC08A"/>
</linearGradient>
<linearGradient id="paint5_linear_2672_40262" x1="71.0273" y1="60.4317" x2="55.163" y2="59.1004" gradientUnits="userSpaceOnUse">
<stop stop-color="#FE7FA4"/>
<stop offset="1" stop-color="#FEA355"/>
</linearGradient>
<linearGradient id="paint6_linear_2672_40262" x1="64.1765" y1="72.313" x2="64.1765" y2="69.4232" gradientUnits="userSpaceOnUse">
<stop stop-color="white"/>
<stop offset="0.9913" stop-color="#D6DEEA"/>
</linearGradient>
<linearGradient id="paint7_linear_2672_40262" x1="36.708" y1="46.6116" x2="6.75621" y2="44.946" gradientUnits="userSpaceOnUse">
<stop stop-color="#FEC4D5"/>
<stop offset="1" stop-color="#FFF1E6"/>
</linearGradient>
<linearGradient id="paint8_linear_2672_40262" x1="35.8949" y1="46.6116" x2="4.13583" y2="44.5473" gradientUnits="userSpaceOnUse">
<stop stop-color="#FEA7C0"/>
<stop offset="1" stop-color="#FFC08A"/>
</linearGradient>
<linearGradient id="paint9_linear_2672_40262" x1="31.7202" y1="46.9068" x2="12.1036" y2="44.1614" gradientUnits="userSpaceOnUse">
<stop stop-color="#FEA7C0"/>
<stop offset="1" stop-color="#FFC08A"/>
</linearGradient>
<linearGradient id="paint10_linear_2672_40262" x1="28.8426" y1="28.5541" x2="15.7277" y2="27.2881" gradientUnits="userSpaceOnUse">
<stop stop-color="#FE7FA4"/>
<stop offset="1" stop-color="#FEA355"/>
</linearGradient>
<linearGradient id="paint11_linear_2672_40262" x1="21.6067" y1="42.3939" x2="12.8953" y2="41.9643" gradientUnits="userSpaceOnUse">
<stop stop-color="#FE7FA4"/>
<stop offset="1" stop-color="#FEA355"/>
</linearGradient>
<linearGradient id="paint12_linear_2672_40262" x1="118.935" y1="51.611" x2="83.8688" y2="49.3372" gradientUnits="userSpaceOnUse">
<stop stop-color="#FEA7C0"/>
<stop offset="1" stop-color="#FFC08A"/>
</linearGradient>
<linearGradient id="paint13_linear_2672_40262" x1="119.833" y1="51.6897" x2="86.7622" y2="49.855" gradientUnits="userSpaceOnUse">
<stop stop-color="#FEC4D5"/>
<stop offset="1" stop-color="#FFF1E6"/>
</linearGradient>
<linearGradient id="paint14_linear_2672_40262" x1="118.935" y1="51.6896" x2="83.8688" y2="49.4158" gradientUnits="userSpaceOnUse">
<stop stop-color="#FEA7C0"/>
<stop offset="1" stop-color="#FFC08A"/>
</linearGradient>
<linearGradient id="paint15_linear_2672_40262" x1="114.844" y1="51.9537" x2="90.5349" y2="47.5752" gradientUnits="userSpaceOnUse">
<stop stop-color="#FEA7C0"/>
<stop offset="1" stop-color="#FFC08A"/>
</linearGradient>
<linearGradient id="paint16_linear_2672_40262" x1="110.319" y1="32.1606" x2="96.8897" y2="31.0333" gradientUnits="userSpaceOnUse">
<stop stop-color="#FE7FA4"/>
<stop offset="1" stop-color="#FEA355"/>
</linearGradient>
<linearGradient id="paint17_linear_2672_40262" x1="50.2285" y1="119.818" x2="17.5466" y2="117.694" gradientUnits="userSpaceOnUse">
<stop stop-color="#FEA7C0"/>
<stop offset="1" stop-color="#FFC08A"/>
</linearGradient>
<linearGradient id="paint18_linear_2672_40262" x1="51.0603" y1="119.897" x2="20.1661" y2="118.175" gradientUnits="userSpaceOnUse">
<stop stop-color="#FEC4D5"/>
<stop offset="1" stop-color="#FFF1E6"/>
</linearGradient>
<linearGradient id="paint19_linear_2672_40262" x1="50.2215" y1="119.897" x2="17.4634" y2="117.763" gradientUnits="userSpaceOnUse">
<stop stop-color="#FEA7C0"/>
<stop offset="1" stop-color="#FFC08A"/>
</linearGradient>
<linearGradient id="paint20_linear_2672_40262" x1="46.4643" y1="120.136" x2="23.7319" y2="116.025" gradientUnits="userSpaceOnUse">
<stop stop-color="#FEA7C0"/>
<stop offset="1" stop-color="#FFC08A"/>
</linearGradient>
<linearGradient id="paint21_linear_2672_40262" x1="42.1418" y1="101.684" x2="29.5695" y2="100.626" gradientUnits="userSpaceOnUse">
<stop stop-color="#FE7FA4"/>
<stop offset="1" stop-color="#FEA355"/>
</linearGradient>
<linearGradient id="paint22_linear_2672_40262" x1="115.916" y1="124.397" x2="-6.04758" y2="116.489" gradientUnits="userSpaceOnUse">
<stop stop-color="#FEA7C0"/>
<stop offset="1" stop-color="#FFC08A"/>
</linearGradient>
<linearGradient id="paint23_linear_2672_40262" x1="110.038" y1="116.765" x2="24.0426" y2="111.245" gradientUnits="userSpaceOnUse">
<stop stop-color="#FEA7C0"/>
<stop offset="1" stop-color="#FFC08A"/>
</linearGradient>
<linearGradient id="paint24_linear_2672_40262" x1="110.589" y1="116.704" x2="24.5774" y2="111.768" gradientUnits="userSpaceOnUse">
<stop stop-color="#FE7FA4"/>
<stop offset="1" stop-color="#FEA355"/>
</linearGradient>
</defs>
</svg>
