<svg width="120" height="48" viewBox="0 0 120 48" fill="none" xmlns="http://www.w3.org/2000/svg">
<g id="Group">
<path id="Vector" d="M0.0922852 45.0015L111.04 46.2725L113.154 32.1236C113.154 32.1236 107.953 30.0285 109.075 22.8773C110.198 15.712 115.796 14.5109 115.796 14.5109L117.893 0.515625L2.338 12.9605L1.67749 22.4443C1.67749 22.4443 5.8882 23.2823 5.40933 28.8273C4.94698 34.3724 0.785811 35.0987 0.785811 35.0987L0.0922852 45.0154V45.0015Z" fill="url(#paint0_linear_6564_90668)"/>
<path id="Vector_2" d="M113.088 47.5L111.024 46.2709L113.137 32.122C113.137 32.122 107.688 29.985 108.943 22.5125C110.066 15.8082 115.78 14.4952 115.78 14.4952L117.877 0.5L119.908 2.02244L117.877 15.5847C117.877 15.5847 112.774 15.431 111.288 23.1689C109.802 30.9068 115.218 33.2813 115.218 33.2813L113.088 47.4581V47.5Z" fill="#F8B4B4"/>
<path id="Vector_3" d="M113.088 47.4982L111.04 46.2691L0.0922852 44.998L1.54539 46.1015L113.088 47.4982Z" fill="#F98080"/>
<g id="Group_2">
<path id="Vector_4" d="M105.311 6.30932C105.195 7.04959 104.402 7.65018 103.511 7.65018C102.619 7.65018 101.992 7.04959 102.107 6.30932C102.223 5.56905 103.015 4.98242 103.907 4.98242C104.799 4.98242 105.426 5.58302 105.311 6.30932Z" fill="url(#paint1_linear_6564_90668)"/>
<path id="Vector_5" d="M104.634 10.9346C104.518 11.6749 103.725 12.2755 102.834 12.2755C101.942 12.2755 101.315 11.6749 101.43 10.9346C101.546 10.1943 102.338 9.59375 103.23 9.59375C104.122 9.59375 104.749 10.1943 104.634 10.9346Z" fill="url(#paint2_linear_6564_90668)"/>
<path id="Vector_6" d="M103.973 15.321C103.857 16.0613 103.065 16.6619 102.173 16.6619C101.281 16.6619 100.654 16.0613 100.77 15.321C100.885 14.5808 101.678 13.9941 102.569 13.9941C103.461 13.9941 104.089 14.5947 103.973 15.321Z" fill="url(#paint3_linear_6564_90668)"/>
<path id="Vector_7" d="M103.296 19.9405C103.18 20.6807 102.388 21.2674 101.496 21.2674C100.604 21.2674 99.9769 20.6668 100.092 19.9405C100.208 19.2002 101.001 18.5996 101.892 18.5996C102.784 18.5996 103.411 19.2002 103.296 19.9405Z" fill="url(#paint4_linear_6564_90668)"/>
<path id="Vector_8" d="M102.635 24.3291C102.52 25.0694 101.727 25.67 100.836 25.67C99.9439 25.67 99.3165 25.0694 99.4321 24.3291C99.5476 23.5889 100.34 22.9883 101.232 22.9883C102.124 22.9883 102.751 23.5889 102.635 24.3291Z" fill="url(#paint5_linear_6564_90668)"/>
<path id="Vector_9" d="M101.991 28.71C101.876 29.4503 101.083 30.0509 100.192 30.0509C99.2999 30.0509 98.6724 29.4503 98.788 28.71C98.9036 27.9697 99.6962 27.3691 100.588 27.3691C101.48 27.3691 102.107 27.9697 101.991 28.71Z" fill="url(#paint6_linear_6564_90668)"/>
<path id="Vector_10" d="M101.298 33.335C101.182 34.0753 100.39 34.6759 99.4981 34.6759C98.6064 34.6759 97.9789 34.0753 98.0945 33.335C98.2101 32.5947 99.0027 31.9941 99.8944 31.9941C100.786 31.9941 101.414 32.5947 101.298 33.335Z" fill="url(#paint7_linear_6564_90668)"/>
<path id="Vector_11" d="M100.638 37.8894C100.522 38.6297 99.7294 39.2303 98.8377 39.2303C97.946 39.2303 97.3185 38.6297 97.4341 37.8894C97.5497 37.1491 98.3423 36.5625 99.234 36.5625C100.126 36.5625 100.753 37.1631 100.638 37.8894Z" fill="url(#paint8_linear_6564_90668)"/>
<path id="Vector_12" d="M99.944 42.4991C99.8284 43.2393 99.0358 43.8399 98.1441 43.8399C97.2524 43.8399 96.6249 43.2393 96.7405 42.4991C96.8561 41.7588 97.6487 41.1582 98.5404 41.1582C99.4321 41.1582 100.06 41.7588 99.944 42.4991Z" fill="url(#paint9_linear_6564_90668)"/>
</g>
<g id="Group_3">
<path id="Vector_13" d="M14.5903 21.8555C16.1095 21.7437 17.1993 21.8834 17.8433 22.2884C18.4873 22.6935 18.735 23.35 18.5698 24.2718C18.4873 24.6908 18.3387 25.0819 18.124 25.4311C17.9093 25.7803 17.6451 26.0736 17.3314 26.2971C17.0342 26.5345 16.7039 26.7021 16.3571 26.7999V26.8837C16.7369 26.9675 17.0672 27.1072 17.3149 27.3167C17.5626 27.5262 17.7442 27.7916 17.8598 28.1268C17.9589 28.462 17.9754 28.881 17.8763 29.3838C17.7607 30.0543 17.48 30.6549 17.0342 31.1577C16.5883 31.6605 16.0104 32.0656 15.3168 32.3449C14.6233 32.6242 13.8307 32.7779 12.9555 32.8058L8.76135 32.9176L10.8584 22.1348L14.6068 21.8694L14.5903 21.8555ZM13.8307 26.0456C14.2435 26.0177 14.5903 25.906 14.8215 25.7104C15.0692 25.5009 15.2178 25.2216 15.2838 24.8864C15.3499 24.5651 15.2838 24.3277 15.1022 24.1601C14.9205 24.0064 14.5903 23.9366 14.1444 23.9645L13.4509 24.0064L13.0546 26.0875L13.8142 26.0456H13.8307ZM12.6748 28.1547L12.2125 30.613L13.1042 30.585C13.5665 30.571 13.9298 30.4453 14.194 30.2219C14.4582 29.9984 14.6068 29.6771 14.6894 29.2721C14.7389 29.0207 14.7224 28.8112 14.6563 28.6436C14.5903 28.476 14.4582 28.3363 14.2766 28.2385C14.0949 28.1407 13.8472 28.0988 13.5335 28.1128L12.6748 28.1547Z" fill="white"/>
<path id="Vector_14" d="M26.2481 32.4682L26.0335 30.2055L22.6319 30.3172L21.6907 32.5799L18.1074 32.6637L23.6226 21.1826L28.081 20.8613L30.0791 32.3564L26.2646 32.4542L26.2481 32.4682ZM25.6702 25.4566C25.6537 25.1912 25.6372 24.9118 25.6041 24.6185C25.5876 24.3252 25.5711 24.0319 25.5546 23.7386C25.5546 23.4453 25.5216 23.1939 25.5051 22.9704C25.439 23.1939 25.3564 23.4453 25.2574 23.7386C25.1583 24.0179 25.0427 24.3113 24.9106 24.6185C24.7785 24.9258 24.6629 25.2052 24.5638 25.4845L23.5896 27.9008L25.8353 27.8031L25.6702 25.4566Z" fill="white"/>
<path id="Vector_15" d="M31.3672 32.3434L33.1671 20.5271L36.7833 20.2617L35.4128 29.7036L39.9702 29.55L39.6235 32.1479L31.3672 32.3574V32.3434Z" fill="white"/>
<path id="Vector_16" d="M41.4893 32.0879L43.1075 19.8106L47.021 19.5312L45.799 29.3363L50.7528 29.1687L50.4391 31.8644L41.4893 32.0879Z" fill="white"/>
<path id="Vector_17" d="M67.4141 24.6307C67.315 25.7341 67.0673 26.7258 66.671 27.5918C66.2747 28.4717 65.7298 29.212 65.0363 29.8545C64.3592 30.483 63.5171 30.9579 62.5263 31.2931C61.5356 31.6143 60.4127 31.7959 59.1578 31.8239C57.9028 31.8518 56.879 31.7261 56.0039 31.4467C55.1287 31.1674 54.4186 30.7484 53.8737 30.1897C53.3288 29.631 52.9655 28.9466 52.7674 28.1225C52.5692 27.3124 52.5362 26.3766 52.6518 25.3291C52.8004 23.9323 53.1967 22.7591 53.8242 21.7674C54.4517 20.7757 55.3103 19.9935 56.4167 19.4069C57.5395 18.8203 58.8936 18.4711 60.4788 18.3594C62.064 18.2476 63.4841 18.4013 64.5409 18.8343C65.6142 19.2673 66.3903 19.9796 66.8526 20.9433C67.315 21.9071 67.4966 23.1502 67.381 24.6307H67.4141ZM57.1267 25.1335C57.0442 25.9855 57.0607 26.6979 57.1928 27.2705C57.3249 27.8432 57.5891 28.2762 57.9689 28.5695C58.3487 28.8628 58.844 28.9885 59.4715 28.9745C60.099 28.9606 60.6604 28.7929 61.1063 28.4857C61.5521 28.1784 61.8989 27.7175 62.1466 27.1169C62.3942 26.5163 62.5594 25.762 62.6419 24.8821C62.774 23.5552 62.6419 22.5775 62.2621 21.935C61.8823 21.3065 61.2218 21.0132 60.2806 21.069C59.6697 21.1109 59.1413 21.2925 58.7119 21.5998C58.2826 21.9071 57.9358 22.368 57.6716 22.9686C57.4239 23.5552 57.2423 24.2815 57.1597 25.1475L57.1267 25.1335Z" fill="white"/>
<path id="Vector_18" d="M77.4042 31.181L72.4339 31.3067L73.2265 20.4402L69.379 20.6776L69.6102 17.8981L82.3414 16.9902L82.1763 19.8815L78.1142 20.1329L77.4042 31.181Z" fill="white"/>
<path id="Vector_19" d="M96.6083 26.1407C96.5753 27.0346 96.2616 27.8587 95.6341 28.599C95.0066 29.3392 94.1149 29.9398 92.9756 30.3868C91.8362 30.8337 90.4491 31.0712 88.8474 31.1131C88.0878 31.127 87.3943 31.1131 86.7503 31.0851C86.1063 31.0572 85.5119 30.9594 84.9339 30.8477C84.356 30.722 83.745 30.5544 83.1176 30.3449L83.2992 26.867C84.2074 27.2022 85.1486 27.4676 86.1063 27.6492C87.0806 27.8307 87.9723 27.9145 88.7979 27.8866C89.2768 27.8726 89.6565 27.8028 89.9868 27.705C90.3005 27.5933 90.5317 27.4536 90.6803 27.286C90.8289 27.1184 90.9115 26.9229 90.9115 26.7273C90.9115 26.4899 90.8454 26.2943 90.6968 26.1128C90.5482 25.9312 90.251 25.7496 89.8217 25.5541C89.3923 25.3585 88.7649 25.1351 87.9392 24.8557C87.2622 24.6183 86.6512 24.3808 86.1228 24.1434C85.5944 23.9059 85.1321 23.6266 84.7853 23.3193C84.422 23.012 84.1579 22.6628 83.9762 22.2438C83.7946 21.8248 83.712 21.336 83.745 20.7633C83.7946 19.9113 84.0918 19.171 84.6697 18.5285C85.2312 17.886 86.0568 17.3692 87.0971 16.9642C88.1539 16.5591 89.4254 16.2938 90.895 16.196C91.9353 16.1262 92.9425 16.1401 93.9498 16.2379C94.9571 16.3496 95.9148 16.5312 96.8725 16.7826L95.2378 19.8973C94.4287 19.6459 93.6526 19.4643 92.9095 19.3526C92.1664 19.2409 91.4894 19.199 90.8785 19.2409C90.4657 19.2688 90.1354 19.3247 89.8712 19.4224C89.607 19.5202 89.4088 19.6459 89.2767 19.7856C89.1446 19.9392 89.0786 20.0929 89.0786 20.2605C89.0786 20.4979 89.1447 20.7074 89.3098 20.875C89.4749 21.0426 89.7886 21.2242 90.251 21.4058C90.7133 21.5874 91.3904 21.8248 92.282 22.1042C93.2233 22.3975 94.0324 22.7187 94.6764 23.0819C95.3369 23.445 95.8157 23.878 96.146 24.3669C96.4762 24.8557 96.6249 25.4563 96.6083 26.1407Z" fill="white"/>
</g>
</g>
<defs>
<linearGradient id="paint0_linear_6564_90668" x1="117.893" y1="23.3941" x2="0.0922852" y2="23.3941" gradientUnits="userSpaceOnUse">
<stop stop-color="#FBD5D5"/>
<stop offset="1" stop-color="#F05252"/>
</linearGradient>
<linearGradient id="paint1_linear_6564_90668" x1="105.132" y1="7.61598" x2="102.162" y2="7.41624" gradientUnits="userSpaceOnUse">
<stop stop-color="#FEC4D5"/>
<stop offset="1" stop-color="#FFF1E6"/>
</linearGradient>
<linearGradient id="paint2_linear_6564_90668" x1="104.455" y1="12.2411" x2="101.484" y2="12.0424" gradientUnits="userSpaceOnUse">
<stop stop-color="#FEC4D5"/>
<stop offset="1" stop-color="#FFF1E6"/>
</linearGradient>
<linearGradient id="paint3_linear_6564_90668" x1="103.795" y1="16.6277" x2="100.824" y2="16.4279" gradientUnits="userSpaceOnUse">
<stop stop-color="#FEC4D5"/>
<stop offset="1" stop-color="#FFF1E6"/>
</linearGradient>
<linearGradient id="paint4_linear_6564_90668" x1="103.118" y1="21.2332" x2="100.147" y2="21.0334" gradientUnits="userSpaceOnUse">
<stop stop-color="#FEC4D5"/>
<stop offset="1" stop-color="#FFF1E6"/>
</linearGradient>
<linearGradient id="paint5_linear_6564_90668" x1="102.457" y1="25.6356" x2="99.4864" y2="25.4369" gradientUnits="userSpaceOnUse">
<stop stop-color="#FEC4D5"/>
<stop offset="1" stop-color="#FFF1E6"/>
</linearGradient>
<linearGradient id="paint6_linear_6564_90668" x1="101.813" y1="30.0165" x2="98.8423" y2="29.8178" gradientUnits="userSpaceOnUse">
<stop stop-color="#FEC4D5"/>
<stop offset="1" stop-color="#FFF1E6"/>
</linearGradient>
<linearGradient id="paint7_linear_6564_90668" x1="101.12" y1="34.6415" x2="98.1489" y2="34.4428" gradientUnits="userSpaceOnUse">
<stop stop-color="#FEC4D5"/>
<stop offset="1" stop-color="#FFF1E6"/>
</linearGradient>
<linearGradient id="paint8_linear_6564_90668" x1="100.459" y1="39.1961" x2="97.4886" y2="38.9963" gradientUnits="userSpaceOnUse">
<stop stop-color="#FEC4D5"/>
<stop offset="1" stop-color="#FFF1E6"/>
</linearGradient>
<linearGradient id="paint9_linear_6564_90668" x1="99.7659" y1="43.8056" x2="96.7949" y2="43.6068" gradientUnits="userSpaceOnUse">
<stop stop-color="#FEC4D5"/>
<stop offset="1" stop-color="#FFF1E6"/>
</linearGradient>
</defs>
</svg>
