<svg width="248" height="243" viewBox="0 0 248 243" fill="none" xmlns="http://www.w3.org/2000/svg">
<path d="M105.378 31.0605L97.5979 45.7391H148.808L143.059 31.0605L122.757 34.0734L105.378 31.0605Z" fill="url(#paint0_linear_6593_54678)"/>
<path d="M185.439 181.919C219.578 148.429 219.578 94.1301 185.439 60.6398C151.301 27.1495 95.9516 27.1495 61.8132 60.6398C27.6747 94.1301 27.6747 148.429 61.8131 181.919C95.9516 215.409 151.301 215.409 185.439 181.919Z" fill="url(#paint1_linear_6593_54678)" fill-opacity="0.9"/>
<path d="M179.324 175.92C210.085 145.743 210.085 96.816 179.324 66.639C148.563 36.462 98.6894 36.462 67.9283 66.639C37.1673 96.816 37.1672 145.743 67.9283 175.92C98.6894 206.097 148.563 206.097 179.324 175.92Z" fill="url(#paint2_linear_6593_54678)"/>
<path d="M200.682 121.276C200.682 163.021 166.178 196.861 123.633 196.861C81.0871 196.861 46.5757 163.021 46.5757 121.276C46.5757 79.5298 81.0708 45.6816 123.633 45.6816C166.195 45.6816 200.682 79.5217 200.682 121.276Z" fill="url(#paint3_radial_6593_54678)"/>
<path d="M67.5579 173.124L123.633 121.279L49.8108 143.004C53.2914 154.412 59.4419 164.68 67.5579 173.124Z" fill="url(#paint4_linear_6593_54678)"/>
<path d="M123.625 196.873C129.726 196.873 135.663 196.174 141.355 194.857L123.625 121.279L105.894 194.857C111.586 196.174 117.523 196.873 123.633 196.873H123.625Z" fill="url(#paint5_linear_6593_54678)"/>
<path d="M197.447 143.004L123.625 121.279L179.691 173.124C187.807 164.68 193.958 154.412 197.438 143.004H197.447Z" fill="url(#paint6_linear_6593_54678)"/>
<path d="M179.7 69.4355L123.633 121.28L197.455 99.5558C193.974 88.1472 187.824 77.8795 179.708 69.4355H179.7Z" fill="url(#paint7_linear_6593_54678)"/>
<path d="M49.8025 99.5558L123.625 121.28L67.5496 69.4355C59.4336 77.8795 53.2831 88.1472 49.8025 99.5558Z" fill="url(#paint8_linear_6593_54678)"/>
<path d="M123.625 45.6934C117.524 45.6934 111.586 46.3923 105.886 47.7099L123.617 121.287L141.347 47.7099C135.656 46.3923 129.718 45.6934 123.617 45.6934H123.625Z" fill="url(#paint9_linear_6593_54678)"/>
<path style="mix-blend-mode:multiply" opacity="0.7" d="M131.143 122.996C131.143 127.64 127.302 131.408 122.568 131.408C117.835 131.408 113.994 127.64 113.994 122.996C113.994 118.352 117.835 114.584 122.568 114.584C127.302 114.584 131.143 118.352 131.143 122.996Z" fill="url(#paint10_radial_6593_54678)"/>
<path d="M128.825 121.276C128.825 124.096 126.499 126.377 123.625 126.377C120.75 126.377 118.424 124.096 118.424 121.276C118.424 118.456 120.75 116.174 123.625 116.174C126.499 116.174 128.825 118.456 128.825 121.276Z" fill="url(#paint11_linear_6593_54678)"/>
<path d="M124.222 51.604L143.059 31.0605H105.378L124.222 51.604Z" fill="url(#paint12_linear_6593_54678)"/>
<path d="M28.7596 150.823L217.831 161.158V136.457C217.831 136.457 204.976 132.492 204.976 116.812C204.976 101.132 217.88 97.5238 217.88 97.5238V72.4668L28.809 88.1692V106.823C28.809 106.823 37.8695 108.716 37.8695 120.042C37.8695 131.368 28.7843 133.896 28.7843 133.896V150.778L28.7596 150.801V150.823Z" fill="url(#paint13_linear_6593_54678)"/>
<path d="M217.831 161.168L223.084 159.776L223.48 135.254C223.48 135.254 210.996 133.683 210.996 116.845C210.996 100.007 224.073 97.4343 224.073 97.4343L224.444 73.168L217.905 72.5332V97.5902C217.905 97.5902 205.001 99.5614 205.001 116.879C205.001 134.196 217.88 136.523 217.88 136.523V161.224L217.856 161.168H217.831Z" fill="url(#paint14_linear_6593_54678)"/>
<path d="M193.678 81.5805C193.678 83.0171 194.889 84.1865 196.397 84.1865C197.905 84.1865 199.117 83.0283 199.117 81.5805C199.117 80.1328 197.905 78.9746 196.397 78.9746C194.889 78.9746 193.678 80.1328 193.678 81.5805Z" fill="#7A4C00"/>
<path d="M193.703 90.5923C193.703 92.0289 194.914 93.1982 196.422 93.1982C197.93 93.1982 199.141 92.04 199.141 90.5923C199.141 89.1445 197.905 87.9863 196.422 87.9863C194.939 87.9863 193.703 89.1445 193.703 90.5923Z" fill="#7A4C00"/>
<path d="M193.703 99.1352C193.703 100.572 194.914 101.741 196.422 101.741C197.93 101.741 199.141 100.583 199.141 99.1352C199.141 97.6875 197.93 96.5293 196.422 96.5293C194.914 96.5293 193.703 97.6875 193.703 99.1352Z" fill="#7A4C00"/>
<path d="M193.727 108.135C193.727 109.572 194.939 110.741 196.447 110.741C197.955 110.741 199.166 109.583 199.166 108.135C199.166 106.688 197.93 105.529 196.447 105.529C194.963 105.529 193.727 106.688 193.727 108.135Z" fill="#7A4C00"/>
<path d="M193.727 116.686C193.727 118.123 194.963 119.292 196.447 119.292C197.93 119.292 199.166 118.134 199.166 116.686C199.166 115.238 197.955 114.08 196.447 114.08C194.939 114.08 193.727 115.238 193.727 116.686Z" fill="#7A4C00"/>
<path d="M193.727 125.233C193.727 126.669 194.963 127.839 196.447 127.839C197.93 127.839 199.166 126.681 199.166 125.233C199.166 123.785 197.955 122.627 196.447 122.627C194.939 122.627 193.727 123.785 193.727 125.233Z" fill="#7A4C00"/>
<path d="M193.752 134.221C193.752 135.658 194.988 136.827 196.472 136.827C197.955 136.827 199.191 135.669 199.191 134.221C199.191 132.773 197.98 131.615 196.472 131.615C194.964 131.615 193.752 132.773 193.752 134.221Z" fill="#7A4C00"/>
<path d="M193.752 143.081C193.752 144.517 194.988 145.686 196.472 145.686C197.955 145.686 199.191 144.528 199.191 143.081C199.191 141.633 197.98 140.475 196.472 140.475C194.964 140.475 193.752 141.633 193.752 143.081Z" fill="#7A4C00"/>
<path d="M193.789 152.061C193.789 153.498 195.001 154.667 196.509 154.667C198.017 154.667 199.228 153.509 199.228 152.061C199.228 150.613 197.992 149.455 196.509 149.455C195.025 149.455 193.789 150.613 193.789 152.061Z" fill="#7A4C00"/>
<path d="M50.18 111.176C52.7189 111.061 54.5309 111.337 55.588 112.029C56.645 112.72 57.0303 113.806 56.7158 115.307C56.5603 115.99 56.2958 116.623 55.9229 117.185C55.55 117.747 55.0968 118.216 54.564 118.568C54.0581 118.943 53.5001 119.203 52.9175 119.347L52.9139 119.485C53.5439 119.639 54.0889 119.882 54.4932 120.236C54.8974 120.59 55.1892 121.032 55.3677 121.586C55.5188 122.139 55.5286 122.825 55.342 123.644C55.1207 124.736 54.6269 125.707 53.8619 126.51C53.0968 127.314 52.1156 127.951 50.9468 128.377C49.7781 128.804 48.4494 129.02 46.9884 129.027L39.9873 129.025L43.943 111.468L50.2069 111.2L50.18 111.176ZM48.7351 118.001C49.4249 117.974 50.0081 117.806 50.402 117.496C50.8241 117.164 51.0839 116.714 51.2083 116.168C51.3321 115.645 51.232 115.253 50.9361 114.971C50.6396 114.711 50.0917 114.583 49.3468 114.609L48.1881 114.646L47.4387 118.035L48.7076 118L48.7351 118.001ZM46.7175 121.402L45.8419 125.405L47.3305 125.399C48.1024 125.397 48.7137 125.207 49.1639 124.853C49.6141 124.499 49.8756 123.979 50.0305 123.32C50.1238 122.911 50.1052 122.567 50.0021 122.29C49.8991 122.013 49.6846 121.778 49.3858 121.61C49.0869 121.442 48.6755 121.362 48.1516 121.371L46.7175 121.402Z" fill="#7A4C00"/>
<path d="M69.1659 129.049L68.9039 125.337L63.2253 125.369L61.5594 129.03L55.579 129.009L65.2655 110.463L72.7157 110.135L75.5606 129.036L69.1941 129.027L69.1659 129.049ZM68.4994 117.549C68.4831 117.114 68.4675 116.656 68.4248 116.174C68.4097 115.693 68.3946 115.213 68.3795 114.732C68.392 114.252 68.3476 113.839 68.3295 113.472C68.2099 113.835 68.0615 114.243 67.8838 114.719C67.7066 115.171 67.5014 115.646 67.268 116.143C67.0347 116.64 66.83 117.093 66.6529 117.545L64.9253 121.457L68.6753 121.396L68.4994 117.549Z" fill="#7A4C00"/>
<path d="M77.6984 129.035L81.2027 109.77L87.2472 109.496L84.5599 124.892L92.1699 124.843L91.4812 129.08L77.6978 129.058L77.6984 129.035Z" fill="#7A4C00"/>
<path d="M94.5841 129.046L97.8048 109.019L104.346 108.735L101.891 124.733L110.162 124.678L109.525 129.077L94.5841 129.046Z" fill="#7A4C00"/>
<path d="M138.132 117.971C137.92 119.772 137.465 121.384 136.767 122.783C136.069 124.206 135.128 125.393 133.944 126.414C132.789 127.412 131.364 128.152 129.697 128.657C128.031 129.139 126.15 129.386 124.056 129.376C121.962 129.366 120.259 129.115 118.812 128.62C117.364 128.124 116.197 127.407 115.312 126.468C114.427 125.53 113.85 124.394 113.554 123.036C113.258 121.702 113.243 120.169 113.48 118.46C113.787 116.181 114.498 114.279 115.587 112.683C116.675 111.088 118.141 109.846 120.011 108.935C121.909 108.025 124.182 107.514 126.831 107.401C129.479 107.288 131.841 107.603 133.586 108.358C135.358 109.114 136.622 110.314 137.352 111.912C138.082 113.509 138.333 115.551 138.077 117.969L138.132 117.971ZM120.952 118.338C120.778 119.729 120.776 120.895 120.972 121.838C121.168 122.781 121.59 123.501 122.211 123.998C122.832 124.495 123.653 124.722 124.7 124.727C125.747 124.732 126.691 124.483 127.448 124C128.204 123.517 128.802 122.778 129.241 121.806C129.679 120.834 129.987 119.607 130.162 118.171C130.438 116.005 130.26 114.399 129.653 113.331C129.047 112.286 127.957 111.777 126.385 111.826C125.364 111.868 124.475 112.142 123.746 112.626C123.017 113.109 122.419 113.848 121.953 114.819C121.515 115.768 121.181 116.949 121.007 118.362L120.952 118.338Z" fill="#7A4C00"/>
<path d="M154.504 129.115L146.208 129.101L147.991 111.35L141.563 111.569L142.067 107.029L163.342 106.107L162.944 110.832L156.157 111.064L154.504 129.115Z" fill="#7A4C00"/>
<path d="M186.738 121.67C186.645 123.132 186.087 124.467 185.009 125.651C183.931 126.834 182.418 127.778 180.498 128.459C178.579 129.14 176.255 129.467 173.581 129.465C172.314 129.454 171.157 129.401 170.084 129.327C169.011 129.252 168.024 129.066 167.064 128.858C166.106 128.626 165.094 128.325 164.056 127.954L164.507 122.27C166.007 122.859 167.566 123.335 169.156 123.674C170.773 124.015 172.257 124.191 173.636 124.182C174.435 124.18 175.071 124.083 175.626 123.938C176.154 123.769 176.546 123.55 176.801 123.282C177.056 123.015 177.202 122.698 177.21 122.378C177.22 121.99 177.119 121.667 176.878 121.363C176.638 121.059 176.15 120.749 175.442 120.41C174.734 120.071 173.697 119.677 172.332 119.183C171.213 118.765 170.203 118.349 169.332 117.937C168.461 117.525 167.701 117.047 167.136 116.529C166.543 116.01 166.117 115.427 165.832 114.733C165.547 114.039 165.43 113.235 165.509 112.299C165.628 110.907 166.155 109.709 167.147 108.683C168.11 107.656 169.509 106.846 171.262 106.23C173.042 105.613 175.174 105.235 177.63 105.14C179.368 105.072 181.048 105.14 182.724 105.344C184.399 105.572 185.989 105.911 187.576 106.365L184.717 111.391C183.378 110.943 182.091 110.612 180.856 110.396C179.621 110.18 178.494 110.082 177.473 110.123C176.783 110.151 176.23 110.228 175.785 110.376C175.34 110.524 175.004 110.721 174.778 110.944C174.551 111.19 174.434 111.438 174.427 111.712C174.417 112.101 174.519 112.447 174.787 112.729C175.055 113.01 175.571 113.321 176.334 113.639C177.098 113.957 178.217 114.375 179.693 114.872C181.25 115.394 182.586 115.955 183.645 116.578C184.732 117.202 185.512 117.932 186.042 118.746C186.572 119.561 186.795 120.551 186.738 121.67Z" fill="#7A4C00"/>
<defs>
<linearGradient id="paint0_linear_6593_54678" x1="123.199" y1="46.1247" x2="123.199" y2="19.8287" gradientUnits="userSpaceOnUse">
<stop stop-color="#FFFB90"/>
<stop offset="0.14" stop-color="#FBE978"/>
<stop offset="0.24" stop-color="#F8DC65"/>
<stop offset="0.27" stop-color="#E6C758"/>
<stop offset="0.34" stop-color="#C49F40"/>
<stop offset="0.4" stop-color="#AC832F"/>
<stop offset="0.45" stop-color="#9E7225"/>
<stop offset="0.49" stop-color="#996C22"/>
<stop offset="0.52" stop-color="#9D7125"/>
<stop offset="0.56" stop-color="#A98030"/>
<stop offset="0.6" stop-color="#BD9A42"/>
<stop offset="0.64" stop-color="#D9BE5A"/>
<stop offset="0.69" stop-color="#FBE878"/>
<stop offset="0.77" stop-color="#FFFFAA"/>
<stop offset="0.83" stop-color="#FBE878"/>
<stop offset="1" stop-color="#A4631B"/>
</linearGradient>
<linearGradient id="paint1_linear_6593_54678" x1="61.8132" y1="60.6398" x2="183.07" y2="184.243" gradientUnits="userSpaceOnUse">
<stop stop-color="#262626"/>
<stop offset="0.295" stop-color="#2D2D2D"/>
<stop offset="0.67" stop-color="#2F2F2F"/>
<stop offset="1" stop-color="#323232"/>
</linearGradient>
<linearGradient id="paint2_linear_6593_54678" x1="67.4305" y1="66.1488" x2="184.484" y2="185.467" gradientUnits="userSpaceOnUse">
<stop stop-color="#FFFB90"/>
<stop offset="0.14" stop-color="#FBE978"/>
<stop offset="0.24" stop-color="#F8DC65"/>
<stop offset="0.27" stop-color="#E6C758"/>
<stop offset="0.34" stop-color="#C49F40"/>
<stop offset="0.4" stop-color="#AC832F"/>
<stop offset="0.45" stop-color="#9E7225"/>
<stop offset="0.49" stop-color="#996C22"/>
<stop offset="0.52" stop-color="#9D7125"/>
<stop offset="0.56" stop-color="#A98030"/>
<stop offset="0.6" stop-color="#BD9A42"/>
<stop offset="0.64" stop-color="#D9BE5A"/>
<stop offset="0.69" stop-color="#FBE878"/>
<stop offset="0.77" stop-color="#FFFFAA"/>
<stop offset="0.83" stop-color="#FBE878"/>
<stop offset="1" stop-color="#A4631B"/>
</linearGradient>
<radialGradient id="paint3_radial_6593_54678" cx="0" cy="0" r="1" gradientUnits="userSpaceOnUse" gradientTransform="translate(123.625 121.276) scale(82.0937 80.535)">
<stop offset="0.37" stop-color="#FDFDFD"/>
<stop offset="0.65" stop-color="#FAFAFA"/>
<stop offset="0.81" stop-color="#F2F2F2"/>
<stop offset="0.94" stop-color="#E4E4E4"/>
<stop offset="1" stop-color="#DBDBDB"/>
</radialGradient>
<linearGradient id="paint4_linear_6593_54678" x1="123.816" y1="165.411" x2="63.7688" y2="164.329" gradientUnits="userSpaceOnUse">
<stop stop-color="#FFC08A"/>
<stop offset="1" stop-color="#FEA7C0"/>
</linearGradient>
<linearGradient id="paint5_linear_6593_54678" x1="141.443" y1="185.627" x2="112.59" y2="185.456" gradientUnits="userSpaceOnUse">
<stop stop-color="#FFC08A"/>
<stop offset="1" stop-color="#FEA7C0"/>
</linearGradient>
<linearGradient id="paint6_linear_6593_54678" x1="197.63" y1="165.411" x2="137.583" y2="164.329" gradientUnits="userSpaceOnUse">
<stop stop-color="#FFC08A"/>
<stop offset="1" stop-color="#FEA7C0"/>
</linearGradient>
<linearGradient id="paint7_linear_6593_54678" x1="160.759" y1="101.744" x2="170.761" y2="55.4293" gradientUnits="userSpaceOnUse">
<stop stop-color="#FEC4D5"/>
<stop offset="1" stop-color="#FFF1E6"/>
</linearGradient>
<linearGradient id="paint8_linear_6593_54678" x1="98.0776" y1="121.638" x2="52.6539" y2="97.8412" gradientUnits="userSpaceOnUse">
<stop stop-color="#FEA7C0"/>
<stop offset="1" stop-color="#FFC08A"/>
</linearGradient>
<linearGradient id="paint9_linear_6593_54678" x1="123.888" y1="83.3029" x2="101.174" y2="71.1551" gradientUnits="userSpaceOnUse">
<stop stop-color="#FEC4D5"/>
<stop offset="1" stop-color="#FFF1E6"/>
</linearGradient>
<radialGradient id="paint10_radial_6593_54678" cx="0" cy="0" r="1" gradientUnits="userSpaceOnUse" gradientTransform="translate(122.568 122.996) scale(8.57463 8.41182)">
<stop offset="0.34" stop-color="#400500"/>
<stop offset="0.37" stop-color="#4E1813"/>
<stop offset="0.47" stop-color="#7C5451"/>
<stop offset="0.57" stop-color="#A48886"/>
<stop offset="0.67" stop-color="#C4B3B1"/>
<stop offset="0.76" stop-color="#DED4D3"/>
<stop offset="0.85" stop-color="#F0EBEB"/>
<stop offset="0.93" stop-color="#FBFAF9"/>
<stop offset="1" stop-color="white"/>
</radialGradient>
<linearGradient id="paint11_linear_6593_54678" x1="122.436" y1="109.969" x2="133.889" y2="119.804" gradientUnits="userSpaceOnUse">
<stop offset="0.0444369" stop-color="#FD4077"/>
<stop offset="1" stop-color="#FE7601"/>
</linearGradient>
<linearGradient id="paint12_linear_6593_54678" x1="124.222" y1="56.304" x2="124.222" y2="32.4264" gradientUnits="userSpaceOnUse">
<stop stop-color="#FFFB90"/>
<stop offset="0.14" stop-color="#FBE978"/>
<stop offset="0.24" stop-color="#F8DC65"/>
<stop offset="0.27" stop-color="#E6C758"/>
<stop offset="0.34" stop-color="#C49F40"/>
<stop offset="0.4" stop-color="#AC832F"/>
<stop offset="0.45" stop-color="#9E7225"/>
<stop offset="0.49" stop-color="#996C22"/>
<stop offset="0.52" stop-color="#9D7125"/>
<stop offset="0.56" stop-color="#A98030"/>
<stop offset="0.6" stop-color="#BD9A42"/>
<stop offset="0.64" stop-color="#D9BE5A"/>
<stop offset="0.69" stop-color="#FBE878"/>
<stop offset="0.77" stop-color="#FFFFAA"/>
<stop offset="0.83" stop-color="#FBE878"/>
<stop offset="1" stop-color="#A4631B"/>
</linearGradient>
<linearGradient id="paint13_linear_6593_54678" x1="150.872" y1="51.8866" x2="112.566" y2="176.566" gradientUnits="userSpaceOnUse">
<stop stop-color="#F2EBC6"/>
<stop offset="0.24" stop-color="#FFEEAB"/>
<stop offset="0.41" stop-color="#F9ED84"/>
<stop offset="0.46" stop-color="#F9EB7E"/>
<stop offset="0.53" stop-color="#FBE76E"/>
<stop offset="0.61" stop-color="#FDE153"/>
<stop offset="0.65" stop-color="#FFDE45"/>
<stop offset="0.7" stop-color="#EEC02E"/>
<stop offset="0.92" stop-color="#F4A52C"/>
</linearGradient>
<linearGradient id="paint14_linear_6593_54678" x1="214.259" y1="72.5889" x2="215.664" y2="161.251" gradientUnits="userSpaceOnUse">
<stop stop-color="#FEF7D7"/>
<stop offset="0.25" stop-color="#FFFBE6"/>
<stop offset="0.29" stop-color="#EAD4A1"/>
<stop offset="0.33" stop-color="#D4AC5A"/>
<stop offset="0.35" stop-color="#CC9D3F"/>
<stop offset="0.45" stop-color="#F3D569"/>
<stop offset="0.57" stop-color="#F9E195"/>
<stop offset="0.69" stop-color="#FFEDBF"/>
<stop offset="0.71" stop-color="#FBDD91"/>
<stop offset="0.73" stop-color="#F9CE66"/>
<stop offset="1" stop-color="#FBCB64"/>
</linearGradient>
</defs>
</svg>
