<svg xmlns="http://www.w3.org/2000/svg" width="24" height="24" viewBox="0 0 24 24" fill="none">
    <g clip-path="url(#clip0_6669_55063)">
      <path d="M12 24C18.6274 24 24 18.6274 24 12C24 5.37258 18.6274 0 12 0C5.37258 0 0 5.37258 0 12C0 18.6274 5.37258 24 12 24Z" fill="url(#paint0_linear_6669_55063)"/>
      <path d="M14.3156 8.79843L10.5234 11.9203V10.2094C10.5234 10.125 10.4578 10.0547 10.3687 10.0547L9.94219 10.0453C9.33281 10.0219 8.73281 10.0828 8.16562 10.2422C7.02656 10.5797 6.16406 11.2078 5.4375 12.2625V11.7797C5.44219 11.7656 5.44219 11.7422 5.44687 11.7234C5.44687 11.2453 5.53594 10.7391 5.7 10.2703C6.28594 8.63906 7.875 7.55156 9.65625 7.55156H9.67969H10.3594C10.4437 7.55156 10.5141 7.48125 10.5141 7.39687V5.67656L14.3156 8.79843Z" fill="#FFFFFE"/>
      <path d="M18.5672 11.7422V12.2297C18.5625 12.2437 18.5578 12.2672 18.5578 12.2859C18.5578 12.7641 18.4687 13.2703 18.3047 13.7391C17.7187 15.3703 16.1297 16.4578 14.3484 16.4578C14.3437 16.4578 14.3344 16.4578 14.325 16.4578H13.6406C13.5562 16.4578 13.4859 16.5281 13.4859 16.6125V18.3234L9.69373 15.2016L13.4812 12.0797V13.7906C13.4812 13.875 13.5469 13.9453 13.6359 13.9453L14.0625 13.9547C14.6719 13.9781 15.2719 13.9172 15.839 13.7578C16.9781 13.425 17.8359 12.7969 18.5672 11.7422Z" fill="#FFFFFE"/>
    </g>
    <defs>
      <linearGradient id="paint0_linear_6669_55063" x1="21.975" y1="23.6923" x2="-1.45867" y2="22.1717" gradientUnits="userSpaceOnUse">
        <stop stop-color="#FEA7C0"/>
        <stop offset="1" stop-color="#FFC08A"/>
      </linearGradient>
      <clipPath id="clip0_6669_55063">
        <rect width="24" height="24" fill="white"/>
      </clipPath>
    </defs>
  </svg>
